{
.appVersion = "895";
copyright = "Copyright 2009, 2010, 2011 by Daniel Johnson.  Released under the terms of the Open Font License.";
customParameters = (
{
name = licenseURL;
value = "http://scripts.sil.org/OFL";
},
{
name = vendorID;
value = PfEd;
},
{
name = panose;
value = (
2,
0,
3,
3,
0,
0,
0,
0,
0,
0
);
},
{
name = unicodeRanges;
value = (
0,
1,
2,
3,
5,
6,
7,
9,
29,
31,
32,
33,
35,
38,
45,
60,
62,
69
);
},
{
name = codePageRanges;
value = (
1252,
1250,
1251,
1253,
1254,
1257
);
},
{
name = glyphOrder;
value = (
.notdef,
uni0000,
uni000D,
space,
exclam,
quotedbl,
numbersign,
dollar,
percent,
ampersand,
quotesingle,
parenleft,
parenright,
asterisk,
plus,
comma,
hyphen,
period,
slash,
zero,
one,
two,
three,
four,
five,
six,
seven,
eight,
nine,
colon,
semicolon,
less,
equal,
greater,
question,
at,
A,
B,
C,
D,
E,
F,
G,
H,
I,
J,
K,
L,
M,
N,
O,
P,
Q,
R,
S,
T,
U,
V,
W,
X,
Y,
Z,
bracketleft,
backslash,
bracketright,
asciicircum,
underscore,
grave,
a,
b,
c,
d,
e,
f,
g,
h,
i,
j,
k,
l,
m,
n,
o,
p,
q,
r,
s,
t,
u,
v,
w,
x,
y,
z,
braceleft,
bar,
braceright,
asciitilde,
exclamdown,
cent,
sterling,
currency,
yen,
brokenbar,
section,
dieresis,
copyright,
ordfeminine,
guillemotleft,
logicalnot,
uni00AD,
registered,
macron,
degree,
plusminus,
twosuperior,
threesuperior,
acute,
uni00B5,
paragraph,
periodcentered,
cedilla,
onesuperior,
ordmasculine,
guillemotright,
onequarter,
onehalf,
threequarters,
questiondown,
Agrave,
Aacute,
Acircumflex,
Atilde,
Adieresis,
Aring,
AE,
Ccedilla,
Egrave,
Eacute,
Ecircumflex,
Edieresis,
Igrave,
Iacute,
Icircumflex,
Idieresis,
Eth,
Ntilde,
Ograve,
Oacute,
Ocircumflex,
Otilde,
Odieresis,
multiply,
Oslash,
Ugrave,
Uacute,
Ucircumflex,
Udieresis,
Yacute,
Thorn,
germandbls,
agrave,
aacute,
acircumflex,
atilde,
adieresis,
aring,
ae,
ccedilla,
egrave,
eacute,
ecircumflex,
edieresis,
igrave,
iacute,
icircumflex,
idieresis,
eth,
ntilde,
ograve,
oacute,
ocircumflex,
otilde,
odieresis,
divide,
oslash,
ugrave,
uacute,
ucircumflex,
udieresis,
yacute,

glyphs = (
{
glyphname = .notdef;
lastChange = "2016-07-31 02:06:19 +0000";
layers = (
{
layerId = "6C3B4F89-AC86-48DF-BE99-AFD9A4DA4FE2";
paths = (
{
closed = 1;
nodes = (
"156 589 OFFCURVE",
"169 606 OFFCURVE",
"210 606 CURVE SMOOTH",
"328 606 LINE SMOOTH",
"369 606 OFFCURVE",
"382 589 OFFCURVE",
"382 546 CURVE SMOOTH",
"382 130 LINE SMOOTH",
"382 87 OFFCURVE",
"369 71 OFFCURVE",
"328 71 CURVE SMOOTH",
"210 71 LINE SMOOTH",
"169 71 OFFCURVE",
"156 87 OFFCURVE",
"156 130 CURVE SMOOTH",
"156 546 LINE SMOOTH"
);
},
{
closed = 1;
nodes = (
"453 678 LINE",
"85 678 LINE",
"85 0 LINE",
"453 0 LINE"
);
}
);
width = 538;
}
);
note = .notdef;
},
{
glyphname = exclam;
lastChange = "2016-07-31 02:06:19 +0000";
layers = (
{
layerId = "6C3B4F89-AC86-48DF-BE99-AFD9A4DA4FE2";
paths = (
{
closed = 1;
nodes = (
"139 61 OFFCURVE",
"129 65 OFFCURVE",
"118 65 CURVE SMOOTH",
"97 65 OFFCURVE",
"71 48 OFFCURVE",
"71 29 CURVE SMOOTH",
"71 10 OFFCURVE",
"97 -7 OFFCURVE",
"118 -7 CURVE SMOOTH",
"139 -7 OFFCURVE",
"164 10 OFFCURVE",
"164 29 CURVE SMOOTH",
"164 38 OFFCURVE",
"159 47 OFFCURVE",
"149 54 CURVE SMOOTH"
);
},
{
closed = 1;
nodes = (
"96 178 OFFCURVE",
"103 169 OFFCURVE",
"117 169 CURVE SMOOTH",
"131 169 OFFCURVE",
"138 178 OFFCURVE",
"138 197 CURVE SMOOTH",
"138 616 LINE SMOOTH",
"138 635 OFFCURVE",
"131 644 OFFCURVE",
"117 644 CURVE SMOOTH",
"103 644 OFFCURVE",
"96 635 OFFCURVE",
"96 616 CURVE SMOOTH",
"96 197 LINE SMOOTH"
);
}
);
width = 234;
}
);
note = exclam;
unicode = 0021;
},
{
glyphname = quotedbl;
lastChange = "2016-07-31 02:06:19 +0000";
layers = (
{
layerId = "6C3B4F89-AC86-48DF-BE99-AFD9A4DA4FE2";
paths = (
{
closed = 1;
nodes = (
"214 634 OFFCURVE",
"207 643 OFFCURVE",
"193 643 CURVE SMOOTH",
"179 643 OFFCURVE",
"172 634 OFFCURVE",
"172 615 CURVE SMOOTH",
"172 466 LINE SMOOTH",
"172 447 OFFCURVE",
"179 438 OFFCURVE",
"193 438 CURVE SMOOTH",
"207 438 OFFCURVE",
"214 447 OFFCURVE",
"214 466 CURVE SMOOTH",
"214 615 LINE SMOOTH"
);
},
{
closed = 1;
nodes = (
"112 634 OFFCURVE",
"105 643 OFFCURVE",
"92 643 CURVE SMOOTH",
"79 643 OFFCURVE",
"72 634 OFFCURVE",
"71 615 CURVE",
"71 466 LINE",
"72 447 OFFCURVE",
"79 438 OFFCURVE",
"92 438 CURVE SMOOTH",
"105 438 OFFCURVE",
"112 447 OFFCURVE",
"112 466 CURVE SMOOTH",
"112 615 LINE SMOOTH"
);
}
);
width = 285;
}
);
leftKerningGroup = quotedbl;
note = quotedbl;
rightKerningGroup = quotedbl;
unicode = 0022;
},
{
glyphname = numbersign;
lastChange = "2016-07-31 02:06:19 +0000";
layers = (
{
layerId = "6C3B4F89-AC86-48DF-BE99-AFD9A4DA4FE2";
paths = (
{
closed = 1;
nodes = (
"304 625 OFFCURVE",
"297 618 OFFCURVE",
"292 604 CURVE SMOOTH",
"228 431 LINE",
"103 431 LINE SMOOTH",
"85 431 OFFCURVE",
"76 424 OFFCURVE",
"76 410 CURVE SMOOTH",
"76 396 OFFCURVE",
"85 389 OFFCURVE",
"103 389 CURVE SMOOTH",
"213 389 LINE",
"162 247 LINE",
"73 247 LINE SMOOTH",
"54 247 OFFCURVE",
"45 240 OFFCURVE",
"45 226 CURVE SMOOTH",
"45 212 OFFCURVE",
"54 205 OFFCURVE",
"73 205 CURVE SMOOTH",
"146 205 LINE",
"88 46 LINE SMOOTH",
"86 40 OFFCURVE",
"85 35 OFFCURVE",
"85 31 CURVE SMOOTH",
"85 18 OFFCURVE",
"92 11 OFFCURVE",
"105 11 CURVE SMOOTH",
"115 11 OFFCURVE",
"122 18 OFFCURVE",
"127 32 CURVE SMOOTH",
"190 205 LINE",
"325 205 LINE",
"266 46 LINE SMOOTH",
"264 41 OFFCURVE",
"263 36 OFFCURVE",
"263 32 CURVE SMOOTH",
"263 18 OFFCURVE",
"270 11 OFFCURVE",
"284 11 CURVE SMOOTH",
"294 11 OFFCURVE",
"301 18 OFFCURVE",
"306 32 CURVE SMOOTH",
"370 205 LINE",
"491 205 LINE SMOOTH",
"510 205 OFFCURVE",
"519 212 OFFCURVE",
"519 226 CURVE SMOOTH",
"519 240 OFFCURVE",
"510 247 OFFCURVE",
"491 247 CURVE SMOOTH",
"385 247 LINE",
"436 389 LINE",
"522 389 LINE SMOOTH",
"541 389 OFFCURVE",
"550 396 OFFCURVE",
"550 410 CURVE SMOOTH",
"550 424 OFFCURVE",
"541 431 OFFCURVE",
"522 431 CURVE SMOOTH",
"452 431 LINE",
"510 590 LINE SMOOTH",
"512 595 OFFCURVE",
"513 601 OFFCURVE",
"513 606 CURVE SMOOTH",
"513 617 OFFCURVE",
"504 625 OFFCURVE",
"495 625 CURVE SMOOTH",
"494 625 OFFCURVE",
"493 625 OFFCURVE",
"492 625 CURVE SMOOTH",
"483 625 OFFCURVE",
"475 618 OFFCURVE",
"470 604 CURVE SMOOTH",
"406 431 LINE",
"272 431 LINE",
"331 590 LINE SMOOTH",
"333 596 OFFCURVE",
"334 601 OFFCURVE",
"334 605 CURVE SMOOTH",
"334 618 OFFCURVE",
"327 625 OFFCURVE",
"313 625 CURVE SMOOTH"
);
},
{
closed = 1;
nodes = (
"340 247 LINE",
"206 247 LINE",
"257 389 LINE",
"391 389 LINE"
);
}
);
width = 595;
}
);
note = numbersign;
rightKerningGroup = numbersign;
unicode = 0023;
},
{
glyphname = dollar;
lastChange = "2016-07-31 02:06:19 +0000";
layers = (
{
layerId = "6C3B4F89-AC86-48DF-BE99-AFD9A4DA4FE2";
paths = (
{
closed = 1;
nodes = (
"267 20 LINE SMOOTH",
"267 2 OFFCURVE",
"274 -7 OFFCURVE",
"288 -7 CURVE SMOOTH",
"302 -7 OFFCURVE",
"309 2 OFFCURVE",
"309 20 CURVE SMOOTH",
"309 91 LINE",
"384 91 LINE SMOOTH",
"466 91 OFFCURVE",
"507 132 OFFCURVE",
"507 214 CURVE SMOOTH",
"507 303 OFFCURVE",
"466 348 OFFCURVE",
"384 348 CURVE SMOOTH",
"309 348 LINE",
"309 510 LINE",
"403 510 LINE SMOOTH",
"448 510 OFFCURVE",
"463 490 OFFCURVE",
"463 447 CURVE SMOOTH",
"463 426 OFFCURVE",
"470 415 OFFCURVE",
"484 415 CURVE SMOOTH",
"498 415 OFFCURVE",
"505 427 OFFCURVE",
"505 450 CURVE SMOOTH",
"505 499 OFFCURVE",
"493 552 OFFCURVE",
"410 552 CURVE SMOOTH",
"309 552 LINE",
"309 615 LINE SMOOTH",
"309 634 OFFCURVE",
"302 643 OFFCURVE",
"288 643 CURVE SMOOTH",
"274 643 OFFCURVE",
"267 634 OFFCURVE",
"267 615 CURVE SMOOTH",
"267 552 LINE",
"185 552 LINE SMOOTH",
"96 552 OFFCURVE",
"61 511 OFFCURVE",
"61 434 CURVE SMOOTH",
"61 349 OFFCURVE",
"102 306 OFFCURVE",
"185 306 CURVE SMOOTH",
"267 306 LINE",
"267 133 LINE",
"163 133 LINE SMOOTH",
"118 133 OFFCURVE",
"103 153 OFFCURVE",
"103 196 CURVE SMOOTH",
"103 217 OFFCURVE",
"96 228 OFFCURVE",
"82 228 CURVE SMOOTH",
"68 228 OFFCURVE",
"61 216 OFFCURVE",
"61 193 CURVE SMOOTH",
"61 144 OFFCURVE",
"73 91 OFFCURVE",
"156 91 CURVE SMOOTH",
"267 91 LINE"
);
},
{
closed = 1;
nodes = (
"438 306 OFFCURVE",
"465 270 OFFCURVE",
"465 214 CURVE SMOOTH",
"465 160 OFFCURVE",
"444 133 OFFCURVE",
"401 133 CURVE SMOOTH",
"309 133 LINE",
"309 306 LINE",
"401 306 LINE SMOOTH"
);
},
{
closed = 1;
nodes = (
"130 348 OFFCURVE",
"103 379 OFFCURVE",
"103 434 CURVE SMOOTH",
"103 485 OFFCURVE",
"124 510 OFFCURVE",
"167 510 CURVE SMOOTH",
"267 510 LINE",
"267 348 LINE",
"167 348 LINE SMOOTH"
);
}
);
width = 567;
}
);
note = dollar;
rightKerningGroup = numbersign;
unicode = 0024;
},
{
glyphname = percent;
lastChange = "2016-07-31 02:06:19 +0000";
layers = (
{
layerId = "6C3B4F89-AC86-48DF-BE99-AFD9A4DA4FE2";
paths = (
{
closed = 1;
nodes = (
"402 218 OFFCURVE",
"417 203 OFFCURVE",
"417 184 CURVE SMOOTH",
"417 164 OFFCURVE",
"402 148 OFFCURVE",
"383 148 CURVE SMOOTH",
"363 148 OFFCURVE",
"347 164 OFFCURVE",
"347 184 CURVE SMOOTH",
"347 203 OFFCURVE",
"363 218 OFFCURVE",
"383 218 CURVE SMOOTH"
);
},
{
closed = 1;
nodes = (
"343 114 OFFCURVE",
"361 106 OFFCURVE",
"382 106 CURVE SMOOTH",
"425 106 OFFCURVE",
"459 142 OFFCURVE",
"459 183 CURVE SMOOTH",
"459 224 OFFCURVE",
"425 260 OFFCURVE",
"382 260 CURVE SMOOTH",
"339 260 OFFCURVE",
"305 224 OFFCURVE",
"305 183 CURVE SMOOTH",
"305 162 OFFCURVE",
"313 144 OFFCURVE",
"328 129 CURVE SMOOTH"
);
},
{
closed = 1;
nodes = (
"142 503 OFFCURVE",
"150 506 OFFCURVE",
"159 506 CURVE SMOOTH",
"178 506 OFFCURVE",
"194 490 OFFCURVE",
"194 471 CURVE SMOOTH",
"194 452 OFFCURVE",
"178 436 OFFCURVE",
"159 436 CURVE SMOOTH",
"140 436 OFFCURVE",
"124 452 OFFCURVE",
"124 471 CURVE SMOOTH",
"124 480 OFFCURVE",
"128 489 OFFCURVE",
"135 496 CURVE SMOOTH"
);
},
{
closed = 1;
nodes = (
"119 402 OFFCURVE",
"138 394 OFFCURVE",
"159 394 CURVE SMOOTH",
"201 394 OFFCURVE",
"235 428 OFFCURVE",
"235 471 CURVE SMOOTH",
"235 514 OFFCURVE",
"201 548 OFFCURVE",
"159 548 CURVE SMOOTH",
"117 548 OFFCURVE",
"81 514 OFFCURVE",
"81 471 CURVE SMOOTH",
"81 450 OFFCURVE",
"89 432 OFFCURVE",
"104 417 CURVE SMOOTH"
);
},
{
closed = 1;
nodes = (
"73 160 OFFCURVE",
"69 153 OFFCURVE",
"69 147 CURVE SMOOTH",
"69 135 OFFCURVE",
"79 126 OFFCURVE",
"91 126 CURVE SMOOTH",
"96 126 OFFCURVE",
"103 130 OFFCURVE",
"110 137 CURVE SMOOTH",
"460 487 LINE",
"467 496 OFFCURVE",
"471 503 OFFCURVE",
"471 508 CURVE SMOOTH",
"471 519 OFFCURVE",
"461 528 OFFCURVE",
"451 528 CURVE SMOOTH",
"446 528 OFFCURVE",
"439 524 OFFCURVE",
"430 517 CURVE",
"80 167 LINE SMOOTH"
);
}
);
width = 540;
}
);
note = percent;
rightKerningGroup = numbersign;
unicode = 0025;
},
{
glyphname = ampersand;
lastChange = "2016-07-31 02:06:19 +0000";
layers = (
{
layerId = "6C3B4F89-AC86-48DF-BE99-AFD9A4DA4FE2";
paths = (
{
closed = 1;
nodes = (
"287 638 OFFCURVE",
"263 647 OFFCURVE",
"237 647 CURVE SMOOTH",
"152 647 OFFCURVE",
"62 575 OFFCURVE",
"62 476 CURVE SMOOTH",
"62 443 OFFCURVE",
"78 409 OFFCURVE",
"109 373 CURVE SMOOTH",
"123 356 LINE",
"66 317 OFFCURVE",
"37 248 OFFCURVE",
"37 181 CURVE SMOOTH",
"37 114 OFFCURVE",
"65 60 OFFCURVE",
"108 32 CURVE SMOOTH",
"149 5 OFFCURVE",
"195 -9 OFFCURVE",
"245 -9 CURVE SMOOTH",
"295 -9 OFFCURVE",
"342 11 OFFCURVE",
"386 52 CURVE",
"425 7 LINE",
"434 -2 OFFCURVE",
"442 -7 OFFCURVE",
"451 -7 CURVE SMOOTH",
"462 -7 OFFCURVE",
"468 -1 OFFCURVE",
"468 11 CURVE SMOOTH",
"468 18 OFFCURVE",
"466 24 OFFCURVE",
"462 29 CURVE",
"414 84 LINE",
"445 126 OFFCURVE",
"460 174 OFFCURVE",
"460 227 CURVE SMOOTH",
"460 248 OFFCURVE",
"454 258 OFFCURVE",
"441 258 CURVE SMOOTH",
"426 258 OFFCURVE",
"419 248 OFFCURVE",
"419 227 CURVE SMOOTH",
"419 185 OFFCURVE",
"408 148 OFFCURVE",
"385 117 CURVE",
"145 394 LINE SMOOTH",
"119 424 OFFCURVE",
"106 451 OFFCURVE",
"106 476 CURVE SMOOTH",
"106 553 OFFCURVE",
"170 605 OFFCURVE",
"235 605 CURVE SMOOTH",
"270 605 OFFCURVE",
"299 581 OFFCURVE",
"312 557 CURVE",
"324 532 OFFCURVE",
"340 508 OFFCURVE",
"353 508 CURVE SMOOTH",
"365 508 OFFCURVE",
"374 517 OFFCURVE",
"374 529 CURVE SMOOTH",
"374 534 OFFCURVE",
"369 546 OFFCURVE",
"359 564 CURVE SMOOTH",
"349 581 OFFCURVE",
"333 600 OFFCURVE",
"310 619 CURVE SMOOTH"
);
},
{
closed = 1;
nodes = (
"323 50 OFFCURVE",
"284 33 OFFCURVE",
"242 33 CURVE SMOOTH",
"158 33 OFFCURVE",
"79 79 OFFCURVE",
"79 182 CURVE SMOOTH",
"79 238 OFFCURVE",
"102 297 OFFCURVE",
"151 325 CURVE",
"359 84 LINE"
);
}
);
width = 494;
}
);
leftKerningGroup = ampersand;
note = ampersand;
rightKerningGroup = ampersand;
unicode = 0026;
},
{
glyphname = quotesingle;
lastChange = "2016-07-31 02:06:19 +0000";
layers = (
{
layerId = "6C3B4F89-AC86-48DF-BE99-AFD9A4DA4FE2";
paths = (
{
closed = 1;
nodes = (
"112 634 OFFCURVE",
"105 643 OFFCURVE",
"92 643 CURVE SMOOTH",
"79 643 OFFCURVE",
"72 634 OFFCURVE",
"71 615 CURVE",
"71 466 LINE",
"72 447 OFFCURVE",
"79 438 OFFCURVE",
"92 438 CURVE SMOOTH",
"105 438 OFFCURVE",
"112 447 OFFCURVE",
"112 466 CURVE SMOOTH",
"112 615 LINE SMOOTH"
);
}
);
width = 183;
}
);
leftKerningGroup = quotedbl;
note = quotesingle;
rightKerningGroup = quotedbl;
unicode = 0027;
},
{
glyphname = parenleft;
lastChange = "2016-07-31 02:06:19 +0000";
layers = (
{
layerId = "6C3B4F89-AC86-48DF-BE99-AFD9A4DA4FE2";
paths = (
{
closed = 1;
nodes = (
"163 678 OFFCURVE",
"140 674 OFFCURVE",
"124 666 CURVE SMOOTH",
"90 649 OFFCURVE",
"73 595 OFFCURVE",
"73 503 CURVE SMOOTH",
"73 133 LINE SMOOTH",
"73 42 OFFCURVE",
"90 -13 OFFCURVE",
"124 -30 CURVE SMOOTH",
"140 -38 OFFCURVE",
"163 -42 OFFCURVE",
"193 -42 CURVE",
"193 0 LINE",
"121 0 OFFCURVE",
"115 10 OFFCURVE",
"115 133 CURVE SMOOTH",
"115 503 LINE SMOOTH",
"115 626 OFFCURVE",
"121 636 OFFCURVE",
"193 636 CURVE",
"193 678 LINE"
);
}
);
width = 237;
}
);
note = parenleft;
rightKerningGroup = parenleft;
unicode = 0028;
},
{
glyphname = parenright;
lastChange = "2016-07-31 02:06:19 +0000";
layers = (
{
layerId = "6C3B4F89-AC86-48DF-BE99-AFD9A4DA4FE2";
paths = (
{
closed = 1;
nodes = (
"133 -42 OFFCURVE",
"163 -11 OFFCURVE",
"163 133 CURVE SMOOTH",
"163 503 LINE SMOOTH",
"163 647 OFFCURVE",
"133 678 OFFCURVE",
"44 678 CURVE",
"44 636 LINE",
"115 636 OFFCURVE",
"121 626 OFFCURVE",
"121 503 CURVE SMOOTH",
"121 133 LINE SMOOTH",
"121 10 OFFCURVE",
"115 0 OFFCURVE",
"44 0 CURVE",
"44 -42 LINE"
);
}
);
width = 236;
}
);
leftKerningGroup = parenright;
note = parenright;
rightKerningGroup = numbersign;
unicode = 0029;
},
{
glyphname = asterisk;
lastChange = "2016-07-31 02:06:19 +0000";
layers = (
{
layerId = "6C3B4F89-AC86-48DF-BE99-AFD9A4DA4FE2";
paths = (
{
closed = 1;
nodes = (
"305 531 LINE",
"316 538 OFFCURVE",
"322 545 OFFCURVE",
"322 551 CURVE SMOOTH",
"322 563 OFFCURVE",
"312 573 OFFCURVE",
"303 573 CURVE SMOOTH",
"298 573 OFFCURVE",
"292 571 OFFCURVE",
"284 568 CURVE",
"214 527 LINE",
"214 608 LINE SMOOTH",
"214 627 OFFCURVE",
"207 636 OFFCURVE",
"193 636 CURVE SMOOTH",
"179 636 OFFCURVE",
"172 627 OFFCURVE",
"172 608 CURVE SMOOTH",
"172 527 LINE",
"102 568 LINE",
"94 571 OFFCURVE",
"88 573 OFFCURVE",
"84 573 CURVE SMOOTH",
"83 573 OFFCURVE",
"83 573 OFFCURVE",
"83 573 CURVE SMOOTH",
"71 573 OFFCURVE",
"65 565 OFFCURVE",
"65 550 CURVE SMOOTH",
"65 545 OFFCURVE",
"70 538 OFFCURVE",
"81 531 CURVE",
"151 492 LINE",
"81 451 LINE",
"70 444 OFFCURVE",
"65 438 OFFCURVE",
"65 432 CURVE SMOOTH",
"65 419 OFFCURVE",
"74 409 OFFCURVE",
"83 409 CURVE SMOOTH",
"88 409 OFFCURVE",
"94 411 OFFCURVE",
"102 414 CURVE",
"172 455 LINE",
"172 374 LINE SMOOTH",
"172 355 OFFCURVE",
"179 346 OFFCURVE",
"193 346 CURVE SMOOTH",
"207 346 OFFCURVE",
"214 355 OFFCURVE",
"214 374 CURVE SMOOTH",
"214 455 LINE",
"284 414 LINE",
"292 411 OFFCURVE",
"299 409 OFFCURVE",
"304 409 CURVE SMOOTH",
"315 409 OFFCURVE",
"322 421 OFFCURVE",
"322 432 CURVE SMOOTH",
"322 437 OFFCURVE",
"316 444 OFFCURVE",
"305 451 CURVE SMOOTH",
"236 492 LINE"
);
}
);
width = 387;
}
);
leftKerningGroup = asterisk;
note = asterisk;
rightKerningGroup = asterisk;
unicode = 002A;
},
{
glyphname = plus;
lastChange = "2016-07-31 02:06:19 +0000";
layers = (
{
layerId = "6C3B4F89-AC86-48DF-BE99-AFD9A4DA4FE2";
paths = (
{
closed = 1;
nodes = (
"443 209 LINE SMOOTH",
"462 209 OFFCURVE",
"472 216 OFFCURVE",
"472 229 CURVE SMOOTH",
"472 244 OFFCURVE",
"462 252 OFFCURVE",
"443 252 CURVE SMOOTH",
"276 252 LINE",
"276 440 LINE SMOOTH",
"276 459 OFFCURVE",
"269 468 OFFCURVE",
"255 468 CURVE SMOOTH",
"241 468 OFFCURVE",
"234 459 OFFCURVE",
"234 440 CURVE SMOOTH",
"234 252 LINE",
"65 252 LINE SMOOTH",
"48 252 OFFCURVE",
"39 245 OFFCURVE",
"39 230 CURVE SMOOTH",
"39 216 OFFCURVE",
"47 209 OFFCURVE",
"63 209 CURVE SMOOTH",
"64 209 OFFCURVE",
"64 209 OFFCURVE",
"65 209 CURVE SMOOTH",
"234 209 LINE",
"234 20 LINE SMOOTH",
"234 2 OFFCURVE",
"241 -7 OFFCURVE",
"255 -7 CURVE SMOOTH",
"269 -7 OFFCURVE",
"276 2 OFFCURVE",
"276 20 CURVE SMOOTH",
"276 209 LINE"
);
}
);
width = 510;
}
);
note = plus;
rightKerningGroup = numbersign;
unicode = 002B;
},
{
glyphname = comma;
lastChange = "2016-07-31 02:06:19 +0000";
layers = (
{
layerId = "6C3B4F89-AC86-48DF-BE99-AFD9A4DA4FE2";
paths = (
{
closed = 1;
nodes = (
"88 61 OFFCURVE",
"81 54 OFFCURVE",
"77 41 CURVE SMOOTH",
"53 -45 LINE",
"51 -51 OFFCURVE",
"50 -56 OFFCURVE",
"50 -60 CURVE SMOOTH",
"50 -73 OFFCURVE",
"56 -80 OFFCURVE",
"67 -80 CURVE SMOOTH",
"74 -80 OFFCURVE",
"81 -73 OFFCURVE",
"87 -59 CURVE",
"129 24 LINE",
"132 29 OFFCURVE",
"133 35 OFFCURVE",
"133 42 CURVE SMOOTH",
"133 55 OFFCURVE",
"110 60 OFFCURVE",
"97 61 CURVE"
);
}
);
width = 203;
}
);
leftKerningGroup = comma;
note = comma;
rightKerningGroup = comma;
unicode = 002C;
},
{
glyphname = hyphen;
lastChange = "2016-07-31 02:06:19 +0000";
layers = (
{
layerId = "6C3B4F89-AC86-48DF-BE99-AFD9A4DA4FE2";
paths = (
{
closed = 1;
nodes = (
"363 209 OFFCURVE",
"373 216 OFFCURVE",
"373 229 CURVE SMOOTH",
"373 244 OFFCURVE",
"363 252 OFFCURVE",
"344 252 CURVE SMOOTH",
"99 252 LINE SMOOTH",
"82 252 OFFCURVE",
"73 245 OFFCURVE",
"73 230 CURVE SMOOTH",
"73 216 OFFCURVE",
"81 209 OFFCURVE",
"97 209 CURVE SMOOTH",
"98 209 OFFCURVE",
"98 209 OFFCURVE",
"99 209 CURVE SMOOTH",
"344 209 LINE SMOOTH"
);
}
);
width = 446;
}
);
leftKerningGroup = hyphen;
note = hyphen;
rightKerningGroup = hyphen;
unicode = 002D;
},
{
glyphname = period;
lastChange = "2016-07-31 02:06:19 +0000";
layers = (
{
layerId = "6C3B4F89-AC86-48DF-BE99-AFD9A4DA4FE2";
paths = (
{
closed = 1;
nodes = (
"91 -3 OFFCURVE",
"101 -7 OFFCURVE",
"112 -7 CURVE SMOOTH",
"133 -7 OFFCURVE",
"158 10 OFFCURVE",
"158 29 CURVE SMOOTH",
"158 48 OFFCURVE",
"133 65 OFFCURVE",
"112 65 CURVE SMOOTH",
"91 65 OFFCURVE",
"66 48 OFFCURVE",
"66 29 CURVE SMOOTH",
"66 20 OFFCURVE",
"71 11 OFFCURVE",
"81 4 CURVE SMOOTH"
);
}
);
width = 224;
}
);
leftKerningGroup = comma;
note = period;
rightKerningGroup = comma;
unicode = 002E;
},
{
glyphname = slash;
lastChange = "2016-07-31 02:06:19 +0000";
layers = (
{
layerId = "6C3B4F89-AC86-48DF-BE99-AFD9A4DA4FE2";
paths = (
{
closed = 1;
nodes = (
"275 645 OFFCURVE",
"268 638 OFFCURVE",
"264 625 CURVE",
"46 27 LINE",
"44 20 OFFCURVE",
"43 14 OFFCURVE",
"43 11 CURVE SMOOTH",
"43 -2 OFFCURVE",
"50 -8 OFFCURVE",
"64 -8 CURVE SMOOTH",
"74 -8 OFFCURVE",
"81 -1 OFFCURVE",
"85 12 CURVE",
"303 610 LINE SMOOTH",
"305 616 OFFCURVE",
"306 621 OFFCURVE",
"306 626 CURVE SMOOTH",
"306 639 OFFCURVE",
"299 645 OFFCURVE",
"284 645 CURVE SMOOTH"
);
}
);
width = 349;
}
);
leftKerningGroup = slash;
note = slash;
rightKerningGroup = slash;
unicode = 002F;
},
{
glyphname = zero;
lastChange = "2016-07-31 02:06:19 +0000";
layers = (
{
layerId = "6C3B4F89-AC86-48DF-BE99-AFD9A4DA4FE2";
paths = (
{
closed = 1;
nodes = (
"116 546 OFFCURVE",
"169 593 OFFCURVE",
"236 593 CURVE SMOOTH",
"356 593 LINE SMOOTH",
"423 593 OFFCURVE",
"476 546 OFFCURVE",
"476 497 CURVE SMOOTH",
"476 138 LINE SMOOTH",
"476 89 OFFCURVE",
"423 42 OFFCURVE",
"356 42 CURVE SMOOTH",
"236 42 LINE SMOOTH",
"169 42 OFFCURVE",
"116 89 OFFCURVE",
"116 138 CURVE SMOOTH",
"116 497 LINE SMOOTH"
);
},
{
closed = 1;
nodes = (
"518 573 OFFCURVE",
"444 636 OFFCURVE",
"348 636 CURVE SMOOTH",
"244 636 LINE SMOOTH",
"148 636 OFFCURVE",
"74 573 OFFCURVE",
"74 482 CURVE SMOOTH",
"74 154 LINE SMOOTH",
"74 63 OFFCURVE",
"148 0 OFFCURVE",
"244 0 CURVE SMOOTH",
"348 0 LINE SMOOTH",
"444 0 OFFCURVE",
"518 63 OFFCURVE",
"518 154 CURVE SMOOTH",
"518 482 LINE SMOOTH"
);
}
);
width = 592;
}
);
leftKerningGroup = zero;
note = zero;
rightKerningGroup = zero;
unicode = 0030;
},
{
glyphname = one;
lastChange = "2016-07-31 02:06:19 +0000";
layers = (
{
layerId = "6C3B4F89-AC86-48DF-BE99-AFD9A4DA4FE2";
paths = (
{
closed = 1;
nodes = (
"284 2 OFFCURVE",
"291 -7 OFFCURVE",
"305 -7 CURVE SMOOTH",
"319 -7 OFFCURVE",
"326 2 OFFCURVE",
"326 20 CURVE SMOOTH",
"326 662 LINE SMOOTH",
"326 674 OFFCURVE",
"321 681 OFFCURVE",
"312 684 CURVE SMOOTH",
"309 685 OFFCURVE",
"307 686 OFFCURVE",
"304 686 CURVE SMOOTH",
"297 686 OFFCURVE",
"289 682 OFFCURVE",
"280 673 CURVE SMOOTH",
"218 610 LINE",
"210 603 OFFCURVE",
"206 595 OFFCURVE",
"206 588 CURVE SMOOTH",
"206 576 OFFCURVE",
"212 570 OFFCURVE",
"225 570 CURVE SMOOTH",
"234 570 OFFCURVE",
"242 574 OFFCURVE",
"250 583 CURVE",
"284 616 LINE",
"284 20 LINE SMOOTH"
);
}
);
width = 592;
}
);
leftKerningGroup = one;
note = one;
rightKerningGroup = numbersign;
unicode = 0031;
},
{
glyphname = two;
lastChange = "2016-07-31 02:06:19 +0000";
layers = (
{
layerId = "6C3B4F89-AC86-48DF-BE99-AFD9A4DA4FE2";
paths = (
{
closed = 1;
nodes = (
"421 629 OFFCURVE",
"379 636 OFFCURVE",
"311 636 CURVE SMOOTH",
"169 636 LINE SMOOTH",
"101 636 OFFCURVE",
"74 606 OFFCURVE",
"74 529 CURVE SMOOTH",
"74 509 OFFCURVE",
"81 499 OFFCURVE",
"95 499 CURVE SMOOTH",
"109 499 OFFCURVE",
"116 510 OFFCURVE",
"116 532 CURVE SMOOTH",
"116 575 OFFCURVE",
"131 594 OFFCURVE",
"176 594 CURVE SMOOTH",
"311 594 LINE SMOOTH",
"435 594 OFFCURVE",
"476 575 OFFCURVE",
"476 460 CURVE SMOOTH",
"476 380 OFFCURVE",
"374 337 OFFCURVE",
"318 309 CURVE SMOOTH",
"250 276 OFFCURVE",
"195 243 OFFCURVE",
"154 210 CURVE SMOOTH",
"106 173 OFFCURVE",
"75 112 OFFCURVE",
"75 44 CURVE SMOOTH",
"75 0 LINE",
"488 0 LINE SMOOTH",
"508 0 OFFCURVE",
"518 7 OFFCURVE",
"518 21 CURVE SMOOTH",
"518 35 OFFCURVE",
"508 42 OFFCURVE",
"488 42 CURVE SMOOTH",
"117 42 LINE",
"117 83 OFFCURVE",
"131 121 OFFCURVE",
"159 154 CURVE SMOOTH",
"214 221 OFFCURVE",
"299 259 OFFCURVE",
"377 300 CURVE SMOOTH",
"455 341 OFFCURVE",
"518 394 OFFCURVE",
"518 463 CURVE SMOOTH",
"518 532 OFFCURVE",
"500 581 OFFCURVE",
"461 605 CURVE SMOOTH"
);
}
);
width = 592;
}
);
note = two;
rightKerningGroup = numbersign;
unicode = 0032;
},
{
glyphname = three;
lastChange = "2016-07-31 02:06:19 +0000";
layers = (
{
layerId = "6C3B4F89-AC86-48DF-BE99-AFD9A4DA4FE2";
paths = (
{
closed = 1;
nodes = (
"443 594 OFFCURVE",
"477 549 OFFCURVE",
"477 470 CURVE SMOOTH",
"477 406 OFFCURVE",
"367 347 OFFCURVE",
"291 347 CURVE SMOOTH",
"288 347 LINE SMOOTH",
"269 347 OFFCURVE",
"259 340 OFFCURVE",
"259 326 CURVE SMOOTH",
"259 311 OFFCURVE",
"270 304 OFFCURVE",
"291 304 CURVE SMOOTH",
"364 304 OFFCURVE",
"477 237 OFFCURVE",
"477 166 CURVE SMOOTH",
"477 165 OFFCURVE",
"477 165 OFFCURVE",
"477 164 CURVE SMOOTH",
"477 92 OFFCURVE",
"443 42 OFFCURVE",
"336 42 CURVE SMOOTH",
"256 42 LINE SMOOTH",
"196 42 OFFCURVE",
"116 67 OFFCURVE",
"116 107 CURVE SMOOTH",
"116 127 OFFCURVE",
"109 137 OFFCURVE",
"95 137 CURVE SMOOTH",
"81 137 OFFCURVE",
"74 125 OFFCURVE",
"74 101 CURVE SMOOTH",
"74 53 OFFCURVE",
"141 0 OFFCURVE",
"249 0 CURVE SMOOTH",
"326 0 LINE SMOOTH",
"465 0 OFFCURVE",
"518 48 OFFCURVE",
"518 185 CURVE SMOOTH",
"518 234 OFFCURVE",
"431 318 OFFCURVE",
"388 326 CURVE",
"432 335 OFFCURVE",
"518 404 OFFCURVE",
"518 451 CURVE SMOOTH",
"518 588 OFFCURVE",
"465 636 OFFCURVE",
"326 636 CURVE SMOOTH",
"249 636 LINE SMOOTH",
"141 636 OFFCURVE",
"74 585 OFFCURVE",
"74 529 CURVE SMOOTH",
"74 509 OFFCURVE",
"81 499 OFFCURVE",
"95 499 CURVE SMOOTH",
"109 499 OFFCURVE",
"116 509 OFFCURVE",
"116 529 CURVE SMOOTH",
"116 569 OFFCURVE",
"196 594 OFFCURVE",
"256 594 CURVE SMOOTH",
"336 594 LINE SMOOTH"
);
}
);
width = 592;
}
);
note = three;
rightKerningGroup = three;
unicode = 0033;
},
{
glyphname = four;
lastChange = "2016-07-31 02:06:19 +0000";
layers = (
{
layerId = "6C3B4F89-AC86-48DF-BE99-AFD9A4DA4FE2";
paths = (
{
closed = 1;
nodes = (
"511 175 OFFCURVE",
"520 182 OFFCURVE",
"520 196 CURVE SMOOTH",
"520 210 OFFCURVE",
"511 217 OFFCURVE",
"493 217 CURVE SMOOTH",
"432 217 LINE",
"432 636 LINE",
"375 636 LINE",
"72 231 LINE",
"72 175 LINE",
"390 175 LINE",
"390 20 LINE SMOOTH",
"390 2 OFFCURVE",
"397 -7 OFFCURVE",
"411 -7 CURVE SMOOTH",
"425 -7 OFFCURVE",
"432 2 OFFCURVE",
"432 20 CURVE SMOOTH",
"432 175 LINE",
"493 175 LINE SMOOTH"
);
},
{
closed = 1;
nodes = (
"390 594 LINE",
"390 217 LINE",
"109 217 LINE"
);
}
);
width = 592;
}
);
leftKerningGroup = four;
note = four;
rightKerningGroup = four;
unicode = 0034;
},
{
glyphname = five;
lastChange = "2016-07-31 02:06:19 +0000";
layers = (
{
layerId = "6C3B4F89-AC86-48DF-BE99-AFD9A4DA4FE2";
paths = (
{
closed = 1;
nodes = (
"420 -9 OFFCURVE",
"513 83 OFFCURVE",
"513 219 CURVE SMOOTH",
"513 355 OFFCURVE",
"414 434 OFFCURVE",
"307 434 CURVE SMOOTH",
"132 434 LINE",
"138 529 LINE SMOOTH",
"142 576 OFFCURVE",
"160 594 OFFCURVE",
"197 594 CURVE SMOOTH",
"444 594 LINE SMOOTH",
"462 594 OFFCURVE",
"471 601 OFFCURVE",
"471 615 CURVE SMOOTH",
"471 629 OFFCURVE",
"462 636 OFFCURVE",
"444 636 CURVE SMOOTH",
"203 636 LINE SMOOTH",
"128 636 OFFCURVE",
"101 605 OFFCURVE",
"94 512 CURVE SMOOTH",
"85 392 LINE",
"316 392 LINE SMOOTH",
"349 392 OFFCURVE",
"382 380 OFFCURVE",
"414 357 CURVE SMOOTH",
"446 333 OFFCURVE",
"471 286 OFFCURVE",
"471 227 CURVE SMOOTH",
"471 106 OFFCURVE",
"404 33 OFFCURVE",
"291 33 CURVE SMOOTH",
"230 33 OFFCURVE",
"165 66 OFFCURVE",
"129 92 CURVE SMOOTH",
"110 105 OFFCURVE",
"99 111 OFFCURVE",
"96 111 CURVE SMOOTH",
"89 111 OFFCURVE",
"79 101 OFFCURVE",
"79 90 CURVE SMOOTH",
"79 50 OFFCURVE",
"208 -9 OFFCURVE",
"291 -9 CURVE SMOOTH"
);
}
);
width = 592;
}
);
note = five;
rightKerningGroup = five;
unicode = 0035;
},
{
glyphname = six;
lastChange = "2016-07-31 02:06:19 +0000";
layers = (
{
layerId = "6C3B4F89-AC86-48DF-BE99-AFD9A4DA4FE2";
paths = (
{
closed = 1;
nodes = (
"423 -9 OFFCURVE",
"518 82 OFFCURVE",
"518 207 CURVE SMOOTH",
"518 332 OFFCURVE",
"423 423 OFFCURVE",
"295 423 CURVE SMOOTH",
"230 423 OFFCURVE",
"177 402 OFFCURVE",
"134 359 CURVE",
"166 480 OFFCURVE",
"237 564 OFFCURVE",
"308 603 CURVE SMOOTH",
"320 610 OFFCURVE",
"326 617 OFFCURVE",
"326 626 CURVE SMOOTH",
"326 638 OFFCURVE",
"319 644 OFFCURVE",
"304 644 CURVE SMOOTH",
"297 644 OFFCURVE",
"286 639 OFFCURVE",
"270 630 CURVE SMOOTH",
"237 610 OFFCURVE",
"187 561 OFFCURVE",
"147 498 CURVE SMOOTH",
"107 434 OFFCURVE",
"74 327 OFFCURVE",
"74 205 CURVE SMOOTH",
"74 83 OFFCURVE",
"169 -9 OFFCURVE",
"296 -9 CURVE SMOOTH"
);
},
{
closed = 1;
nodes = (
"197 365 OFFCURVE",
"241 381 OFFCURVE",
"296 381 CURVE SMOOTH",
"407 381 OFFCURVE",
"476 311 OFFCURVE",
"476 207 CURVE SMOOTH",
"476 103 OFFCURVE",
"407 33 OFFCURVE",
"296 33 CURVE SMOOTH",
"185 33 OFFCURVE",
"116 103 OFFCURVE",
"116 207 CURVE SMOOTH",
"116 259 OFFCURVE",
"132 301 OFFCURVE",
"165 333 CURVE SMOOTH"
);
}
);
width = 592;
}
);
leftKerningGroup = six;
note = six;
rightKerningGroup = six;
unicode = 0036;
},
{
glyphname = seven;
lastChange = "2016-07-31 02:06:19 +0000";
layers = (
{
layerId = "6C3B4F89-AC86-48DF-BE99-AFD9A4DA4FE2";
paths = (
{
closed = 1;
nodes = (
"280 -10 OFFCURVE",
"287 -2 OFFCURVE",
"292 13 CURVE SMOOTH",
"505 599 LINE",
"508 606 OFFCURVE",
"509 613 OFFCURVE",
"509 618 CURVE SMOOTH",
"509 630 OFFCURVE",
"502 636 OFFCURVE",
"488 636 CURVE SMOOTH",
"178 636 LINE SMOOTH",
"110 636 OFFCURVE",
"83 606 OFFCURVE",
"83 529 CURVE SMOOTH",
"83 509 OFFCURVE",
"90 499 OFFCURVE",
"103 499 CURVE",
"104 500 OFFCURVE",
"104 500 OFFCURVE",
"104 500 CURVE",
"118 500 OFFCURVE",
"125 511 OFFCURVE",
"125 532 CURVE SMOOTH",
"125 575 OFFCURVE",
"141 594 OFFCURVE",
"186 594 CURVE SMOOTH",
"459 594 LINE",
"253 28 LINE",
"250 21 OFFCURVE",
"249 14 OFFCURVE",
"249 9 CURVE SMOOTH",
"249 -4 OFFCURVE",
"256 -10 OFFCURVE",
"271 -10 CURVE SMOOTH"
);
}
);
width = 592;
}
);
leftKerningGroup = seven;
note = seven;
rightKerningGroup = seven;
unicode = 0037;
},
{
glyphname = eight;
lastChange = "2016-07-31 02:06:19 +0000";
layers = (
{
layerId = "6C3B4F89-AC86-48DF-BE99-AFD9A4DA4FE2";
paths = (
{
closed = 1;
nodes = (
"125 96 OFFCURVE",
"116 132 OFFCURVE",
"116 184 CURVE SMOOTH",
"116 235 OFFCURVE",
"130 269 OFFCURVE",
"158 286 CURVE SMOOTH",
"189 305 OFFCURVE",
"218 307 OFFCURVE",
"282 307 CURVE SMOOTH",
"311 307 LINE SMOOTH",
"374 307 OFFCURVE",
"403 305 OFFCURVE",
"434 287 CURVE SMOOTH",
"465 269 OFFCURVE",
"476 234 OFFCURVE",
"476 174 CURVE SMOOTH",
"476 114 OFFCURVE",
"466 79 OFFCURVE",
"435 62 CURVE SMOOTH",
"403 45 OFFCURVE",
"374 42 OFFCURVE",
"311 42 CURVE SMOOTH",
"282 42 LINE SMOOTH",
"234 42 OFFCURVE",
"201 45 OFFCURVE",
"182 52 CURVE SMOOTH",
"163 59 OFFCURVE",
"150 66 OFFCURVE",
"142 75 CURVE"
);
},
{
closed = 1;
nodes = (
"499 53 OFFCURVE",
"518 103 OFFCURVE",
"518 178 CURVE SMOOTH",
"518 253 OFFCURVE",
"495 302 OFFCURVE",
"449 326 CURVE",
"495 347 OFFCURVE",
"518 395 OFFCURVE",
"518 472 CURVE SMOOTH",
"518 583 OFFCURVE",
"491 636 OFFCURVE",
"311 636 CURVE SMOOTH",
"282 636 LINE SMOOTH",
"253 636 OFFCURVE",
"230 635 OFFCURVE",
"212 634 CURVE SMOOTH",
"113 626 OFFCURVE",
"74 581 OFFCURVE",
"74 472 CURVE SMOOTH",
"74 396 OFFCURVE",
"97 347 OFFCURVE",
"144 326 CURVE",
"97 301 OFFCURVE",
"74 252 OFFCURVE",
"74 179 CURVE SMOOTH",
"74 32 OFFCURVE",
"141 0 OFFCURVE",
"282 0 CURVE SMOOTH",
"311 0 LINE SMOOTH",
"379 0 OFFCURVE",
"420 6 OFFCURVE",
"460 30 CURVE SMOOTH"
);
},
{
closed = 1;
nodes = (
"468 395 OFFCURVE",
"457 380 OFFCURVE",
"440 367 CURVE SMOOTH",
"424 355 OFFCURVE",
"384 349 OFFCURVE",
"321 349 CURVE SMOOTH",
"318 349 OFFCURVE",
"314 349 OFFCURVE",
"311 349 CURVE SMOOTH",
"282 349 LINE SMOOTH",
"212 350 OFFCURVE",
"170 356 OFFCURVE",
"156 365 CURVE",
"149 370 OFFCURVE",
"142 377 OFFCURVE",
"135 386 CURVE SMOOTH",
"122 402 OFFCURVE",
"116 431 OFFCURVE",
"116 474 CURVE SMOOTH",
"116 558 OFFCURVE",
"122 594 OFFCURVE",
"282 594 CURVE SMOOTH",
"311 594 LINE SMOOTH",
"359 594 OFFCURVE",
"393 592 OFFCURVE",
"412 587 CURVE SMOOTH",
"431 582 OFFCURVE",
"444 576 OFFCURVE",
"451 568 CURVE",
"464 551 OFFCURVE",
"476 519 OFFCURVE",
"476 475 CURVE SMOOTH",
"476 453 OFFCURVE",
"474 433 OFFCURVE",
"471 414 CURVE SMOOTH"
);
}
);
width = 592;
}
);
leftKerningGroup = eight;
note = eight;
rightKerningGroup = eight;
unicode = 0038;
},
{
glyphname = nine;
lastChange = "2016-07-31 02:06:19 +0000";
layers = (
{
layerId = "6C3B4F89-AC86-48DF-BE99-AFD9A4DA4FE2";
paths = (
{
closed = 1;
nodes = (
"74 362 OFFCURVE",
"153 307 OFFCURVE",
"311 307 CURVE SMOOTH",
"380 307 OFFCURVE",
"432 320 OFFCURVE",
"465 345 CURVE",
"444 238 OFFCURVE",
"393 149 OFFCURVE",
"336 101 CURVE SMOOTH",
"279 52 OFFCURVE",
"220 27 OFFCURVE",
"180 27 CURVE SMOOTH",
"159 27 OFFCURVE",
"149 20 OFFCURVE",
"149 6 CURVE SMOOTH",
"149 -9 OFFCURVE",
"158 -16 OFFCURVE",
"175 -16 CURVE SMOOTH",
"258 -16 OFFCURVE",
"343 34 OFFCURVE",
"408 116 CURVE SMOOTH",
"473 198 OFFCURVE",
"518 327 OFFCURVE",
"518 470 CURVE SMOOTH",
"518 581 OFFCURVE",
"449 636 OFFCURVE",
"311 636 CURVE SMOOTH",
"262 636 OFFCURVE",
"214 628 OFFCURVE",
"167 611 CURVE SMOOTH",
"111 591 OFFCURVE",
"74 542 OFFCURVE",
"74 471 CURVE SMOOTH"
);
},
{
closed = 1;
nodes = (
"421 594 OFFCURVE",
"476 553 OFFCURVE",
"476 470 CURVE SMOOTH",
"476 389 OFFCURVE",
"421 349 OFFCURVE",
"311 349 CURVE SMOOTH",
"243 350 OFFCURVE",
"193 361 OFFCURVE",
"160 380 CURVE",
"136 396 OFFCURVE",
"116 428 OFFCURVE",
"116 471 CURVE SMOOTH",
"116 553 OFFCURVE",
"181 594 OFFCURVE",
"311 594 CURVE SMOOTH"
);
}
);
width = 592;
}
);
leftKerningGroup = nine;
note = nine;
rightKerningGroup = nine;
unicode = 0039;
},
{
glyphname = colon;
lastChange = "2016-07-31 02:06:19 +0000";
layers = (
{
layerId = "6C3B4F89-AC86-48DF-BE99-AFD9A4DA4FE2";
paths = (
{
closed = 1;
nodes = (
"73 414 OFFCURVE",
"97 397 OFFCURVE",
"118 397 CURVE SMOOTH",
"139 397 OFFCURVE",
"165 414 OFFCURVE",
"165 433 CURVE SMOOTH",
"165 452 OFFCURVE",
"139 469 OFFCURVE",
"118 469 CURVE SMOOTH",
"97 469 OFFCURVE",
"74 452 OFFCURVE",
"73 433 CURVE"
);
},
{
closed = 1;
nodes = (
"73 61 OFFCURVE",
"97 44 OFFCURVE",
"118 44 CURVE SMOOTH",
"139 44 OFFCURVE",
"165 61 OFFCURVE",
"165 80 CURVE SMOOTH",
"165 99 OFFCURVE",
"139 116 OFFCURVE",
"118 116 CURVE SMOOTH",
"97 116 OFFCURVE",
"74 99 OFFCURVE",
"73 80 CURVE"
);
}
);
width = 238;
}
);
leftKerningGroup = colon;
note = colon;
rightKerningGroup = numbersign;
unicode = 003A;
},
{
glyphname = semicolon;
lastChange = "2016-07-31 02:06:19 +0000";
layers = (
{
layerId = "6C3B4F89-AC86-48DF-BE99-AFD9A4DA4FE2";
paths = (
{
closed = 1;
nodes = (
"73 414 OFFCURVE",
"97 397 OFFCURVE",
"118 397 CURVE SMOOTH",
"139 397 OFFCURVE",
"165 414 OFFCURVE",
"165 433 CURVE SMOOTH",
"165 452 OFFCURVE",
"139 469 OFFCURVE",
"118 469 CURVE SMOOTH",
"97 469 OFFCURVE",
"74 452 OFFCURVE",
"73 433 CURVE"
);
},
{
closed = 1;
nodes = (
"118 112 OFFCURVE",
"111 105 OFFCURVE",
"107 92 CURVE SMOOTH",
"83 6 LINE",
"81 0 OFFCURVE",
"80 -5 OFFCURVE",
"80 -9 CURVE SMOOTH",
"80 -22 OFFCURVE",
"86 -29 OFFCURVE",
"97 -29 CURVE SMOOTH",
"104 -29 OFFCURVE",
"111 -22 OFFCURVE",
"117 -8 CURVE",
"159 75 LINE",
"162 80 OFFCURVE",
"163 85 OFFCURVE",
"163 92 CURVE SMOOTH",
"163 105 OFFCURVE",
"140 112 OFFCURVE",
"127 112 CURVE SMOOTH"
);
}
);
width = 241;
}
);
leftKerningGroup = semicolon;
note = semicolon;
rightKerningGroup = numbersign;
unicode = 003B;
},
{
glyphname = less;
lastChange = "2016-07-31 02:06:19 +0000";
layers = (
{
layerId = "6C3B4F89-AC86-48DF-BE99-AFD9A4DA4FE2";
paths = (
{
closed = 1;
nodes = (
"434 527 LINE",
"445 535 OFFCURVE",
"450 543 OFFCURVE",
"450 551 CURVE SMOOTH",
"450 563 OFFCURVE",
"443 569 OFFCURVE",
"430 569 CURVE SMOOTH",
"424 569 OFFCURVE",
"418 567 OFFCURVE",
"412 564 CURVE",
"49 354 LINE SMOOTH",
"38 348 OFFCURVE",
"33 341 OFFCURVE",
"33 333 CURVE SMOOTH",
"33 325 OFFCURVE",
"38 317 OFFCURVE",
"49 310 CURVE",
"412 100 LINE",
"420 96 OFFCURVE",
"426 94 OFFCURVE",
"431 94 CURVE SMOOTH",
"444 94 OFFCURVE",
"450 102 OFFCURVE",
"450 119 CURVE SMOOTH",
"450 125 OFFCURVE",
"444 131 OFFCURVE",
"433 137 CURVE SMOOTH",
"95 333 LINE"
);
}
);
width = 522;
}
);
note = less;
rightKerningGroup = numbersign;
unicode = 003C;
},
{
glyphname = equal;
lastChange = "2016-07-31 02:06:19 +0000";
layers = (
{
layerId = "6C3B4F89-AC86-48DF-BE99-AFD9A4DA4FE2";
paths = (
{
closed = 1;
nodes = (
"369 259 OFFCURVE",
"379 266 OFFCURVE",
"379 279 CURVE SMOOTH",
"379 294 OFFCURVE",
"369 302 OFFCURVE",
"350 302 CURVE SMOOTH",
"105 302 LINE SMOOTH",
"88 302 OFFCURVE",
"79 295 OFFCURVE",
"79 280 CURVE SMOOTH",
"79 266 OFFCURVE",
"87 259 OFFCURVE",
"103 259 CURVE SMOOTH",
"104 259 OFFCURVE",
"104 259 OFFCURVE",
"105 259 CURVE SMOOTH",
"350 259 LINE SMOOTH"
);
},
{
closed = 1;
nodes = (
"369 362 OFFCURVE",
"379 369 OFFCURVE",
"379 382 CURVE SMOOTH",
"379 397 OFFCURVE",
"369 405 OFFCURVE",
"350 405 CURVE SMOOTH",
"105 405 LINE SMOOTH",
"104 405 OFFCURVE",
"104 405 OFFCURVE",
"103 405 CURVE SMOOTH",
"87 405 OFFCURVE",
"79 398 OFFCURVE",
"79 384 CURVE SMOOTH",
"79 369 OFFCURVE",
"88 362 OFFCURVE",
"105 362 CURVE SMOOTH",
"350 362 LINE SMOOTH"
);
}
);
width = 458;
}
);
note = equal;
rightKerningGroup = numbersign;
unicode = 003D;
},
{
glyphname = greater;
lastChange = "2016-07-31 02:06:19 +0000";
layers = (
{
layerId = "6C3B4F89-AC86-48DF-BE99-AFD9A4DA4FE2";
paths = (
{
closed = 1;
nodes = (
"88 136 LINE",
"77 129 OFFCURVE",
"72 122 OFFCURVE",
"72 113 CURVE SMOOTH",
"72 100 OFFCURVE",
"79 94 OFFCURVE",
"92 94 CURVE SMOOTH",
"99 94 OFFCURVE",
"104 96 OFFCURVE",
"109 99 CURVE SMOOTH",
"473 309 LINE SMOOTH",
"484 315 OFFCURVE",
"489 322 OFFCURVE",
"489 330 CURVE SMOOTH",
"489 338 OFFCURVE",
"484 346 OFFCURVE",
"473 353 CURVE",
"109 563 LINE SMOOTH",
"96 571 OFFCURVE",
"72 576 OFFCURVE",
"72 544 CURVE SMOOTH",
"72 537 OFFCURVE",
"78 531 OFFCURVE",
"89 526 CURVE",
"427 331 LINE"
);
}
);
width = 522;
}
);
note = greater;
rightKerningGroup = numbersign;
unicode = 003E;
},
{
glyphname = question;
lastChange = "2016-07-31 02:06:19 +0000";
layers = (
{
layerId = "6C3B4F89-AC86-48DF-BE99-AFD9A4DA4FE2";
paths = (
{
closed = 1;
nodes = (
"226 -3 OFFCURVE",
"236 -7 OFFCURVE",
"247 -7 CURVE SMOOTH",
"267 -7 OFFCURVE",
"293 10 OFFCURVE",
"293 29 CURVE SMOOTH",
"293 48 OFFCURVE",
"267 65 OFFCURVE",
"247 65 CURVE SMOOTH",
"226 65 OFFCURVE",
"201 48 OFFCURVE",
"201 29 CURVE SMOOTH",
"201 20 OFFCURVE",
"206 11 OFFCURVE",
"216 4 CURVE SMOOTH"
);
},
{
closed = 1;
nodes = (
"453 354 OFFCURVE",
"485 396 OFFCURVE",
"485 484 CURVE SMOOTH",
"485 572 OFFCURVE",
"439 644 OFFCURVE",
"324 644 CURVE SMOOTH",
"248 644 LINE SMOOTH",
"179 644 OFFCURVE",
"138 638 OFFCURVE",
"98 614 CURVE SMOOTH",
"59 591 OFFCURVE",
"40 544 OFFCURVE",
"39 471 CURVE SMOOTH",
"39 452 OFFCURVE",
"46 443 OFFCURVE",
"61 443 CURVE SMOOTH",
"75 443 OFFCURVE",
"82 452 OFFCURVE",
"82 471 CURVE SMOOTH",
"82 531 OFFCURVE",
"92 566 OFFCURVE",
"124 583 CURVE SMOOTH",
"155 599 OFFCURVE",
"184 602 OFFCURVE",
"248 602 CURVE SMOOTH",
"341 602 LINE SMOOTH",
"412 602 OFFCURVE",
"443 542 OFFCURVE",
"443 485 CURVE SMOOTH",
"443 428 OFFCURVE",
"416 387 OFFCURVE",
"379 376 CURVE SMOOTH",
"226 334 LINE",
"226 194 LINE SMOOTH",
"226 175 OFFCURVE",
"233 166 OFFCURVE",
"247 166 CURVE SMOOTH",
"261 166 OFFCURVE",
"268 175 OFFCURVE",
"268 194 CURVE SMOOTH",
"268 303 LINE",
"362 329 LINE SMOOTH"
);
}
);
width = 528;
}
);
leftKerningGroup = question;
note = question;
rightKerningGroup = numbersign;
unicode = 003F;
},
{
glyphname = at;
lastChange = "2016-07-31 02:06:19 +0000";
layers = (
{
layerId = "6C3B4F89-AC86-48DF-BE99-AFD9A4DA4FE2";
paths = (
{
closed = 1;
nodes = (
"503 0 OFFCURVE",
"516 47 OFFCURVE",
"516 110 CURVE SMOOTH",
"516 145 OFFCURVE",
"474 148 OFFCURVE",
"474 105 CURVE SMOOTH",
"474 61 OFFCURVE",
"458 42 OFFCURVE",
"413 42 CURVE SMOOTH",
"279 42 LINE SMOOTH",
"170 42 OFFCURVE",
"113 116 OFFCURVE",
"113 241 CURVE SMOOTH",
"113 395 LINE SMOOTH",
"113 520 OFFCURVE",
"170 594 OFFCURVE",
"279 594 CURVE SMOOTH",
"308 594 LINE SMOOTH",
"417 594 OFFCURVE",
"474 523 OFFCURVE",
"474 388 CURVE SMOOTH",
"474 320 OFFCURVE",
"465 278 OFFCURVE",
"447 261 CURVE SMOOTH",
"438 253 OFFCURVE",
"425 247 OFFCURVE",
"406 243 CURVE",
"415 264 OFFCURVE",
"419 297 OFFCURVE",
"419 342 CURVE SMOOTH",
"419 430 OFFCURVE",
"392 473 OFFCURVE",
"298 473 CURVE SMOOTH",
"204 473 OFFCURVE",
"176 434 OFFCURVE",
"176 332 CURVE SMOOTH",
"176 230 OFFCURVE",
"202 190 OFFCURVE",
"304 190 CURVE SMOOTH",
"355 190 OFFCURVE",
"396 196 OFFCURVE",
"427 207 CURVE SMOOTH",
"489 229 OFFCURVE",
"516 261 OFFCURVE",
"516 402 CURVE SMOOTH",
"516 543 OFFCURVE",
"435 636 OFFCURVE",
"308 636 CURVE SMOOTH",
"279 636 LINE SMOOTH",
"152 636 OFFCURVE",
"71 546 OFFCURVE",
"71 395 CURVE SMOOTH",
"71 241 LINE SMOOTH",
"71 90 OFFCURVE",
"152 0 OFFCURVE",
"279 0 CURVE SMOOTH",
"420 0 LINE SMOOTH"
);
},
{
closed = 1;
nodes = (
"218 410 OFFCURVE",
"229 431 OFFCURVE",
"298 431 CURVE SMOOTH",
"366 431 OFFCURVE",
"377 410 OFFCURVE",
"377 332 CURVE SMOOTH",
"377 254 OFFCURVE",
"366 232 OFFCURVE",
"298 232 CURVE SMOOTH",
"229 232 OFFCURVE",
"218 254 OFFCURVE",
"218 332 CURVE SMOOTH"
);
}
);
width = 584;
}
);
note = at;
rightKerningGroup = numbersign;
unicode = 0040;
},
{
glyphname = A;
lastChange = "2016-07-31 02:06:19 +0000";
layers = (
{
layerId = "6C3B4F89-AC86-48DF-BE99-AFD9A4DA4FE2";
paths = (
{
closed = 1;
nodes = (
"53 -16 OFFCURVE",
"60 -9 OFFCURVE",
"66 4 CURVE",
"138 204 LINE",
"410 204 LINE",
"482 4 LINE SMOOTH",
"487 -9 OFFCURVE",
"495 -16 OFFCURVE",
"504 -16 CURVE SMOOTH",
"518 -16 OFFCURVE",
"525 -9 OFFCURVE",
"525 4 CURVE SMOOTH",
"525 9 OFFCURVE",
"524 13 OFFCURVE",
"522 18 CURVE SMOOTH",
"297 636 LINE",
"251 636 LINE",
"26 18 LINE SMOOTH",
"24 13 OFFCURVE",
"23 9 OFFCURVE",
"23 4 CURVE SMOOTH",
"23 -9 OFFCURVE",
"30 -16 OFFCURVE",
"44 -16 CURVE SMOOTH"
);
},
{
closed = 1;
nodes = (
"394 246 LINE",
"154 246 LINE",
"273 575 LINE"
);
}
);
width = 548;
}
);
leftKerningGroup = A;
note = A;
rightKerningGroup = A;
unicode = 0041;
},
{
glyphname = B;
lastChange = "2016-07-31 02:06:19 +0000";
layers = (
{
layerId = "6C3B4F89-AC86-48DF-BE99-AFD9A4DA4FE2";
paths = (
{
closed = 1;
nodes = (
"321 337 LINE SMOOTH",
"384 337 OFFCURVE",
"413 335 OFFCURVE",
"444 317 CURVE SMOOTH",
"475 299 OFFCURVE",
"486 264 OFFCURVE",
"486 204 CURVE SMOOTH",
"486 175 LINE SMOOTH",
"486 115 OFFCURVE",
"475 81 OFFCURVE",
"444 63 CURVE SMOOTH",
"413 45 OFFCURVE",
"384 42 OFFCURVE",
"321 42 CURVE SMOOTH",
"126 42 LINE",
"126 337 LINE"
);
},
{
closed = 1;
nodes = (
"84 10 OFFCURVE",
"90 0 OFFCURVE",
"103 0 CURVE SMOOTH",
"321 0 LINE SMOOTH",
"461 0 OFFCURVE",
"528 35 OFFCURVE",
"528 175 CURVE SMOOTH",
"528 204 LINE SMOOTH",
"528 300 OFFCURVE",
"496 347 OFFCURVE",
"431 367 CURVE",
"468 390 OFFCURVE",
"486 430 OFFCURVE",
"486 487 CURVE SMOOTH",
"486 600 OFFCURVE",
"416 636 OFFCURVE",
"279 636 CURVE SMOOTH",
"103 636 LINE SMOOTH",
"90 636 OFFCURVE",
"84 626 OFFCURVE",
"84 605 CURVE SMOOTH",
"84 31 LINE SMOOTH"
);
},
{
closed = 1;
nodes = (
"126 594 LINE",
"279 594 LINE SMOOTH",
"399 594 OFFCURVE",
"444 574 OFFCURVE",
"444 486 CURVE SMOOTH",
"444 398 OFFCURVE",
"398 380 OFFCURVE",
"279 379 CURVE SMOOTH",
"126 379 LINE"
);
}
);
width = 584;
}
);
leftKerningGroup = B;
note = B;
rightKerningGroup = B;
unicode = 0042;
},
{
glyphname = C;
lastChange = "2016-07-31 02:06:19 +0000";
layers = (
{
layerId = "6C3B4F89-AC86-48DF-BE99-AFD9A4DA4FE2";
paths = (
{
closed = 1;
nodes = (
"505 0 OFFCURVE",
"516 49 OFFCURVE",
"516 110 CURVE SMOOTH",
"516 145 OFFCURVE",
"474 148 OFFCURVE",
"474 105 CURVE SMOOTH",
"474 61 OFFCURVE",
"459 42 OFFCURVE",
"414 42 CURVE SMOOTH",
"280 42 LINE SMOOTH",
"216 42 OFFCURVE",
"187 45 OFFCURVE",
"156 63 CURVE SMOOTH",
"125 81 OFFCURVE",
"114 115 OFFCURVE",
"114 175 CURVE SMOOTH",
"114 461 LINE SMOOTH",
"114 521 OFFCURVE",
"125 556 OFFCURVE",
"156 574 CURVE SMOOTH",
"187 592 OFFCURVE",
"216 594 OFFCURVE",
"280 594 CURVE SMOOTH",
"414 594 LINE SMOOTH",
"459 594 OFFCURVE",
"474 574 OFFCURVE",
"474 531 CURVE SMOOTH",
"474 510 OFFCURVE",
"481 499 OFFCURVE",
"495 499 CURVE SMOOTH",
"509 499 OFFCURVE",
"516 511 OFFCURVE",
"516 536 CURVE SMOOTH",
"516 584 OFFCURVE",
"505 636 OFFCURVE",
"421 636 CURVE SMOOTH",
"280 636 LINE SMOOTH",
"139 636 OFFCURVE",
"72 601 OFFCURVE",
"72 461 CURVE SMOOTH",
"72 175 LINE SMOOTH",
"72 35 OFFCURVE",
"139 0 OFFCURVE",
"280 0 CURVE SMOOTH",
"421 0 LINE SMOOTH"
);
}
);
width = 572;
}
);
leftKerningGroup = C;
note = C;
rightKerningGroup = C;
unicode = 0043;
},
{
glyphname = D;
lastChange = "2016-07-31 02:06:19 +0000";
layers = (
{
layerId = "6C3B4F89-AC86-48DF-BE99-AFD9A4DA4FE2";
paths = (
{
closed = 1;
nodes = (
"528 601 OFFCURVE",
"461 636 OFFCURVE",
"321 636 CURVE SMOOTH",
"103 636 LINE SMOOTH",
"90 636 OFFCURVE",
"84 626 OFFCURVE",
"84 605 CURVE SMOOTH",
"84 31 LINE SMOOTH",
"84 10 OFFCURVE",
"90 0 OFFCURVE",
"103 0 CURVE SMOOTH",
"321 0 LINE SMOOTH",
"461 0 OFFCURVE",
"528 35 OFFCURVE",
"528 175 CURVE SMOOTH",
"528 461 LINE SMOOTH"
);
},
{
closed = 1;
nodes = (
"486 115 OFFCURVE",
"475 81 OFFCURVE",
"444 63 CURVE SMOOTH",
"413 45 OFFCURVE",
"384 42 OFFCURVE",
"321 42 CURVE SMOOTH",
"126 42 LINE",
"126 594 LINE",
"321 594 LINE SMOOTH",
"384 594 OFFCURVE",
"413 592 OFFCURVE",
"444 574 CURVE SMOOTH",
"475 556 OFFCURVE",
"486 521 OFFCURVE",
"486 461 CURVE SMOOTH",
"486 175 LINE SMOOTH"
);
}
);
width = 600;
}
);
leftKerningGroup = B;
note = D;
rightKerningGroup = D;
unicode = 0044;
},
{
glyphname = E;
lastChange = "2016-07-31 02:06:19 +0000";
layers = (
{
layerId = "6C3B4F89-AC86-48DF-BE99-AFD9A4DA4FE2";
paths = (
{
closed = 1;
nodes = (
"401 337 OFFCURVE",
"411 343 OFFCURVE",
"411 356 CURVE SMOOTH",
"411 371 OFFCURVE",
"401 379 OFFCURVE",
"381 379 CURVE SMOOTH",
"126 379 LINE",
"126 594 LINE",
"499 594 LINE SMOOTH",
"518 594 OFFCURVE",
"528 600 OFFCURVE",
"528 613 CURVE SMOOTH",
"528 628 OFFCURVE",
"518 636 OFFCURVE",
"499 636 CURVE SMOOTH",
"103 636 LINE SMOOTH",
"90 636 OFFCURVE",
"84 626 OFFCURVE",
"84 605 CURVE SMOOTH",
"84 31 LINE SMOOTH",
"84 10 OFFCURVE",
"90 0 OFFCURVE",
"103 0 CURVE SMOOTH",
"499 0 LINE SMOOTH",
"518 0 OFFCURVE",
"528 6 OFFCURVE",
"528 19 CURVE SMOOTH",
"528 34 OFFCURVE",
"518 42 OFFCURVE",
"499 42 CURVE SMOOTH",
"126 42 LINE",
"126 337 LINE",
"381 337 LINE SMOOTH"
);
}
);
width = 577;
}
);
leftKerningGroup = B;
note = E;
rightKerningGroup = E;
unicode = 0045;
},
{
glyphname = F;
lastChange = "2016-07-31 02:06:19 +0000";
layers = (
{
layerId = "6C3B4F89-AC86-48DF-BE99-AFD9A4DA4FE2";
paths = (
{
closed = 1;
nodes = (
"381 337 LINE SMOOTH",
"401 337 OFFCURVE",
"411 343 OFFCURVE",
"411 356 CURVE SMOOTH",
"411 371 OFFCURVE",
"401 379 OFFCURVE",
"381 379 CURVE SMOOTH",
"126 379 LINE",
"126 594 LINE",
"499 594 LINE SMOOTH",
"518 594 OFFCURVE",
"528 600 OFFCURVE",
"528 613 CURVE SMOOTH",
"528 628 OFFCURVE",
"518 636 OFFCURVE",
"499 636 CURVE SMOOTH",
"103 636 LINE SMOOTH",
"90 636 OFFCURVE",
"84 626 OFFCURVE",
"84 605 CURVE SMOOTH",
"84 23 LINE SMOOTH",
"84 3 OFFCURVE",
"91 -7 OFFCURVE",
"105 -7 CURVE SMOOTH",
"119 -7 OFFCURVE",
"126 3 OFFCURVE",
"126 23 CURVE SMOOTH",
"126 337 LINE"
);
}
);
width = 558;
}
);
leftKerningGroup = B;
note = F;
rightKerningGroup = F;
unicode = 0046;
},
{
glyphname = G;
lastChange = "2016-07-31 02:06:19 +0000";
layers = (
{
layerId = "6C3B4F89-AC86-48DF-BE99-AFD9A4DA4FE2";
paths = (
{
closed = 1;
nodes = (
"474 60 OFFCURVE",
"459 42 OFFCURVE",
"414 42 CURVE SMOOTH",
"280 42 LINE SMOOTH",
"216 42 OFFCURVE",
"187 45 OFFCURVE",
"156 63 CURVE SMOOTH",
"125 81 OFFCURVE",
"114 115 OFFCURVE",
"114 175 CURVE SMOOTH",
"114 461 LINE SMOOTH",
"114 521 OFFCURVE",
"125 556 OFFCURVE",
"156 574 CURVE SMOOTH",
"187 592 OFFCURVE",
"216 594 OFFCURVE",
"280 594 CURVE SMOOTH",
"414 594 LINE SMOOTH",
"459 594 OFFCURVE",
"474 575 OFFCURVE",
"474 532 CURVE SMOOTH",
"474 510 OFFCURVE",
"481 499 OFFCURVE",
"495 499 CURVE SMOOTH",
"509 499 OFFCURVE",
"516 511 OFFCURVE",
"516 536 CURVE SMOOTH",
"516 584 OFFCURVE",
"505 636 OFFCURVE",
"421 636 CURVE SMOOTH",
"280 636 LINE SMOOTH",
"211 636 OFFCURVE",
"170 630 OFFCURVE",
"130 606 CURVE SMOOTH",
"91 583 OFFCURVE",
"72 534 OFFCURVE",
"72 461 CURVE SMOOTH",
"72 175 LINE SMOOTH",
"72 102 OFFCURVE",
"91 53 OFFCURVE",
"130 30 CURVE SMOOTH",
"170 6 OFFCURVE",
"211 0 OFFCURVE",
"280 0 CURVE SMOOTH",
"421 0 LINE SMOOTH",
"442 0 OFFCURVE",
"459 3 OFFCURVE",
"472 9 CURVE SMOOTH",
"501 22 OFFCURVE",
"516 54 OFFCURVE",
"516 106 CURVE SMOOTH",
"516 293 LINE",
"341 293 LINE SMOOTH",
"321 293 OFFCURVE",
"311 286 OFFCURVE",
"311 272 CURVE SMOOTH",
"311 258 OFFCURVE",
"321 251 OFFCURVE",
"341 251 CURVE SMOOTH",
"474 251 LINE",
"474 108 LINE SMOOTH"
);
}
);
width = 585;
}
);
leftKerningGroup = C;
note = G;
rightKerningGroup = G;
unicode = 0047;
},
{
glyphname = H;
lastChange = "2016-07-31 02:06:19 +0000";
layers = (
{
layerId = "6C3B4F89-AC86-48DF-BE99-AFD9A4DA4FE2";
paths = (
{
closed = 1;
nodes = (
"486 322 LINE",
"486 23 LINE SMOOTH",
"486 3 OFFCURVE",
"493 -7 OFFCURVE",
"507 -7 CURVE SMOOTH",
"521 -7 OFFCURVE",
"528 3 OFFCURVE",
"528 23 CURVE SMOOTH",
"528 612 LINE SMOOTH",
"528 633 OFFCURVE",
"521 643 OFFCURVE",
"507 643 CURVE SMOOTH",
"493 643 OFFCURVE",
"486 633 OFFCURVE",
"486 612 CURVE SMOOTH",
"486 364 LINE",
"126 364 LINE",
"126 612 LINE SMOOTH",
"126 633 OFFCURVE",
"118 643 OFFCURVE",
"103 643 CURVE SMOOTH",
"90 643 OFFCURVE",
"84 633 OFFCURVE",
"84 612 CURVE SMOOTH",
"84 23 LINE SMOOTH",
"84 3 OFFCURVE",
"91 -7 OFFCURVE",
"105 -7 CURVE SMOOTH",
"119 -7 OFFCURVE",
"126 3 OFFCURVE",
"126 23 CURVE SMOOTH",
"126 322 LINE"
);
}
);
width = 612;
}
);
leftKerningGroup = B;
note = H;
rightKerningGroup = H;
unicode = 0048;
},
{
glyphname = I;
lastChange = "2016-07-31 02:06:19 +0000";
layers = (
{
layerId = "6C3B4F89-AC86-48DF-BE99-AFD9A4DA4FE2";
paths = (
{
closed = 1;
nodes = (
"126 634 OFFCURVE",
"119 643 OFFCURVE",
"105 643 CURVE SMOOTH",
"91 643 OFFCURVE",
"84 634 OFFCURVE",
"84 615 CURVE SMOOTH",
"84 20 LINE SMOOTH",
"84 2 OFFCURVE",
"91 -7 OFFCURVE",
"105 -7 CURVE SMOOTH",
"119 -7 OFFCURVE",
"126 2 OFFCURVE",
"126 20 CURVE SMOOTH",
"126 615 LINE SMOOTH"
);
}
);
width = 210;
}
);
leftKerningGroup = B;
note = I;
rightKerningGroup = H;
unicode = 0049;
},
{
glyphname = J;
lastChange = "2016-07-31 02:06:19 +0000";
layers = (
{
layerId = "6C3B4F89-AC86-48DF-BE99-AFD9A4DA4FE2";
paths = (
{
closed = 1;
nodes = (
"116 34 OFFCURVE",
"75 52 OFFCURVE",
"75 167 CURVE SMOOTH",
"75 186 OFFCURVE",
"68 195 OFFCURVE",
"55 195 CURVE SMOOTH",
"40 195 OFFCURVE",
"32 186 OFFCURVE",
"32 167 CURVE SMOOTH",
"32 94 OFFCURVE",
"51 45 OFFCURVE",
"90 22 CURVE SMOOTH",
"130 -2 OFFCURVE",
"172 -8 OFFCURVE",
"241 -8 CURVE SMOOTH",
"310 -8 OFFCURVE",
"351 -2 OFFCURVE",
"391 22 CURVE SMOOTH",
"430 45 OFFCURVE",
"449 94 OFFCURVE",
"449 167 CURVE SMOOTH",
"449 615 LINE SMOOTH",
"449 634 OFFCURVE",
"442 643 OFFCURVE",
"428 643 CURVE SMOOTH",
"414 643 OFFCURVE",
"407 634 OFFCURVE",
"407 615 CURVE SMOOTH",
"407 167 LINE SMOOTH",
"407 107 OFFCURVE",
"396 73 OFFCURVE",
"365 55 CURVE SMOOTH",
"334 37 OFFCURVE",
"305 34 OFFCURVE",
"241 34 CURVE SMOOTH"
);
}
);
width = 530;
}
);
leftKerningGroup = J;
note = J;
rightKerningGroup = J;
unicode = 004A;
},
{
glyphname = K;
lastChange = "2016-07-31 02:06:19 +0000";
layers = (
{
layerId = "6C3B4F89-AC86-48DF-BE99-AFD9A4DA4FE2";
paths = (
{
closed = 1;
nodes = (
"418 603 LINE SMOOTH",
"424 610 OFFCURVE",
"427 617 OFFCURVE",
"427 623 CURVE SMOOTH",
"427 635 OFFCURVE",
"417 643 OFFCURVE",
"405 643 CURVE SMOOTH",
"399 643 OFFCURVE",
"393 639 OFFCURVE",
"386 630 CURVE",
"126 321 LINE",
"126 615 LINE SMOOTH",
"126 634 OFFCURVE",
"119 643 OFFCURVE",
"105 643 CURVE SMOOTH",
"91 643 OFFCURVE",
"84 634 OFFCURVE",
"84 615 CURVE SMOOTH",
"84 20 LINE SMOOTH",
"84 2 OFFCURVE",
"91 -7 OFFCURVE",
"105 -7 CURVE SMOOTH",
"119 -7 OFFCURVE",
"126 2 OFFCURVE",
"126 20 CURVE SMOOTH",
"126 255 LINE",
"184 325 LINE",
"452 6 LINE",
"459 -3 OFFCURVE",
"465 -7 OFFCURVE",
"471 -7 CURVE SMOOTH",
"483 -7 OFFCURVE",
"494 2 OFFCURVE",
"494 14 CURVE SMOOTH",
"494 20 OFFCURVE",
"491 26 OFFCURVE",
"484 33 CURVE",
"212 357 LINE"
);
}
);
width = 497;
}
);
leftKerningGroup = B;
note = K;
rightKerningGroup = K;
unicode = 004B;
},
{
glyphname = L;
lastChange = "2016-07-31 02:06:19 +0000";
layers = (
{
layerId = "6C3B4F89-AC86-48DF-BE99-AFD9A4DA4FE2";
paths = (
{
closed = 1;
nodes = (
"463 0 OFFCURVE",
"472 7 OFFCURVE",
"472 21 CURVE SMOOTH",
"472 35 OFFCURVE",
"463 42 OFFCURVE",
"444 42 CURVE SMOOTH",
"126 42 LINE",
"126 615 LINE SMOOTH",
"126 634 OFFCURVE",
"119 643 OFFCURVE",
"105 643 CURVE SMOOTH",
"91 643 OFFCURVE",
"84 634 OFFCURVE",
"84 615 CURVE SMOOTH",
"84 31 LINE SMOOTH",
"84 10 OFFCURVE",
"90 0 OFFCURVE",
"103 0 CURVE SMOOTH",
"444 0 LINE SMOOTH"
);
}
);
width = 495;
}
);
leftKerningGroup = B;
note = L;
rightKerningGroup = L;
unicode = 004C;
},
{
glyphname = M;
lastChange = "2016-07-31 02:06:19 +0000";
layers = (
{
layerId = "6C3B4F89-AC86-48DF-BE99-AFD9A4DA4FE2";
paths = (
{
closed = 1;
nodes = (
"507 23 LINE SMOOTH",
"507 3 OFFCURVE",
"514 -7 OFFCURVE",
"528 -7 CURVE SMOOTH",
"542 -7 OFFCURVE",
"549 3 OFFCURVE",
"549 23 CURVE SMOOTH",
"549 612 LINE SMOOTH",
"549 633 OFFCURVE",
"542 643 OFFCURVE",
"529 643 CURVE SMOOTH",
"520 643 OFFCURVE",
"511 637 OFFCURVE",
"504 626 CURVE SMOOTH",
"316 342 LINE",
"129 626 LINE SMOOTH",
"122 637 OFFCURVE",
"113 643 OFFCURVE",
"103 643 CURVE SMOOTH",
"90 643 OFFCURVE",
"84 633 OFFCURVE",
"84 612 CURVE SMOOTH",
"84 23 LINE SMOOTH",
"84 3 OFFCURVE",
"91 -7 OFFCURVE",
"105 -7 CURVE SMOOTH",
"119 -7 OFFCURVE",
"126 3 OFFCURVE",
"126 23 CURVE SMOOTH",
"126 557 LINE",
"304 285 LINE",
"307 281 OFFCURVE",
"312 279 OFFCURVE",
"317 279 CURVE SMOOTH",
"322 279 OFFCURVE",
"326 281 OFFCURVE",
"329 285 CURVE",
"507 557 LINE"
);
}
);
width = 633;
}
);
leftKerningGroup = B;
note = M;
rightKerningGroup = H;
unicode = 004D;
},
{
glyphname = N;
lastChange = "2016-07-31 02:06:19 +0000";
layers = (
{
layerId = "6C3B4F89-AC86-48DF-BE99-AFD9A4DA4FE2";
paths = (
{
closed = 1;
nodes = (
"521 -7 OFFCURVE",
"528 3 OFFCURVE",
"528 23 CURVE SMOOTH",
"528 612 LINE SMOOTH",
"528 633 OFFCURVE",
"521 643 OFFCURVE",
"507 643 CURVE SMOOTH",
"493 643 OFFCURVE",
"486 633 OFFCURVE",
"486 612 CURVE SMOOTH",
"486 84 LINE",
"129 626 LINE SMOOTH",
"122 637 OFFCURVE",
"113 643 OFFCURVE",
"103 643 CURVE SMOOTH",
"90 643 OFFCURVE",
"84 633 OFFCURVE",
"84 612 CURVE SMOOTH",
"84 23 LINE SMOOTH",
"84 3 OFFCURVE",
"91 -7 OFFCURVE",
"105 -7 CURVE SMOOTH",
"119 -7 OFFCURVE",
"126 3 OFFCURVE",
"126 23 CURVE SMOOTH",
"126 557 LINE",
"492 0 LINE",
"495 -5 OFFCURVE",
"500 -7 OFFCURVE",
"508 -7 CURVE SMOOTH"
);
}
);
width = 612;
}
);
leftKerningGroup = B;
note = N;
rightKerningGroup = H;
unicode = 004E;
},
{
glyphname = O;
lastChange = "2016-07-31 02:06:19 +0000";
layers = (
{
layerId = "6C3B4F89-AC86-48DF-BE99-AFD9A4DA4FE2";
paths = (
{
closed = 1;
nodes = (
"488 96 OFFCURVE",
"509 154 OFFCURVE",
"509 227 CURVE SMOOTH",
"509 409 LINE SMOOTH",
"509 556 OFFCURVE",
"416 645 OFFCURVE",
"287 645 CURVE SMOOTH",
"158 645 OFFCURVE",
"65 556 OFFCURVE",
"65 409 CURVE SMOOTH",
"65 227 LINE SMOOTH",
"65 80 OFFCURVE",
"158 -9 OFFCURVE",
"287 -9 CURVE SMOOTH",
"352 -9 OFFCURVE",
"405 12 OFFCURVE",
"447 54 CURVE SMOOTH"
);
},
{
closed = 1;
nodes = (
"451 517 OFFCURVE",
"467 470 OFFCURVE",
"467 409 CURVE SMOOTH",
"467 227 LINE SMOOTH",
"467 106 OFFCURVE",
"399 33 OFFCURVE",
"287 33 CURVE SMOOTH",
"175 33 OFFCURVE",
"107 106 OFFCURVE",
"107 227 CURVE SMOOTH",
"107 409 LINE SMOOTH",
"107 530 OFFCURVE",
"175 603 OFFCURVE",
"287 603 CURVE SMOOTH",
"343 603 OFFCURVE",
"387 586 OFFCURVE",
"419 552 CURVE SMOOTH"
);
}
);
width = 574;
}
);
leftKerningGroup = O;
note = O;
rightKerningGroup = O;
unicode = 004F;
},
{
glyphname = P;
lastChange = "2016-07-31 02:06:19 +0000";
layers = (
{
layerId = "6C3B4F89-AC86-48DF-BE99-AFD9A4DA4FE2";
paths = (
{
closed = 1;
nodes = (
"486 599 OFFCURVE",
"416 636 OFFCURVE",
"279 636 CURVE SMOOTH",
"103 636 LINE SMOOTH",
"90 636 OFFCURVE",
"84 626 OFFCURVE",
"84 605 CURVE SMOOTH",
"84 20 LINE SMOOTH",
"84 2 OFFCURVE",
"91 -7 OFFCURVE",
"105 -7 CURVE SMOOTH",
"119 -7 OFFCURVE",
"126 2 OFFCURVE",
"126 20 CURVE SMOOTH",
"126 337 LINE",
"321 337 LINE SMOOTH",
"431 337 OFFCURVE",
"486 389 OFFCURVE",
"486 492 CURVE SMOOTH"
);
},
{
closed = 1;
nodes = (
"126 594 LINE",
"279 594 LINE SMOOTH",
"399 594 OFFCURVE",
"444 574 OFFCURVE",
"444 486 CURVE SMOOTH",
"444 398 OFFCURVE",
"399 379 OFFCURVE",
"279 379 CURVE SMOOTH",
"126 379 LINE"
);
}
);
width = 520;
}
);
leftKerningGroup = B;
note = P;
rightKerningGroup = P;
unicode = 0050;
},
{
glyphname = Q;
lastChange = "2016-07-31 02:06:19 +0000";
layers = (
{
layerId = "6C3B4F89-AC86-48DF-BE99-AFD9A4DA4FE2";
paths = (
{
closed = 1;
nodes = (
"451 517 OFFCURVE",
"467 470 OFFCURVE",
"467 409 CURVE SMOOTH",
"467 227 LINE SMOOTH",
"467 172 OFFCURVE",
"454 128 OFFCURVE",
"429 95 CURVE",
"371 154 LINE SMOOTH",
"364 161 OFFCURVE",
"357 165 OFFCURVE",
"351 165 CURVE SMOOTH",
"339 165 OFFCURVE",
"330 154 OFFCURVE",
"330 143 CURVE SMOOTH",
"330 138 OFFCURVE",
"334 131 OFFCURVE",
"341 124 CURVE SMOOTH",
"399 67 LINE",
"370 44 OFFCURVE",
"331 33 OFFCURVE",
"280 33 CURVE SMOOTH",
"178 33 OFFCURVE",
"107 106 OFFCURVE",
"107 227 CURVE SMOOTH",
"107 409 LINE SMOOTH",
"107 530 OFFCURVE",
"175 603 OFFCURVE",
"287 603 CURVE SMOOTH",
"343 603 OFFCURVE",
"387 586 OFFCURVE",
"419 552 CURVE SMOOTH"
);
},
{
closed = 1;
nodes = (
"475 -8 OFFCURVE",
"482 -12 OFFCURVE",
"487 -12 CURVE SMOOTH",
"498 -12 OFFCURVE",
"506 -2 OFFCURVE",
"506 10 CURVE SMOOTH",
"506 16 OFFCURVE",
"503 22 OFFCURVE",
"496 29 CURVE SMOOTH",
"458 67 LINE",
"492 108 OFFCURVE",
"509 161 OFFCURVE",
"509 227 CURVE SMOOTH",
"509 409 LINE SMOOTH",
"509 556 OFFCURVE",
"416 645 OFFCURVE",
"287 645 CURVE SMOOTH",
"158 645 OFFCURVE",
"65 556 OFFCURVE",
"65 409 CURVE SMOOTH",
"65 227 LINE SMOOTH",
"65 80 OFFCURVE",
"160 -9 OFFCURVE",
"280 -9 CURVE SMOOTH",
"339 -9 OFFCURVE",
"389 6 OFFCURVE",
"429 37 CURVE",
"466 -1 LINE"
);
}
);
width = 574;
}
);
leftKerningGroup = O;
note = Q;
rightKerningGroup = O;
unicode = 0051;
},
{
glyphname = R;
lastChange = "2016-07-31 02:06:19 +0000";
layers = (
{
layerId = "6C3B4F89-AC86-48DF-BE99-AFD9A4DA4FE2";
paths = (
{
closed = 1;
nodes = (
"126 594 LINE",
"279 594 LINE SMOOTH",
"399 594 OFFCURVE",
"444 574 OFFCURVE",
"444 486 CURVE SMOOTH",
"444 398 OFFCURVE",
"398 380 OFFCURVE",
"279 379 CURVE SMOOTH",
"126 379 LINE"
);
},
{
closed = 1;
nodes = (
"314 337 LINE",
"370 293 OFFCURVE",
"419 167 OFFCURVE",
"438 91 CURVE SMOOTH",
"447 53 OFFCURVE",
"452 30 OFFCURVE",
"452 22 CURVE SMOOTH",
"452 6 OFFCURVE",
"461 -6 OFFCURVE",
"472 -7 CURVE",
"487 -7 OFFCURVE",
"494 2 OFFCURVE",
"494 20 CURVE SMOOTH",
"494 28 OFFCURVE",
"489 53 OFFCURVE",
"478 95 CURVE SMOOTH",
"456 178 OFFCURVE",
"407 305 OFFCURVE",
"363 340 CURVE",
"442 352 OFFCURVE",
"486 402 OFFCURVE",
"486 486 CURVE SMOOTH",
"486 601 OFFCURVE",
"416 636 OFFCURVE",
"279 636 CURVE SMOOTH",
"103 636 LINE SMOOTH",
"90 636 OFFCURVE",
"84 626 OFFCURVE",
"84 605 CURVE SMOOTH",
"84 20 LINE SMOOTH",
"84 2 OFFCURVE",
"91 -7 OFFCURVE",
"105 -7 CURVE SMOOTH",
"119 -7 OFFCURVE",
"126 2 OFFCURVE",
"126 20 CURVE SMOOTH",
"126 337 LINE"
);
}
);
width = 549;
}
);
leftKerningGroup = B;
note = R;
rightKerningGroup = R;
unicode = 0052;
},
{
glyphname = S;
lastChange = "2016-07-31 02:06:19 +0000";
layers = (
{
layerId = "6C3B4F89-AC86-48DF-BE99-AFD9A4DA4FE2";
paths = (
{
closed = 1;
nodes = (
"364 602 OFFCURVE",
"392 599 OFFCURVE",
"424 583 CURVE",
"455 566 OFFCURVE",
"465 531 OFFCURVE",
"465 471 CURVE SMOOTH",
"465 452 OFFCURVE",
"472 443 OFFCURVE",
"487 443 CURVE SMOOTH",
"501 443 OFFCURVE",
"508 452 OFFCURVE",
"508 471 CURVE SMOOTH",
"508 544 OFFCURVE",
"489 591 OFFCURVE",
"450 614 CURVE SMOOTH",
"410 638 OFFCURVE",
"369 644 OFFCURVE",
"300 644 CURVE SMOOTH",
"224 644 LINE SMOOTH",
"109 644 OFFCURVE",
"62 572 OFFCURVE",
"62 484 CURVE SMOOTH",
"62 395 OFFCURVE",
"95 350 OFFCURVE",
"186 329 CURVE SMOOTH",
"402 276 LINE SMOOTH",
"433 269 OFFCURVE",
"466 221 OFFCURVE",
"466 158 CURVE SMOOTH",
"466 94 OFFCURVE",
"435 34 OFFCURVE",
"364 34 CURVE SMOOTH",
"271 34 LINE SMOOTH",
"146 34 OFFCURVE",
"105 52 OFFCURVE",
"105 167 CURVE SMOOTH",
"105 186 OFFCURVE",
"98 195 OFFCURVE",
"85 195 CURVE SMOOTH",
"70 195 OFFCURVE",
"62 186 OFFCURVE",
"62 167 CURVE SMOOTH",
"62 94 OFFCURVE",
"81 45 OFFCURVE",
"120 22 CURVE SMOOTH",
"160 -2 OFFCURVE",
"202 -8 OFFCURVE",
"271 -8 CURVE SMOOTH",
"347 -8 LINE SMOOTH",
"462 -8 OFFCURVE",
"508 66 OFFCURVE",
"508 154 CURVE SMOOTH",
"508 247 OFFCURVE",
"467 303 OFFCURVE",
"385 324 CURVE SMOOTH",
"168 376 LINE SMOOTH",
"132 385 OFFCURVE",
"104 428 OFFCURVE",
"104 485 CURVE SMOOTH",
"104 541 OFFCURVE",
"135 602 OFFCURVE",
"206 602 CURVE SMOOTH",
"300 602 LINE SMOOTH"
);
}
);
width = 570;
}
);
leftKerningGroup = S;
note = S;
rightKerningGroup = S;
unicode = 0053;
},
{
glyphname = T;
lastChange = "2016-07-31 02:06:19 +0000";
layers = (
{
layerId = "6C3B4F89-AC86-48DF-BE99-AFD9A4DA4FE2";
paths = (
{
closed = 1;
nodes = (
"35 636 OFFCURVE",
"26 629 OFFCURVE",
"26 615 CURVE SMOOTH",
"26 601 OFFCURVE",
"35 594 OFFCURVE",
"54 594 CURVE SMOOTH",
"209 594 LINE",
"209 20 LINE SMOOTH",
"209 2 OFFCURVE",
"216 -7 OFFCURVE",
"230 -7 CURVE SMOOTH",
"244 -7 OFFCURVE",
"251 2 OFFCURVE",
"251 20 CURVE SMOOTH",
"251 594 LINE",
"405 594 LINE SMOOTH",
"424 594 OFFCURVE",
"433 601 OFFCURVE",
"433 615 CURVE SMOOTH",
"433 629 OFFCURVE",
"424 636 OFFCURVE",
"405 636 CURVE SMOOTH",
"54 636 LINE SMOOTH"
);
}
);
width = 460;
}
);
leftKerningGroup = T;
note = T;
rightKerningGroup = T;
unicode = 0054;
},
{
glyphname = U;
lastChange = "2016-07-31 02:06:19 +0000";
layers = (
{
layerId = "6C3B4F89-AC86-48DF-BE99-AFD9A4DA4FE2";
paths = (
{
closed = 1;
nodes = (
"479 106 OFFCURVE",
"411 33 OFFCURVE",
"299 33 CURVE SMOOTH",
"187 33 OFFCURVE",
"119 106 OFFCURVE",
"119 227 CURVE SMOOTH",
"119 615 LINE SMOOTH",
"119 634 OFFCURVE",
"112 643 OFFCURVE",
"98 643 CURVE SMOOTH",
"84 643 OFFCURVE",
"77 634 OFFCURVE",
"77 615 CURVE SMOOTH",
"77 227 LINE SMOOTH",
"77 80 OFFCURVE",
"170 -9 OFFCURVE",
"299 -9 CURVE SMOOTH",
"428 -9 OFFCURVE",
"521 80 OFFCURVE",
"521 227 CURVE SMOOTH",
"521 615 LINE SMOOTH",
"521 634 OFFCURVE",
"514 643 OFFCURVE",
"500 643 CURVE SMOOTH",
"486 643 OFFCURVE",
"479 634 OFFCURVE",
"479 615 CURVE SMOOTH",
"479 227 LINE SMOOTH"
);
}
);
width = 598;
}
);
leftKerningGroup = U;
note = U;
rightKerningGroup = U;
unicode = 0055;
},
{
glyphname = V;
lastChange = "2016-07-31 02:06:19 +0000";
layers = (
{
layerId = "6C3B4F89-AC86-48DF-BE99-AFD9A4DA4FE2";
paths = (
{
closed = 1;
nodes = (
"23 628 OFFCURVE",
"24 623 OFFCURVE",
"26 617 CURVE SMOOTH",
"251 0 LINE",
"297 0 LINE",
"522 617 LINE SMOOTH",
"524 623 OFFCURVE",
"525 628 OFFCURVE",
"525 633 CURVE SMOOTH",
"525 641 OFFCURVE",
"516 652 OFFCURVE",
"504 652 CURVE SMOOTH",
"495 652 OFFCURVE",
"487 645 OFFCURVE",
"482 632 CURVE SMOOTH",
"274 60 LINE",
"66 632 LINE",
"60 645 OFFCURVE",
"53 652 OFFCURVE",
"46 652 CURVE SMOOTH",
"33 652 OFFCURVE",
"25 645 OFFCURVE",
"23 632 CURVE"
);
}
);
width = 548;
}
);
leftKerningGroup = V;
note = V;
rightKerningGroup = V;
unicode = 0056;
},
{
glyphname = W;
lastChange = "2016-07-31 02:06:19 +0000";
layers = (
{
layerId = "6C3B4F89-AC86-48DF-BE99-AFD9A4DA4FE2";
paths = (
{
closed = 1;
nodes = (
"67 632 LINE SMOOTH",
"63 645 OFFCURVE",
"57 652 OFFCURVE",
"48 652 CURVE SMOOTH",
"37 652 OFFCURVE",
"24 642 OFFCURVE",
"24 634 CURVE SMOOTH",
"24 631 OFFCURVE",
"25 628 OFFCURVE",
"28 625 CURVE",
"30 622 OFFCURVE",
"31 619 OFFCURVE",
"32 617 CURVE",
"220 0 LINE",
"269 0 LINE",
"444 565 LINE",
"620 0 LINE",
"670 0 LINE",
"862 617 LINE SMOOTH",
"864 623 OFFCURVE",
"865 628 OFFCURVE",
"865 633 CURVE SMOOTH",
"865 641 OFFCURVE",
"856 652 OFFCURVE",
"841 652 CURVE SMOOTH",
"834 652 OFFCURVE",
"827 645 OFFCURVE",
"822 632 CURVE",
"646 60 LINE",
"469 630 LINE SMOOTH",
"464 645 OFFCURVE",
"456 652 OFFCURVE",
"445 652 CURVE SMOOTH",
"434 652 OFFCURVE",
"426 645 OFFCURVE",
"421 630 CURVE SMOOTH",
"245 60 LINE"
);
}
);
width = 892;
}
);
leftKerningGroup = W;
note = W;
rightKerningGroup = W;
unicode = 0057;
},
{
glyphname = X;
lastChange = "2016-07-31 02:06:19 +0000";
layers = (
{
layerId = "6C3B4F89-AC86-48DF-BE99-AFD9A4DA4FE2";
paths = (
{
closed = 1;
nodes = (
"77 627 LINE",
"70 638 OFFCURVE",
"63 643 OFFCURVE",
"57 643 CURVE SMOOTH",
"45 643 OFFCURVE",
"35 634 OFFCURVE",
"35 622 CURVE SMOOTH",
"35 615 OFFCURVE",
"37 609 OFFCURVE",
"42 604 CURVE",
"243 317 LINE",
"42 32 LINE SMOOTH",
"37 25 OFFCURVE",
"35 18 OFFCURVE",
"35 13 CURVE SMOOTH",
"35 1 OFFCURVE",
"45 -7 OFFCURVE",
"57 -7 CURVE SMOOTH",
"63 -7 OFFCURVE",
"70 -2 OFFCURVE",
"77 7 CURVE",
"268 281 LINE",
"460 7 LINE",
"467 -2 OFFCURVE",
"474 -7 OFFCURVE",
"480 -7 CURVE SMOOTH",
"492 -7 OFFCURVE",
"502 1 OFFCURVE",
"502 13 CURVE SMOOTH",
"502 18 OFFCURVE",
"500 25 OFFCURVE",
"495 32 CURVE SMOOTH",
"294 317 LINE",
"495 604 LINE",
"500 609 OFFCURVE",
"502 615 OFFCURVE",
"502 622 CURVE SMOOTH",
"502 634 OFFCURVE",
"491 643 OFFCURVE",
"480 643 CURVE SMOOTH",
"474 643 OFFCURVE",
"467 638 OFFCURVE",
"460 627 CURVE",
"268 354 LINE"
);
}
);
width = 537;
}
);
leftKerningGroup = X;
note = X;
rightKerningGroup = X;
unicode = 0058;
},
{
glyphname = Y;
lastChange = "2016-07-31 02:06:19 +0000";
layers = (
{
layerId = "6C3B4F89-AC86-48DF-BE99-AFD9A4DA4FE2";
paths = (
{
closed = 1;
nodes = (
"230 2 OFFCURVE",
"237 -7 OFFCURVE",
"250 -7 CURVE SMOOTH",
"263 -7 OFFCURVE",
"270 2 OFFCURVE",
"270 20 CURVE SMOOTH",
"270 310 LINE",
"475 604 LINE SMOOTH",
"480 611 OFFCURVE",
"482 617 OFFCURVE",
"482 622 CURVE SMOOTH",
"482 627 OFFCURVE",
"480 632 OFFCURVE",
"476 636 CURVE SMOOTH",
"468 644 OFFCURVE",
"457 648 OFFCURVE",
"440 627 CURVE",
"249 354 LINE",
"57 627 LINE",
"50 638 OFFCURVE",
"43 643 OFFCURVE",
"38 643 CURVE",
"27 642 OFFCURVE",
"16 633 OFFCURVE",
"16 622 CURVE SMOOTH",
"16 617 OFFCURVE",
"18 611 OFFCURVE",
"23 604 CURVE SMOOTH",
"229 310 LINE",
"229 20 LINE"
);
}
);
width = 499;
}
);
leftKerningGroup = Y;
note = Y;
rightKerningGroup = Y;
unicode = 0059;
},
{
glyphname = Z;
lastChange = "2016-07-31 02:06:19 +0000";
layers = (
{
layerId = "6C3B4F89-AC86-48DF-BE99-AFD9A4DA4FE2";
paths = (
{
closed = 1;
nodes = (
"479 0 OFFCURVE",
"489 7 OFFCURVE",
"489 21 CURVE SMOOTH",
"489 35 OFFCURVE",
"479 42 OFFCURVE",
"459 42 CURVE SMOOTH",
"95 42 LINE",
"489 590 LINE",
"489 636 LINE",
"76 636 LINE SMOOTH",
"55 636 OFFCURVE",
"45 629 OFFCURVE",
"45 615 CURVE SMOOTH",
"45 601 OFFCURVE",
"55 594 OFFCURVE",
"76 594 CURVE SMOOTH",
"442 594 LINE",
"46 44 LINE",
"46 0 LINE",
"459 0 LINE SMOOTH"
);
}
);
width = 535;
}
);
leftKerningGroup = Z;
note = Z;
rightKerningGroup = Z;
unicode = 005A;
},
{
glyphname = bracketleft;
lastChange = "2016-07-31 02:06:19 +0000";
layers = (
{
layerId = "6C3B4F89-AC86-48DF-BE99-AFD9A4DA4FE2";
paths = (
{
closed = 1;
nodes = (
"80 678 LINE",
"80 -42 LINE",
"200 -42 LINE",
"200 0 LINE",
"122 0 LINE",
"122 636 LINE",
"200 636 LINE",
"200 678 LINE"
);
}
);
width = 244;
}
);
note = bracketleft;
rightKerningGroup = bracketleft;
unicode = 005B;
},
{
glyphname = backslash;
lastChange = "2016-07-31 02:06:19 +0000";
layers = (
{
layerId = "6C3B4F89-AC86-48DF-BE99-AFD9A4DA4FE2";
paths = (
{
closed = 1;
nodes = (
"50 645 OFFCURVE",
"43 639 OFFCURVE",
"43 626 CURVE SMOOTH",
"43 621 OFFCURVE",
"44 616 OFFCURVE",
"46 610 CURVE SMOOTH",
"264 12 LINE",
"268 -1 OFFCURVE",
"275 -8 OFFCURVE",
"284 -8 CURVE SMOOTH",
"299 -8 OFFCURVE",
"306 -2 OFFCURVE",
"306 11 CURVE SMOOTH",
"306 15 OFFCURVE",
"305 20 OFFCURVE",
"303 27 CURVE",
"85 625 LINE",
"81 638 OFFCURVE",
"74 645 OFFCURVE",
"64 645 CURVE SMOOTH"
);
}
);
width = 349;
}
);
leftKerningGroup = backslash;
note = backslash;
rightKerningGroup = backslash;
unicode = 005C;
},
{
glyphname = bracketright;
lastChange = "2016-07-31 02:06:19 +0000";
layers = (
{
layerId = "6C3B4F89-AC86-48DF-BE99-AFD9A4DA4FE2";
paths = (
{
closed = 1;
nodes = (
"164 -42 LINE",
"164 678 LINE",
"44 678 LINE",
"44 636 LINE",
"122 636 LINE",
"122 0 LINE",
"44 0 LINE",
"44 -42 LINE"
);
}
);
width = 244;
}
);
leftKerningGroup = bracketright;
note = bracketright;
rightKerningGroup = numbersign;
unicode = 005D;
},
{
glyphname = asciicircum;
lastChange = "2016-07-31 02:06:19 +0000";
layers = (
{
layerId = "6C3B4F89-AC86-48DF-BE99-AFD9A4DA4FE2";
paths = (
{
closed = 1;
nodes = (
"322 371 OFFCURVE",
"330 365 OFFCURVE",
"340 365 CURVE SMOOTH",
"352 365 OFFCURVE",
"358 371 OFFCURVE",
"358 383 CURVE SMOOTH",
"358 387 OFFCURVE",
"357 390 OFFCURVE",
"356 393 CURVE",
"249 636 LINE",
"195 636 LINE",
"87 393 LINE",
"86 388 OFFCURVE",
"85 384 OFFCURVE",
"85 383 CURVE SMOOTH",
"85 371 OFFCURVE",
"91 365 OFFCURVE",
"103 365 CURVE SMOOTH",
"113 365 OFFCURVE",
"121 371 OFFCURVE",
"127 383 CURVE",
"220 590 LINE",
"223 590 LINE",
"316 383 LINE"
);
}
);
width = 443;
}
);
note = asciicircum;
rightKerningGroup = numbersign;
unicode = 005E;
},
{
glyphname = underscore;
lastChange = "2016-07-31 02:06:19 +0000";
layers = (
{
layerId = "6C3B4F89-AC86-48DF-BE99-AFD9A4DA4FE2";
paths = (
{
closed = 1;
nodes = (
"466 -42 OFFCURVE",
"475 -35 OFFCURVE",
"475 -21 CURVE SMOOTH",
"475 -7 OFFCURVE",
"466 0 OFFCURVE",
"447 0 CURVE SMOOTH",
"28 0 LINE SMOOTH",
"9 0 OFFCURVE",
"0 -7 OFFCURVE",
"0 -21 CURVE SMOOTH",
"0 -35 OFFCURVE",
"9 -42 OFFCURVE",
"28 -42 CURVE SMOOTH",
"447 -42 LINE SMOOTH"
);
}
);
width = 475;
}
);
note = underscore;
rightKerningGroup = numbersign;
unicode = 005F;
},
{
glyphname = grave;
lastChange = "2016-07-31 02:06:19 +0000";
layers = (
{
layerId = "6C3B4F89-AC86-48DF-BE99-AFD9A4DA4FE2";
paths = (
{
closed = 1;
nodes = (
"146 514 OFFCURVE",
"153 510 OFFCURVE",
"158 510 CURVE SMOOTH",
"169 510 OFFCURVE",
"179 519 OFFCURVE",
"179 532 CURVE SMOOTH",
"179 538 OFFCURVE",
"176 544 OFFCURVE",
"171 550 CURVE SMOOTH",
"75 665 LINE SMOOTH",
"67 674 OFFCURVE",
"60 678 OFFCURVE",
"55 678 CURVE SMOOTH",
"44 678 OFFCURVE",
"34 669 OFFCURVE",
"34 657 CURVE SMOOTH",
"34 650 OFFCURVE",
"37 644 OFFCURVE",
"42 638 CURVE SMOOTH",
"138 523 LINE SMOOTH"
);
}
);
width = 212;
}
);
note = grave;
rightKerningGroup = numbersign;
unicode = 0060;
},
{
glyphname = a;
lastChange = "2016-07-31 02:06:19 +0000";
layers = (
{
layerId = "6C3B4F89-AC86-48DF-BE99-AFD9A4DA4FE2";
paths = (
{
closed = 1;
nodes = (
"420 228 LINE SMOOTH",
"420 108 OFFCURVE",
"360 42 OFFCURVE",
"255 42 CURVE SMOOTH",
"162 42 LINE SMOOTH",
"131 42 OFFCURVE",
"102 75 OFFCURVE",
"102 124 CURVE SMOOTH",
"102 172 OFFCURVE",
"113 210 OFFCURVE",
"144 228 CURVE SMOOTH",
"175 246 OFFCURVE",
"204 248 OFFCURVE",
"268 248 CURVE SMOOTH",
"420 248 LINE"
);
},
{
closed = 1;
nodes = (
"163 290 OFFCURVE",
"60 285 OFFCURVE",
"60 114 CURVE SMOOTH",
"60 50 OFFCURVE",
"101 0 OFFCURVE",
"162 0 CURVE SMOOTH",
"255 0 LINE SMOOTH",
"329 0 OFFCURVE",
"384 24 OFFCURVE",
"420 72 CURVE",
"420 23 LINE SMOOTH",
"420 3 OFFCURVE",
"427 -7 OFFCURVE",
"441 -7 CURVE SMOOTH",
"455 -7 OFFCURVE",
"462 3 OFFCURVE",
"462 23 CURVE SMOOTH",
"462 337 LINE SMOOTH",
"462 430 OFFCURVE",
"440 461 OFFCURVE",
"367 461 CURVE SMOOTH",
"212 461 LINE SMOOTH",
"123 461 OFFCURVE",
"60 426 OFFCURVE",
"60 354 CURVE SMOOTH",
"60 334 OFFCURVE",
"67 324 OFFCURVE",
"81 324 CURVE SMOOTH",
"95 324 OFFCURVE",
"102 334 OFFCURVE",
"102 354 CURVE SMOOTH",
"102 397 OFFCURVE",
"141 419 OFFCURVE",
"219 419 CURVE SMOOTH",
"360 419 LINE SMOOTH",
"405 419 OFFCURVE",
"420 401 OFFCURVE",
"420 354 CURVE SMOOTH",
"420 290 LINE",
"268 290 LINE SMOOTH"
);
}
);
width = 534;
}
);
leftKerningGroup = a;
note = a;
rightKerningGroup = a;
unicode = 0061;
},
{
glyphname = b;
lastChange = "2016-07-31 02:06:19 +0000";
layers = (
{
layerId = "6C3B4F89-AC86-48DF-BE99-AFD9A4DA4FE2";
paths = (
{
closed = 1;
nodes = (
"116 633 OFFCURVE",
"108 643 OFFCURVE",
"93 643 CURVE SMOOTH",
"80 643 OFFCURVE",
"74 633 OFFCURVE",
"74 612 CURVE SMOOTH",
"74 23 LINE SMOOTH",
"74 3 OFFCURVE",
"81 -7 OFFCURVE",
"95 -7 CURVE SMOOTH",
"109 -7 OFFCURVE",
"116 3 OFFCURVE",
"116 23 CURVE SMOOTH",
"116 72 LINE",
"153 24 OFFCURVE",
"209 0 OFFCURVE",
"282 0 CURVE SMOOTH",
"311 0 LINE SMOOTH",
"451 0 OFFCURVE",
"518 35 OFFCURVE",
"518 175 CURVE SMOOTH",
"518 286 LINE SMOOTH",
"518 426 OFFCURVE",
"451 461 OFFCURVE",
"311 461 CURVE SMOOTH",
"282 461 LINE SMOOTH",
"209 461 OFFCURVE",
"153 437 OFFCURVE",
"116 389 CURVE",
"116 612 LINE SMOOTH"
);
},
{
closed = 1;
nodes = (
"374 419 OFFCURVE",
"403 417 OFFCURVE",
"434 399 CURVE SMOOTH",
"465 381 OFFCURVE",
"476 346 OFFCURVE",
"476 286 CURVE SMOOTH",
"476 175 LINE SMOOTH",
"476 115 OFFCURVE",
"465 81 OFFCURVE",
"434 63 CURVE SMOOTH",
"403 45 OFFCURVE",
"374 42 OFFCURVE",
"311 42 CURVE SMOOTH",
"282 42 LINE SMOOTH",
"175 42 OFFCURVE",
"116 108 OFFCURVE",
"116 228 CURVE SMOOTH",
"116 232 LINE SMOOTH",
"116 352 OFFCURVE",
"175 419 OFFCURVE",
"282 419 CURVE SMOOTH",
"311 419 LINE SMOOTH"
);
}
);
width = 580;
}
);
note = b;
rightKerningGroup = b;
unicode = 0062;
},
{
glyphname = c;
lastChange = "2016-07-31 02:06:19 +0000";
layers = (
{
layerId = "6C3B4F89-AC86-48DF-BE99-AFD9A4DA4FE2";
paths = (
{
closed = 1;
nodes = (
"495 0 OFFCURVE",
"506 49 OFFCURVE",
"506 110 CURVE SMOOTH",
"506 145 OFFCURVE",
"464 148 OFFCURVE",
"464 105 CURVE SMOOTH",
"464 61 OFFCURVE",
"449 42 OFFCURVE",
"404 42 CURVE SMOOTH",
"270 42 LINE SMOOTH",
"206 42 OFFCURVE",
"177 45 OFFCURVE",
"146 63 CURVE SMOOTH",
"115 81 OFFCURVE",
"104 115 OFFCURVE",
"104 175 CURVE SMOOTH",
"104 286 LINE SMOOTH",
"104 346 OFFCURVE",
"115 381 OFFCURVE",
"146 399 CURVE SMOOTH",
"177 417 OFFCURVE",
"206 419 OFFCURVE",
"270 419 CURVE SMOOTH",
"404 419 LINE SMOOTH",
"449 419 OFFCURVE",
"464 399 OFFCURVE",
"464 356 CURVE SMOOTH",
"464 335 OFFCURVE",
"471 324 OFFCURVE",
"485 324 CURVE SMOOTH",
"499 324 OFFCURVE",
"506 336 OFFCURVE",
"506 360 CURVE SMOOTH",
"506 408 OFFCURVE",
"495 461 OFFCURVE",
"415 461 CURVE SMOOTH",
"414 461 OFFCURVE",
"412 461 OFFCURVE",
"411 461 CURVE SMOOTH",
"270 461 LINE SMOOTH",
"129 461 OFFCURVE",
"62 426 OFFCURVE",
"62 286 CURVE SMOOTH",
"62 175 LINE SMOOTH",
"62 35 OFFCURVE",
"129 0 OFFCURVE",
"270 0 CURVE SMOOTH",
"411 0 LINE SMOOTH"
);
}
);
width = 564;
}
);
leftKerningGroup = c;
note = c;
rightKerningGroup = c;
unicode = 0063;
},
{
glyphname = d;
lastChange = "2016-07-31 02:06:19 +0000";
layers = (
{
layerId = "6C3B4F89-AC86-48DF-BE99-AFD9A4DA4FE2";
paths = (
{
closed = 1;
nodes = (
"104 346 OFFCURVE",
"115 381 OFFCURVE",
"146 399 CURVE SMOOTH",
"177 417 OFFCURVE",
"206 419 OFFCURVE",
"270 419 CURVE SMOOTH",
"464 419 LINE",
"464 228 LINE SMOOTH",
"464 108 OFFCURVE",
"404 42 OFFCURVE",
"299 42 CURVE SMOOTH",
"270 42 LINE SMOOTH",
"206 42 OFFCURVE",
"177 45 OFFCURVE",
"146 63 CURVE SMOOTH",
"115 81 OFFCURVE",
"104 115 OFFCURVE",
"104 175 CURVE SMOOTH",
"104 286 LINE SMOOTH"
);
},
{
closed = 1;
nodes = (
"62 35 OFFCURVE",
"129 0 OFFCURVE",
"270 0 CURVE SMOOTH",
"299 0 LINE SMOOTH",
"373 0 OFFCURVE",
"428 24 OFFCURVE",
"464 72 CURVE",
"464 23 LINE SMOOTH",
"464 3 OFFCURVE",
"471 -7 OFFCURVE",
"485 -7 CURVE SMOOTH",
"499 -7 OFFCURVE",
"506 3 OFFCURVE",
"506 23 CURVE SMOOTH",
"506 612 LINE SMOOTH",
"506 633 OFFCURVE",
"500 643 OFFCURVE",
"487 643 CURVE SMOOTH",
"472 643 OFFCURVE",
"464 633 OFFCURVE",
"464 612 CURVE SMOOTH",
"464 461 LINE",
"270 461 LINE SMOOTH",
"129 461 OFFCURVE",
"62 426 OFFCURVE",
"62 286 CURVE SMOOTH",
"62 175 LINE SMOOTH"
);
}
);
width = 580;
}
);
leftKerningGroup = c;
note = d;
rightKerningGroup = numbersign;
unicode = 0064;
},
{
glyphname = e;
lastChange = "2016-07-31 02:06:19 +0000";
layers = (
{
layerId = "6C3B4F89-AC86-48DF-BE99-AFD9A4DA4FE2";
paths = (
{
closed = 1;
nodes = (
"506 426 OFFCURVE",
"439 461 OFFCURVE",
"299 461 CURVE SMOOTH",
"270 461 LINE SMOOTH",
"129 461 OFFCURVE",
"62 426 OFFCURVE",
"62 286 CURVE SMOOTH",
"62 175 LINE SMOOTH",
"62 35 OFFCURVE",
"129 0 OFFCURVE",
"270 0 CURVE SMOOTH",
"411 0 LINE SMOOTH",
"495 0 OFFCURVE",
"506 49 OFFCURVE",
"506 110 CURVE SMOOTH",
"506 145 OFFCURVE",
"464 148 OFFCURVE",
"464 105 CURVE SMOOTH",
"464 61 OFFCURVE",
"449 42 OFFCURVE",
"404 42 CURVE SMOOTH",
"270 42 LINE SMOOTH",
"206 42 OFFCURVE",
"177 45 OFFCURVE",
"146 63 CURVE SMOOTH",
"115 81 OFFCURVE",
"104 115 OFFCURVE",
"104 175 CURVE SMOOTH",
"104 250 LINE",
"506 250 LINE",
"506 286 LINE SMOOTH"
);
},
{
closed = 1;
nodes = (
"420 419 OFFCURVE",
"464 400 OFFCURVE",
"464 292 CURVE",
"104 292 LINE",
"104 400 OFFCURVE",
"147 419 OFFCURVE",
"270 419 CURVE SMOOTH",
"299 419 LINE SMOOTH"
);
}
);
width = 566;
}
);
leftKerningGroup = c;
note = e;
rightKerningGroup = e;
unicode = 0065;
},
{
glyphname = f;
lastChange = "2016-07-31 02:06:19 +0000";
layers = (
{
layerId = "6C3B4F89-AC86-48DF-BE99-AFD9A4DA4FE2";
paths = (
{
closed = 1;
nodes = (
"308 594 OFFCURVE",
"318 600 OFFCURVE",
"318 613 CURVE SMOOTH",
"318 628 OFFCURVE",
"308 636 OFFCURVE",
"287 636 CURVE SMOOTH",
"218 636 OFFCURVE",
"177 630 OFFCURVE",
"137 606 CURVE SMOOTH",
"98 583 OFFCURVE",
"79 534 OFFCURVE",
"79 461 CURVE",
"58 461 OFFCURVE",
"48 454 OFFCURVE",
"48 440 CURVE SMOOTH",
"48 426 OFFCURVE",
"58 419 OFFCURVE",
"79 419 CURVE",
"79 24 LINE SMOOTH",
"79 3 OFFCURVE",
"85 -7 OFFCURVE",
"98 -7 CURVE SMOOTH",
"113 -7 OFFCURVE",
"121 3 OFFCURVE",
"121 24 CURVE SMOOTH",
"121 419 LINE",
"264 419 LINE SMOOTH",
"285 419 OFFCURVE",
"295 425 OFFCURVE",
"295 438 CURVE SMOOTH",
"295 453 OFFCURVE",
"285 461 OFFCURVE",
"264 461 CURVE SMOOTH",
"121 461 LINE",
"121 521 OFFCURVE",
"132 556 OFFCURVE",
"163 574 CURVE SMOOTH",
"194 592 OFFCURVE",
"223 594 OFFCURVE",
"287 594 CURVE SMOOTH"
);
}
);
width = 313;
}
);
leftKerningGroup = f;
note = f;
rightKerningGroup = f;
unicode = 0066;
},
{
glyphname = g;
lastChange = "2016-07-31 02:06:19 +0000";
layers = (
{
layerId = "6C3B4F89-AC86-48DF-BE99-AFD9A4DA4FE2";
paths = (
{
closed = 1;
nodes = (
"62 35 OFFCURVE",
"129 0 OFFCURVE",
"270 0 CURVE SMOOTH",
"411 0 LINE SMOOTH",
"434 0 OFFCURVE",
"451 3 OFFCURVE",
"464 9 CURVE",
"464 -108 LINE SMOOTH",
"464 -151 OFFCURVE",
"454 -163 OFFCURVE",
"413 -163 CURVE SMOOTH",
"164 -163 LINE SMOOTH",
"119 -163 OFFCURVE",
"104 -143 OFFCURVE",
"104 -100 CURVE SMOOTH",
"104 -79 OFFCURVE",
"97 -68 OFFCURVE",
"83 -68 CURVE SMOOTH",
"69 -68 OFFCURVE",
"62 -80 OFFCURVE",
"62 -104 CURVE SMOOTH",
"62 -152 OFFCURVE",
"73 -205 OFFCURVE",
"153 -205 CURVE SMOOTH",
"154 -205 OFFCURVE",
"156 -205 OFFCURVE",
"157 -205 CURVE SMOOTH",
"420 -205 LINE SMOOTH",
"487 -205 OFFCURVE",
"506 -177 OFFCURVE",
"506 -92 CURVE SMOOTH",
"506 438 LINE SMOOTH",
"506 458 OFFCURVE",
"499 468 OFFCURVE",
"485 468 CURVE SMOOTH",
"471 468 OFFCURVE",
"464 458 OFFCURVE",
"464 438 CURVE SMOOTH",
"464 389 LINE",
"428 437 OFFCURVE",
"373 461 OFFCURVE",
"299 461 CURVE SMOOTH",
"270 461 LINE SMOOTH",
"129 461 OFFCURVE",
"62 426 OFFCURVE",
"62 286 CURVE SMOOTH",
"62 175 LINE SMOOTH"
);
},
{
closed = 1;
nodes = (
"104 346 OFFCURVE",
"115 381 OFFCURVE",
"146 399 CURVE SMOOTH",
"177 417 OFFCURVE",
"206 419 OFFCURVE",
"270 419 CURVE SMOOTH",
"299 419 LINE SMOOTH",
"404 419 OFFCURVE",
"464 352 OFFCURVE",
"464 232 CURVE SMOOTH",
"464 106 LINE SMOOTH",
"464 59 OFFCURVE",
"449 42 OFFCURVE",
"404 42 CURVE SMOOTH",
"270 42 LINE SMOOTH",
"206 42 OFFCURVE",
"177 45 OFFCURVE",
"146 63 CURVE SMOOTH",
"115 81 OFFCURVE",
"104 115 OFFCURVE",
"104 175 CURVE SMOOTH",
"104 286 LINE SMOOTH"
);
}
);
width = 581;
}
);
leftKerningGroup = c;
note = g;
rightKerningGroup = g;
unicode = 0067;
},
{
glyphname = h;
lastChange = "2016-07-31 02:06:19 +0000";
layers = (
{
layerId = "6C3B4F89-AC86-48DF-BE99-AFD9A4DA4FE2";
paths = (
{
closed = 1;
nodes = (
"374 419 OFFCURVE",
"403 417 OFFCURVE",
"434 399 CURVE SMOOTH",
"465 381 OFFCURVE",
"476 346 OFFCURVE",
"476 286 CURVE SMOOTH",
"476 23 LINE SMOOTH",
"476 3 OFFCURVE",
"483 -7 OFFCURVE",
"497 -7 CURVE SMOOTH",
"511 -7 OFFCURVE",
"518 3 OFFCURVE",
"518 23 CURVE SMOOTH",
"518 286 LINE SMOOTH",
"518 426 OFFCURVE",
"451 461 OFFCURVE",
"311 461 CURVE SMOOTH",
"282 461 LINE SMOOTH",
"209 461 OFFCURVE",
"153 437 OFFCURVE",
"116 389 CURVE",
"116 612 LINE SMOOTH",
"116 633 OFFCURVE",
"108 643 OFFCURVE",
"93 643 CURVE SMOOTH",
"80 643 OFFCURVE",
"74 633 OFFCURVE",
"74 612 CURVE SMOOTH",
"74 23 LINE SMOOTH",
"74 3 OFFCURVE",
"81 -7 OFFCURVE",
"95 -7 CURVE SMOOTH",
"109 -7 OFFCURVE",
"116 3 OFFCURVE",
"116 23 CURVE SMOOTH",
"116 232 LINE SMOOTH",
"116 352 OFFCURVE",
"175 419 OFFCURVE",
"282 419 CURVE SMOOTH",
"311 419 LINE SMOOTH"
);
}
);
width = 588;
}
);
note = h;
rightKerningGroup = h;
unicode = 0068;
},
{
glyphname = i;
lastChange = "2016-07-31 02:06:19 +0000";
layers = (
{
layerId = "6C3B4F89-AC86-48DF-BE99-AFD9A4DA4FE2";
paths = (
{
closed = 1;
nodes = (
"49 582 OFFCURVE",
"73 565 OFFCURVE",
"94 565 CURVE SMOOTH",
"115 565 OFFCURVE",
"141 582 OFFCURVE",
"141 601 CURVE SMOOTH",
"141 620 OFFCURVE",
"115 637 OFFCURVE",
"94 637 CURVE SMOOTH",
"73 637 OFFCURVE",
"50 620 OFFCURVE",
"49 601 CURVE"
);
},
{
closed = 1;
nodes = (
"116 459 OFFCURVE",
"109 468 OFFCURVE",
"95 468 CURVE SMOOTH",
"81 468 OFFCURVE",
"74 459 OFFCURVE",
"74 440 CURVE SMOOTH",
"74 20 LINE SMOOTH",
"74 2 OFFCURVE",
"81 -7 OFFCURVE",
"95 -7 CURVE SMOOTH",
"109 -7 OFFCURVE",
"116 2 OFFCURVE",
"116 20 CURVE SMOOTH",
"116 440 LINE SMOOTH"
);
}
);
width = 190;
}
);
note = i;
rightKerningGroup = numbersign;
unicode = 0069;
},
{
glyphname = j;
lastChange = "2016-07-31 02:06:19 +0000";
layers = (
{
layerId = "6C3B4F89-AC86-48DF-BE99-AFD9A4DA4FE2";
paths = (
{
closed = 1;
nodes = (
"76 569 OFFCURVE",
"86 565 OFFCURVE",
"97 565 CURVE SMOOTH",
"117 565 OFFCURVE",
"142 582 OFFCURVE",
"142 601 CURVE SMOOTH",
"142 620 OFFCURVE",
"117 637 OFFCURVE",
"97 637 CURVE SMOOTH",
"76 637 OFFCURVE",
"50 620 OFFCURVE",
"50 601 CURVE SMOOTH",
"50 592 OFFCURVE",
"55 583 OFFCURVE",
"66 576 CURVE"
);
},
{
closed = 1;
nodes = (
"117 458 OFFCURVE",
"110 468 OFFCURVE",
"96 468 CURVE SMOOTH",
"82 468 OFFCURVE",
"75 458 OFFCURVE",
"75 437 CURVE SMOOTH",
"75 0 LINE SMOOTH",
"75 -60 OFFCURVE",
"64 -94 OFFCURVE",
"33 -112 CURVE SMOOTH",
"2 -130 OFFCURVE",
"-27 -133 OFFCURVE",
"-91 -133 CURVE SMOOTH",
"-112 -133 OFFCURVE",
"-122 -140 OFFCURVE",
"-122 -154 CURVE SMOOTH",
"-122 -168 OFFCURVE",
"-112 -175 OFFCURVE",
"-91 -175 CURVE SMOOTH",
"-22 -175 OFFCURVE",
"19 -170 OFFCURVE",
"59 -146 CURVE SMOOTH",
"98 -123 OFFCURVE",
"117 -75 OFFCURVE",
"117 0 CURVE SMOOTH",
"117 437 LINE SMOOTH"
);
}
);
width = 192;
}
);
note = j;
rightKerningGroup = numbersign;
unicode = 006A;
},
{
glyphname = k;
lastChange = "2016-07-31 02:06:19 +0000";
layers = (
{
layerId = "6C3B4F89-AC86-48DF-BE99-AFD9A4DA4FE2";
paths = (
{
closed = 1;
nodes = (
"338 425 LINE SMOOTH",
"345 432 OFFCURVE",
"349 439 OFFCURVE",
"349 445 CURVE SMOOTH",
"349 457 OFFCURVE",
"339 466 OFFCURVE",
"329 466 CURVE SMOOTH",
"324 466 OFFCURVE",
"317 462 OFFCURVE",
"308 455 CURVE",
"116 262 LINE",
"116 615 LINE SMOOTH",
"116 634 OFFCURVE",
"109 643 OFFCURVE",
"95 643 CURVE SMOOTH",
"81 643 OFFCURVE",
"74 634 OFFCURVE",
"74 615 CURVE SMOOTH",
"74 20 LINE SMOOTH",
"74 2 OFFCURVE",
"81 -7 OFFCURVE",
"95 -7 CURVE SMOOTH",
"109 -7 OFFCURVE",
"116 2 OFFCURVE",
"116 20 CURVE SMOOTH",
"116 203 LINE",
"150 237 LINE",
"381 5 LINE SMOOTH",
"388 -2 OFFCURVE",
"395 -6 OFFCURVE",
"401 -6 CURVE SMOOTH",
"413 -6 OFFCURVE",
"421 4 OFFCURVE",
"421 16 CURVE SMOOTH",
"421 22 OFFCURVE",
"418 28 OFFCURVE",
"411 35 CURVE SMOOTH",
"179 266 LINE"
);
}
);
width = 433;
}
);
note = k;
rightKerningGroup = k;
unicode = 006B;
},
{
glyphname = l;
lastChange = "2016-07-31 02:06:19 +0000";
layers = (
{
layerId = "6C3B4F89-AC86-48DF-BE99-AFD9A4DA4FE2";
paths = (
{
closed = 1;
nodes = (
"212 0 OFFCURVE",
"222 7 OFFCURVE",
"222 21 CURVE SMOOTH",
"222 35 OFFCURVE",
"211 42 OFFCURVE",
"190 42 CURVE SMOOTH",
"147 42 OFFCURVE",
"132 59 OFFCURVE",
"132 106 CURVE SMOOTH",
"132 613 LINE SMOOTH",
"132 633 OFFCURVE",
"125 643 OFFCURVE",
"111 643 CURVE SMOOTH",
"97 643 OFFCURVE",
"90 633 OFFCURVE",
"90 613 CURVE SMOOTH",
"90 124 LINE SMOOTH",
"90 31 OFFCURVE",
"112 0 OFFCURVE",
"185 0 CURVE SMOOTH",
"192 0 LINE SMOOTH"
);
}
);
width = 260;
}
);
leftKerningGroup = l;
note = l;
rightKerningGroup = l;
unicode = 006C;
},
{
glyphname = m;
lastChange = "2016-07-31 02:06:19 +0000";
layers = (
{
layerId = "6C3B4F89-AC86-48DF-BE99-AFD9A4DA4FE2";
paths = (
{
closed = 1;
nodes = (
"304 419 OFFCURVE",
"328 417 OFFCURVE",
"353 399 CURVE SMOOTH",
"378 381 OFFCURVE",
"386 346 OFFCURVE",
"386 286 CURVE SMOOTH",
"386 23 LINE SMOOTH",
"386 3 OFFCURVE",
"393 -7 OFFCURVE",
"407 -7 CURVE SMOOTH",
"421 -7 OFFCURVE",
"428 3 OFFCURVE",
"428 23 CURVE SMOOTH",
"428 232 LINE SMOOTH",
"428 352 OFFCURVE",
"478 419 OFFCURVE",
"563 419 CURVE SMOOTH",
"616 419 OFFCURVE",
"641 417 OFFCURVE",
"666 399 CURVE SMOOTH",
"691 381 OFFCURVE",
"699 346 OFFCURVE",
"699 286 CURVE SMOOTH",
"699 23 LINE SMOOTH",
"699 3 OFFCURVE",
"706 -7 OFFCURVE",
"720 -7 CURVE SMOOTH",
"734 -7 OFFCURVE",
"741 3 OFFCURVE",
"741 23 CURVE SMOOTH",
"741 286 LINE SMOOTH",
"741 426 OFFCURVE",
"683 461 OFFCURVE",
"558 461 CURVE SMOOTH",
"495 461 OFFCURVE",
"448 432 OFFCURVE",
"417 374 CURVE",
"394 442 OFFCURVE",
"337 461 OFFCURVE",
"261 461 CURVE SMOOTH",
"185 461 OFFCURVE",
"156 441 OFFCURVE",
"116 389 CURVE",
"116 437 LINE SMOOTH",
"116 458 OFFCURVE",
"108 468 OFFCURVE",
"93 468 CURVE SMOOTH",
"80 468 OFFCURVE",
"74 458 OFFCURVE",
"74 437 CURVE SMOOTH",
"74 23 LINE SMOOTH",
"74 3 OFFCURVE",
"81 -7 OFFCURVE",
"95 -7 CURVE SMOOTH",
"109 -7 OFFCURVE",
"116 3 OFFCURVE",
"116 23 CURVE SMOOTH",
"116 232 LINE SMOOTH",
"116 352 OFFCURVE",
"166 419 OFFCURVE",
"251 419 CURVE SMOOTH"
);
}
);
width = 812;
}
);
leftKerningGroup = m;
note = m;
rightKerningGroup = h;
unicode = 006D;
},
{
glyphname = n;
lastChange = "2016-07-31 02:06:19 +0000";
layers = (
{
layerId = "6C3B4F89-AC86-48DF-BE99-AFD9A4DA4FE2";
paths = (
{
closed = 1;
nodes = (
"374 419 OFFCURVE",
"403 417 OFFCURVE",
"434 399 CURVE SMOOTH",
"465 381 OFFCURVE",
"476 346 OFFCURVE",
"476 286 CURVE SMOOTH",
"476 23 LINE SMOOTH",
"476 3 OFFCURVE",
"483 -7 OFFCURVE",
"497 -7 CURVE SMOOTH",
"511 -7 OFFCURVE",
"518 3 OFFCURVE",
"518 23 CURVE SMOOTH",
"518 286 LINE SMOOTH",
"518 426 OFFCURVE",
"451 461 OFFCURVE",
"311 461 CURVE SMOOTH",
"282 461 LINE SMOOTH",
"209 461 OFFCURVE",
"153 437 OFFCURVE",
"116 389 CURVE",
"116 437 LINE SMOOTH",
"116 458 OFFCURVE",
"108 468 OFFCURVE",
"93 468 CURVE SMOOTH",
"80 468 OFFCURVE",
"74 458 OFFCURVE",
"74 437 CURVE SMOOTH",
"74 23 LINE SMOOTH",
"74 3 OFFCURVE",
"81 -7 OFFCURVE",
"95 -7 CURVE SMOOTH",
"109 -7 OFFCURVE",
"116 3 OFFCURVE",
"116 23 CURVE SMOOTH",
"116 232 LINE SMOOTH",
"116 352 OFFCURVE",
"175 419 OFFCURVE",
"282 419 CURVE SMOOTH",
"311 419 LINE SMOOTH"
);
}
);
width = 587;
}
);
leftKerningGroup = m;
note = n;
rightKerningGroup = h;
unicode = 006E;
},
{
glyphname = o;
lastChange = "2016-07-31 02:06:19 +0000";
layers = (
{
layerId = "6C3B4F89-AC86-48DF-BE99-AFD9A4DA4FE2";
paths = (
{
closed = 1;
nodes = (
"439 0 OFFCURVE",
"506 35 OFFCURVE",
"506 175 CURVE SMOOTH",
"506 286 LINE SMOOTH",
"506 426 OFFCURVE",
"439 461 OFFCURVE",
"299 461 CURVE SMOOTH",
"270 461 LINE SMOOTH",
"129 461 OFFCURVE",
"62 426 OFFCURVE",
"62 286 CURVE SMOOTH",
"62 175 LINE SMOOTH",
"62 35 OFFCURVE",
"129 0 OFFCURVE",
"270 0 CURVE SMOOTH",
"299 0 LINE SMOOTH"
);
},
{
closed = 1;
nodes = (
"206 42 OFFCURVE",
"177 45 OFFCURVE",
"146 63 CURVE SMOOTH",
"115 81 OFFCURVE",
"104 115 OFFCURVE",
"104 175 CURVE SMOOTH",
"104 286 LINE SMOOTH",
"104 346 OFFCURVE",
"115 381 OFFCURVE",
"146 399 CURVE SMOOTH",
"177 417 OFFCURVE",
"206 419 OFFCURVE",
"270 419 CURVE SMOOTH",
"299 419 LINE SMOOTH",
"362 419 OFFCURVE",
"391 417 OFFCURVE",
"422 399 CURVE SMOOTH",
"453 381 OFFCURVE",
"464 346 OFFCURVE",
"464 286 CURVE SMOOTH",
"464 175 LINE SMOOTH",
"464 115 OFFCURVE",
"453 81 OFFCURVE",
"422 63 CURVE SMOOTH",
"391 45 OFFCURVE",
"362 42 OFFCURVE",
"299 42 CURVE SMOOTH",
"270 42 LINE SMOOTH"
);
}
);
width = 568;
}
);
leftKerningGroup = c;
note = o;
rightKerningGroup = b;
unicode = 006F;
},
{
glyphname = p;
lastChange = "2016-07-31 02:06:19 +0000";
layers = (
{
layerId = "6C3B4F89-AC86-48DF-BE99-AFD9A4DA4FE2";
paths = (
{
closed = 1;
nodes = (
"477 115 OFFCURVE",
"466 81 OFFCURVE",
"435 63 CURVE SMOOTH",
"404 45 OFFCURVE",
"375 42 OFFCURVE",
"312 42 CURVE SMOOTH",
"117 42 LINE",
"117 232 LINE SMOOTH",
"117 352 OFFCURVE",
"176 419 OFFCURVE",
"283 419 CURVE SMOOTH",
"312 419 LINE SMOOTH",
"375 419 OFFCURVE",
"404 417 OFFCURVE",
"435 399 CURVE SMOOTH",
"466 381 OFFCURVE",
"477 346 OFFCURVE",
"477 286 CURVE SMOOTH",
"477 175 LINE SMOOTH"
);
},
{
closed = 1;
nodes = (
"519 426 OFFCURVE",
"452 461 OFFCURVE",
"312 461 CURVE SMOOTH",
"283 461 LINE SMOOTH",
"210 461 OFFCURVE",
"154 437 OFFCURVE",
"117 389 CURVE",
"117 438 LINE SMOOTH",
"117 458 OFFCURVE",
"110 468 OFFCURVE",
"96 468 CURVE SMOOTH",
"82 468 OFFCURVE",
"75 458 OFFCURVE",
"75 438 CURVE SMOOTH",
"75 -152 LINE SMOOTH",
"75 -172 OFFCURVE",
"81 -182 OFFCURVE",
"94 -182 CURVE SMOOTH",
"109 -182 OFFCURVE",
"117 -172 OFFCURVE",
"117 -152 CURVE SMOOTH",
"117 0 LINE",
"312 0 LINE SMOOTH",
"452 0 OFFCURVE",
"519 35 OFFCURVE",
"519 175 CURVE SMOOTH",
"519 286 LINE SMOOTH"
);
}
);
width = 581;
}
);
leftKerningGroup = m;
note = p;
rightKerningGroup = b;
unicode = 0070;
},
{
glyphname = q;
lastChange = "2016-07-31 02:06:19 +0000";
layers = (
{
layerId = "6C3B4F89-AC86-48DF-BE99-AFD9A4DA4FE2";
paths = (
{
closed = 1;
nodes = (
"104 346 OFFCURVE",
"115 381 OFFCURVE",
"146 399 CURVE SMOOTH",
"177 417 OFFCURVE",
"206 419 OFFCURVE",
"270 419 CURVE SMOOTH",
"299 419 LINE SMOOTH",
"404 419 OFFCURVE",
"464 352 OFFCURVE",
"464 232 CURVE SMOOTH",
"464 42 LINE",
"270 42 LINE SMOOTH",
"206 42 OFFCURVE",
"177 45 OFFCURVE",
"146 63 CURVE SMOOTH",
"115 81 OFFCURVE",
"104 115 OFFCURVE",
"104 175 CURVE SMOOTH",
"104 286 LINE SMOOTH"
);
},
{
closed = 1;
nodes = (
"62 35 OFFCURVE",
"129 0 OFFCURVE",
"270 0 CURVE SMOOTH",
"464 0 LINE",
"464 -152 LINE SMOOTH",
"464 -172 OFFCURVE",
"472 -182 OFFCURVE",
"487 -182 CURVE SMOOTH",
"500 -182 OFFCURVE",
"506 -172 OFFCURVE",
"506 -152 CURVE SMOOTH",
"506 438 LINE SMOOTH",
"506 458 OFFCURVE",
"499 468 OFFCURVE",
"485 468 CURVE SMOOTH",
"471 468 OFFCURVE",
"464 458 OFFCURVE",
"464 438 CURVE SMOOTH",
"464 389 LINE",
"428 437 OFFCURVE",
"373 461 OFFCURVE",
"299 461 CURVE SMOOTH",
"270 461 LINE SMOOTH",
"129 461 OFFCURVE",
"62 426 OFFCURVE",
"62 286 CURVE SMOOTH",
"62 175 LINE SMOOTH"
);
}
);
width = 581;
}
);
leftKerningGroup = c;
note = q;
rightKerningGroup = g;
unicode = 0071;
},
{
glyphname = r;
lastChange = "2016-07-31 02:06:19 +0000";
layers = (
{
layerId = "6C3B4F89-AC86-48DF-BE99-AFD9A4DA4FE2";
paths = (
{
closed = 1;
nodes = (
"348 419 OFFCURVE",
"358 426 OFFCURVE",
"358 440 CURVE SMOOTH",
"358 454 OFFCURVE",
"348 461 OFFCURVE",
"328 461 CURVE SMOOTH",
"282 461 LINE SMOOTH",
"209 461 OFFCURVE",
"153 437 OFFCURVE",
"116 389 CURVE",
"116 437 LINE SMOOTH",
"116 458 OFFCURVE",
"108 468 OFFCURVE",
"93 468 CURVE SMOOTH",
"80 468 OFFCURVE",
"74 458 OFFCURVE",
"74 437 CURVE SMOOTH",
"74 23 LINE SMOOTH",
"74 3 OFFCURVE",
"81 -7 OFFCURVE",
"95 -7 CURVE SMOOTH",
"109 -7 OFFCURVE",
"116 3 OFFCURVE",
"116 23 CURVE SMOOTH",
"116 232 LINE SMOOTH",
"116 352 OFFCURVE",
"175 419 OFFCURVE",
"282 419 CURVE SMOOTH",
"328 419 LINE SMOOTH"
);
}
);
width = 372;
}
);
leftKerningGroup = m;
note = r;
rightKerningGroup = r;
unicode = 0072;
},
{
glyphname = s;
lastChange = "2016-07-31 02:06:19 +0000";
layers = (
{
layerId = "6C3B4F89-AC86-48DF-BE99-AFD9A4DA4FE2";
paths = (
{
closed = 1;
nodes = (
"465 0 OFFCURVE",
"506 41 OFFCURVE",
"506 123 CURVE SMOOTH",
"506 212 OFFCURVE",
"465 257 OFFCURVE",
"383 257 CURVE SMOOTH",
"166 257 LINE SMOOTH",
"129 257 OFFCURVE",
"102 288 OFFCURVE",
"102 343 CURVE SMOOTH",
"102 394 OFFCURVE",
"123 419 OFFCURVE",
"166 419 CURVE SMOOTH",
"402 419 LINE SMOOTH",
"447 419 OFFCURVE",
"462 399 OFFCURVE",
"462 356 CURVE SMOOTH",
"462 335 OFFCURVE",
"469 324 OFFCURVE",
"483 324 CURVE SMOOTH",
"497 324 OFFCURVE",
"504 336 OFFCURVE",
"504 360 CURVE SMOOTH",
"504 408 OFFCURVE",
"493 461 OFFCURVE",
"413 461 CURVE SMOOTH",
"412 461 OFFCURVE",
"410 461 OFFCURVE",
"409 461 CURVE SMOOTH",
"184 461 LINE SMOOTH",
"95 461 OFFCURVE",
"60 420 OFFCURVE",
"60 343 CURVE SMOOTH",
"60 258 OFFCURVE",
"101 215 OFFCURVE",
"184 215 CURVE SMOOTH",
"400 215 LINE SMOOTH",
"437 215 OFFCURVE",
"464 179 OFFCURVE",
"464 123 CURVE SMOOTH",
"464 69 OFFCURVE",
"443 42 OFFCURVE",
"400 42 CURVE SMOOTH",
"162 42 LINE SMOOTH",
"117 42 OFFCURVE",
"102 61 OFFCURVE",
"102 105 CURVE SMOOTH",
"102 126 OFFCURVE",
"95 137 OFFCURVE",
"81 137 CURVE SMOOTH",
"67 137 OFFCURVE",
"60 125 OFFCURVE",
"60 101 CURVE SMOOTH",
"60 52 OFFCURVE",
"71 0 OFFCURVE",
"155 0 CURVE SMOOTH",
"383 0 LINE SMOOTH"
);
}
);
width = 566;
}
);
leftKerningGroup = s;
note = s;
rightKerningGroup = s;
unicode = 0073;
},
{
glyphname = t;
lastChange = "2016-07-31 02:06:19 +0000";
layers = (
{
layerId = "6C3B4F89-AC86-48DF-BE99-AFD9A4DA4FE2";
paths = (
{
closed = 1;
nodes = (
"262 419 LINE SMOOTH",
"283 419 OFFCURVE",
"293 425 OFFCURVE",
"293 438 CURVE SMOOTH",
"293 453 OFFCURVE",
"283 461 OFFCURVE",
"262 461 CURVE SMOOTH",
"119 461 LINE",
"119 570 LINE SMOOTH",
"119 591 OFFCURVE",
"111 601 OFFCURVE",
"96 601 CURVE SMOOTH",
"83 601 OFFCURVE",
"77 591 OFFCURVE",
"77 570 CURVE SMOOTH",
"77 461 LINE",
"56 461 OFFCURVE",
"46 454 OFFCURVE",
"46 440 CURVE SMOOTH",
"46 426 OFFCURVE",
"56 419 OFFCURVE",
"77 419 CURVE",
"77 254 OFFCURVE",
"77 171 OFFCURVE",
"77 171 CURVE",
"77 30 OFFCURVE",
"150 0 OFFCURVE",
"285 0 CURVE SMOOTH",
"305 0 OFFCURVE",
"315 8 OFFCURVE",
"315 23 CURVE SMOOTH",
"315 36 OFFCURVE",
"305 42 OFFCURVE",
"285 42 CURVE SMOOTH",
"221 42 OFFCURVE",
"192 45 OFFCURVE",
"161 63 CURVE SMOOTH",
"130 81 OFFCURVE",
"119 115 OFFCURVE",
"119 175 CURVE SMOOTH",
"119 419 LINE"
);
}
);
width = 330;
}
);
leftKerningGroup = t;
note = t;
rightKerningGroup = t;
unicode = 0074;
},
{
glyphname = u;
lastChange = "2016-07-31 02:06:19 +0000";
layers = (
{
layerId = "6C3B4F89-AC86-48DF-BE99-AFD9A4DA4FE2";
paths = (
{
closed = 1;
nodes = (
"214 42 OFFCURVE",
"185 45 OFFCURVE",
"154 63 CURVE SMOOTH",
"123 81 OFFCURVE",
"112 115 OFFCURVE",
"112 175 CURVE SMOOTH",
"112 438 LINE SMOOTH",
"112 458 OFFCURVE",
"105 468 OFFCURVE",
"91 468 CURVE SMOOTH",
"77 468 OFFCURVE",
"70 458 OFFCURVE",
"70 438 CURVE SMOOTH",
"70 175 LINE SMOOTH",
"70 35 OFFCURVE",
"137 0 OFFCURVE",
"278 0 CURVE SMOOTH",
"307 0 LINE SMOOTH",
"381 0 OFFCURVE",
"436 24 OFFCURVE",
"472 72 CURVE",
"472 24 LINE SMOOTH",
"472 3 OFFCURVE",
"480 -7 OFFCURVE",
"495 -7 CURVE SMOOTH",
"508 -7 OFFCURVE",
"514 3 OFFCURVE",
"514 24 CURVE SMOOTH",
"514 438 LINE SMOOTH",
"514 458 OFFCURVE",
"507 468 OFFCURVE",
"493 468 CURVE SMOOTH",
"479 468 OFFCURVE",
"472 458 OFFCURVE",
"472 438 CURVE SMOOTH",
"472 228 LINE SMOOTH",
"472 108 OFFCURVE",
"412 42 OFFCURVE",
"307 42 CURVE SMOOTH",
"278 42 LINE SMOOTH"
);
}
);
width = 588;
}
);
leftKerningGroup = u;
note = u;
rightKerningGroup = g;
unicode = 0075;
},
{
glyphname = v;
lastChange = "2016-07-31 02:06:19 +0000";
layers = (
{
layerId = "6C3B4F89-AC86-48DF-BE99-AFD9A4DA4FE2";
paths = (
{
closed = 1;
nodes = (
"28 444 OFFCURVE",
"29 440 OFFCURVE",
"31 439 CURVE",
"212 0 LINE",
"276 0 LINE",
"469 439 LINE",
"471 441 OFFCURVE",
"472 445 OFFCURVE",
"472 450 CURVE SMOOTH",
"472 462 OFFCURVE",
"466 468 OFFCURVE",
"453 468 CURVE SMOOTH",
"444 468 OFFCURVE",
"436 462 OFFCURVE",
"430 450 CURVE",
"250 46 LINE",
"243 46 LINE",
"70 449 LINE",
"65 462 OFFCURVE",
"58 468 OFFCURVE",
"50 468 CURVE SMOOTH",
"35 468 OFFCURVE",
"28 462 OFFCURVE",
"28 449 CURVE SMOOTH"
);
}
);
width = 499;
}
);
leftKerningGroup = v;
note = v;
rightKerningGroup = v;
unicode = 0076;
},
{
glyphname = w;
lastChange = "2016-07-31 02:06:19 +0000";
layers = (
{
layerId = "6C3B4F89-AC86-48DF-BE99-AFD9A4DA4FE2";
paths = (
{
closed = 1;
nodes = (
"405 461 OFFCURVE",
"397 467 OFFCURVE",
"385 467 CURVE SMOOTH",
"373 467 OFFCURVE",
"366 461 OFFCURVE",
"364 450 CURVE",
"220 46 LINE",
"214 46 LINE",
"75 449 LINE",
"70 462 OFFCURVE",
"65 468 OFFCURVE",
"58 468 CURVE SMOOTH",
"49 468 OFFCURVE",
"31 459 OFFCURVE",
"31 448 CURVE SMOOTH",
"31 443 OFFCURVE",
"32 440 OFFCURVE",
"34 439 CURVE",
"179 0 LINE",
"250 0 LINE",
"386 384 LINE",
"512 0 LINE",
"583 0 LINE",
"738 439 LINE",
"741 442 OFFCURVE",
"742 446 OFFCURVE",
"742 451 CURVE SMOOTH",
"742 460 OFFCURVE",
"725 468 OFFCURVE",
"714 468 CURVE SMOOTH",
"707 468 OFFCURVE",
"701 462 OFFCURVE",
"697 450 CURVE SMOOTH",
"552 46 LINE",
"546 46 LINE",
"408 450 LINE"
);
}
);
width = 771;
}
);
leftKerningGroup = w;
note = w;
rightKerningGroup = w;
unicode = 0077;
},
{
glyphname = x;
lastChange = "2016-07-31 02:06:19 +0000";
layers = (
{
layerId = "6C3B4F89-AC86-48DF-BE99-AFD9A4DA4FE2";
paths = (
{
closed = 1;
nodes = (
"441 433 LINE SMOOTH",
"447 440 OFFCURVE",
"450 447 OFFCURVE",
"450 452 CURVE SMOOTH",
"450 463 OFFCURVE",
"439 472 OFFCURVE",
"428 472 CURVE SMOOTH",
"423 472 OFFCURVE",
"417 468 OFFCURVE",
"410 460 CURVE SMOOTH",
"245 263 LINE",
"79 460 LINE SMOOTH",
"72 468 OFFCURVE",
"65 472 OFFCURVE",
"60 472 CURVE SMOOTH",
"49 472 OFFCURVE",
"38 463 OFFCURVE",
"38 452 CURVE SMOOTH",
"38 447 OFFCURVE",
"41 440 OFFCURVE",
"47 433 CURVE SMOOTH",
"217 230 LINE",
"47 29 LINE",
"41 20 OFFCURVE",
"38 13 OFFCURVE",
"38 8 CURVE SMOOTH",
"38 -3 OFFCURVE",
"48 -11 OFFCURVE",
"60 -11 CURVE SMOOTH",
"66 -11 OFFCURVE",
"72 -7 OFFCURVE",
"79 1 CURVE SMOOTH",
"245 198 LINE",
"410 1 LINE",
"417 -8 OFFCURVE",
"423 -12 OFFCURVE",
"428 -12 CURVE SMOOTH",
"429 -12 OFFCURVE",
"429 -12 OFFCURVE",
"429 -12 CURVE",
"440 -12 OFFCURVE",
"450 -3 OFFCURVE",
"450 8 CURVE SMOOTH",
"450 13 OFFCURVE",
"447 20 OFFCURVE",
"441 29 CURVE",
"271 230 LINE"
);
}
);
width = 488;
}
);
leftKerningGroup = x;
note = x;
rightKerningGroup = x;
unicode = 0078;
},
{
glyphname = y;
lastChange = "2016-07-31 02:06:19 +0000";
layers = (
{
layerId = "6C3B4F89-AC86-48DF-BE99-AFD9A4DA4FE2";
paths = (
{
closed = 1;
nodes = (
"514 457 OFFCURVE",
"507 468 OFFCURVE",
"493 468 CURVE SMOOTH",
"479 468 OFFCURVE",
"472 457 OFFCURVE",
"472 436 CURVE SMOOTH",
"472 228 LINE SMOOTH",
"472 108 OFFCURVE",
"412 42 OFFCURVE",
"307 42 CURVE SMOOTH",
"278 42 LINE SMOOTH",
"214 42 OFFCURVE",
"185 45 OFFCURVE",
"154 63 CURVE SMOOTH",
"123 81 OFFCURVE",
"112 115 OFFCURVE",
"112 175 CURVE SMOOTH",
"112 436 LINE SMOOTH",
"112 457 OFFCURVE",
"105 468 OFFCURVE",
"91 468 CURVE SMOOTH",
"77 468 OFFCURVE",
"70 457 OFFCURVE",
"70 436 CURVE SMOOTH",
"70 175 LINE SMOOTH",
"70 35 OFFCURVE",
"137 0 OFFCURVE",
"278 0 CURVE SMOOTH",
"307 0 LINE SMOOTH",
"381 0 OFFCURVE",
"436 24 OFFCURVE",
"472 72 CURVE",
"472 -108 LINE SMOOTH",
"472 -151 OFFCURVE",
"462 -163 OFFCURVE",
"421 -163 CURVE SMOOTH",
"172 -163 LINE SMOOTH",
"127 -163 OFFCURVE",
"112 -143 OFFCURVE",
"112 -100 CURVE SMOOTH",
"112 -79 OFFCURVE",
"105 -68 OFFCURVE",
"91 -68 CURVE SMOOTH",
"77 -68 OFFCURVE",
"70 -80 OFFCURVE",
"70 -104 CURVE SMOOTH",
"70 -152 OFFCURVE",
"81 -205 OFFCURVE",
"161 -205 CURVE SMOOTH",
"162 -205 OFFCURVE",
"164 -205 OFFCURVE",
"165 -205 CURVE SMOOTH",
"428 -205 LINE SMOOTH",
"495 -205 OFFCURVE",
"514 -177 OFFCURVE",
"514 -92 CURVE SMOOTH",
"514 436 LINE SMOOTH"
);
}
);
width = 589;
}
);
leftKerningGroup = u;
note = y;
rightKerningGroup = g;
unicode = 0079;
},
{
glyphname = z;
lastChange = "2016-07-31 02:06:19 +0000";
layers = (
{
layerId = "6C3B4F89-AC86-48DF-BE99-AFD9A4DA4FE2";
paths = (
{
closed = 1;
nodes = (
"459 461 LINE",
"153 461 LINE SMOOTH",
"80 461 OFFCURVE",
"58 430 OFFCURVE",
"58 337 CURVE SMOOTH",
"58 316 OFFCURVE",
"65 306 OFFCURVE",
"79 306 CURVE SMOOTH",
"93 306 OFFCURVE",
"100 318 OFFCURVE",
"100 342 CURVE SMOOTH",
"100 390 OFFCURVE",
"108 419 OFFCURVE",
"160 419 CURVE SMOOTH",
"412 419 LINE",
"58 59 LINE",
"58 0 LINE",
"385 0 LINE SMOOTH",
"457 0 OFFCURVE",
"480 31 OFFCURVE",
"480 124 CURVE SMOOTH",
"480 145 OFFCURVE",
"473 156 OFFCURVE",
"459 156 CURVE SMOOTH",
"458 156 LINE SMOOTH",
"445 156 OFFCURVE",
"438 146 OFFCURVE",
"438 126 CURVE SMOOTH",
"438 106 OFFCURVE",
"437 91 OFFCURVE",
"436 82 CURVE",
"432 62 OFFCURVE",
"414 42 OFFCURVE",
"377 42 CURVE SMOOTH",
"108 42 LINE",
"459 399 LINE"
);
}
);
width = 530;
}
);
leftKerningGroup = z;
note = z;
rightKerningGroup = z;
unicode = 007A;
},
{
glyphname = braceleft;
lastChange = "2016-07-31 02:06:19 +0000";
layers = (
{
layerId = "6C3B4F89-AC86-48DF-BE99-AFD9A4DA4FE2";
paths = (
{
closed = 1;
nodes = (
"120 343 OFFCURVE",
"152 374 OFFCURVE",
"152 403 CURVE SMOOTH",
"152 418 OFFCURVE",
"147 440 OFFCURVE",
"138 471 CURVE SMOOTH",
"129 501 OFFCURVE",
"124 520 OFFCURVE",
"124 528 CURVE SMOOTH",
"124 619 OFFCURVE",
"133 636 OFFCURVE",
"202 636 CURVE",
"202 678 LINE",
"114 678 OFFCURVE",
"82 647 OFFCURVE",
"82 528 CURVE SMOOTH",
"82 516 OFFCURVE",
"87 495 OFFCURVE",
"96 465 CURVE SMOOTH",
"105 434 OFFCURVE",
"110 413 OFFCURVE",
"110 400 CURVE SMOOTH",
"110 375 OFFCURVE",
"69 333 OFFCURVE",
"34 317 CURVE",
"53 306 LINE",
"78 293 OFFCURVE",
"110 261 OFFCURVE",
"110 236 CURVE SMOOTH",
"110 223 OFFCURVE",
"105 202 OFFCURVE",
"96 172 CURVE SMOOTH",
"87 141 OFFCURVE",
"82 120 OFFCURVE",
"82 108 CURVE SMOOTH",
"82 -11 OFFCURVE",
"114 -42 OFFCURVE",
"202 -42 CURVE",
"202 0 LINE",
"133 0 OFFCURVE",
"124 16 OFFCURVE",
"124 108 CURVE SMOOTH",
"124 116 OFFCURVE",
"129 135 OFFCURVE",
"138 165 CURVE SMOOTH",
"147 195 OFFCURVE",
"152 218 OFFCURVE",
"152 233 CURVE SMOOTH",
"152 263 OFFCURVE",
"112 301 OFFCURVE",
"76 317 CURVE",
"95 328 LINE SMOOTH"
);
}
);
width = 250;
}
);
note = braceleft;
rightKerningGroup = braceleft;
unicode = 007B;
},
{
glyphname = bar;
lastChange = "2016-07-31 02:06:19 +0000";
layers = (
{
layerId = "6C3B4F89-AC86-48DF-BE99-AFD9A4DA4FE2";
paths = (
{
closed = 1;
nodes = (
"123 634 OFFCURVE",
"116 643 OFFCURVE",
"102 643 CURVE SMOOTH",
"88 643 OFFCURVE",
"81 634 OFFCURVE",
"81 615 CURVE SMOOTH",
"81 20 LINE SMOOTH",
"81 2 OFFCURVE",
"88 -7 OFFCURVE",
"102 -7 CURVE SMOOTH",
"116 -7 OFFCURVE",
"123 2 OFFCURVE",
"123 20 CURVE SMOOTH",
"123 615 LINE SMOOTH"
);
}
);
width = 204;
}
);
note = bar;
rightKerningGroup = numbersign;
unicode = 007C;
},
{
glyphname = braceright;
lastChange = "2016-07-31 02:06:19 +0000";
layers = (
{
layerId = "6C3B4F89-AC86-48DF-BE99-AFD9A4DA4FE2";
paths = (
{
closed = 1;
nodes = (
"130 292 OFFCURVE",
"98 263 OFFCURVE",
"98 233 CURVE SMOOTH",
"98 218 OFFCURVE",
"103 195 OFFCURVE",
"112 165 CURVE SMOOTH",
"121 135 OFFCURVE",
"126 116 OFFCURVE",
"126 108 CURVE SMOOTH",
"126 16 OFFCURVE",
"117 0 OFFCURVE",
"48 0 CURVE",
"48 -42 LINE",
"136 -42 OFFCURVE",
"168 -11 OFFCURVE",
"168 108 CURVE SMOOTH",
"168 120 OFFCURVE",
"163 141 OFFCURVE",
"154 172 CURVE SMOOTH",
"145 202 OFFCURVE",
"140 223 OFFCURVE",
"140 236 CURVE SMOOTH",
"140 261 OFFCURVE",
"181 303 OFFCURVE",
"216 318 CURVE",
"197 329 LINE SMOOTH",
"172 344 OFFCURVE",
"140 375 OFFCURVE",
"140 400 CURVE SMOOTH",
"140 413 OFFCURVE",
"145 434 OFFCURVE",
"154 465 CURVE SMOOTH",
"163 495 OFFCURVE",
"168 516 OFFCURVE",
"168 528 CURVE SMOOTH",
"168 647 OFFCURVE",
"136 678 OFFCURVE",
"48 678 CURVE",
"48 636 LINE",
"117 636 OFFCURVE",
"126 619 OFFCURVE",
"126 528 CURVE SMOOTH",
"126 520 OFFCURVE",
"121 501 OFFCURVE",
"112 471 CURVE SMOOTH",
"103 440 OFFCURVE",
"98 418 OFFCURVE",
"98 403 CURVE SMOOTH",
"98 374 OFFCURVE",
"139 333 OFFCURVE",
"174 318 CURVE",
"155 307 LINE SMOOTH"
);
}
);
width = 251;
}
);
leftKerningGroup = braceright;
note = braceright;
rightKerningGroup = numbersign;
unicode = 007D;
},
{
glyphname = asciitilde;
lastChange = "2016-07-31 02:06:19 +0000";
layers = (
{
layerId = "6C3B4F89-AC86-48DF-BE99-AFD9A4DA4FE2";
paths = (
{
closed = 1;
nodes = (
"153 268 OFFCURVE",
"148 269 OFFCURVE",
"144 269 CURVE SMOOTH",
"140 269 OFFCURVE",
"136 267 OFFCURVE",
"132 262 CURVE",
"85 223 LINE",
"77 218 OFFCURVE",
"73 212 OFFCURVE",
"73 205 CURVE SMOOTH",
"73 192 OFFCURVE",
"83 182 OFFCURVE",
"94 182 CURVE SMOOTH",
"99 182 OFFCURVE",
"105 185 OFFCURVE",
"112 190 CURVE",
"143 218 LINE",
"148 221 OFFCURVE",
"151 223 OFFCURVE",
"154 223 CURVE SMOOTH",
"157 223 OFFCURVE",
"159 222 OFFCURVE",
"162 221 CURVE SMOOTH",
"260 185 LINE",
"264 184 OFFCURVE",
"268 183 OFFCURVE",
"272 183 CURVE SMOOTH",
"276 183 OFFCURVE",
"281 185 OFFCURVE",
"286 190 CURVE",
"333 229 LINE SMOOTH",
"341 236 OFFCURVE",
"345 243 OFFCURVE",
"345 250 CURVE SMOOTH",
"345 263 OFFCURVE",
"335 270 OFFCURVE",
"324 270 CURVE SMOOTH",
"319 270 OFFCURVE",
"312 267 OFFCURVE",
"305 262 CURVE",
"274 234 LINE",
"270 231 OFFCURVE",
"267 229 OFFCURVE",
"264 229 CURVE SMOOTH",
"261 229 OFFCURVE",
"259 230 OFFCURVE",
"256 231 CURVE SMOOTH",
"158 267 LINE"
);
}
);
width = 418;
}
);
note = asciitilde;
rightKerningGroup = numbersign;
unicode = 007E;
},
{
glyphname = exclamdown;
lastChange = "2016-07-31 02:06:19 +0000";
layers = (
{
layerId = "6C3B4F89-AC86-48DF-BE99-AFD9A4DA4FE2";
paths = (
{
closed = 1;
nodes = (
"130 301 OFFCURVE",
"123 310 OFFCURVE",
"109 310 CURVE SMOOTH",
"95 310 OFFCURVE",
"88 301 OFFCURVE",
"88 282 CURVE SMOOTH",
"88 -138 LINE SMOOTH",
"88 -156 OFFCURVE",
"95 -165 OFFCURVE",
"109 -165 CURVE SMOOTH",
"123 -165 OFFCURVE",
"130 -156 OFFCURVE",
"130 -138 CURVE SMOOTH",
"130 282 LINE SMOOTH"
);
},
{
closed = 1;
nodes = (
"87 418 OFFCURVE",
"97 414 OFFCURVE",
"108 414 CURVE SMOOTH",
"129 414 OFFCURVE",
"155 431 OFFCURVE",
"155 450 CURVE SMOOTH",
"155 469 OFFCURVE",
"129 486 OFFCURVE",
"108 486 CURVE SMOOTH",
"87 486 OFFCURVE",
"62 469 OFFCURVE",
"62 450 CURVE SMOOTH",
"62 441 OFFCURVE",
"67 432 OFFCURVE",
"77 425 CURVE SMOOTH"
);
}
);
width = 218;
}
);
note = exclamdown;
rightKerningGroup = exclamdown;
unicode = 00A1;
},
{
glyphname = cent;
lastChange = "2016-07-31 02:06:19 +0000";
layers = (
{
layerId = "6C3B4F89-AC86-48DF-BE99-AFD9A4DA4FE2";
paths = (
{
closed = 1;
nodes = (
"316 123 LINE SMOOTH",
"399 123 OFFCURVE",
"412 171 OFFCURVE",
"412 234 CURVE SMOOTH",
"412 251 OFFCURVE",
"405 260 OFFCURVE",
"391 260 CURVE SMOOTH",
"377 260 OFFCURVE",
"370 249 OFFCURVE",
"370 228 CURVE SMOOTH",
"370 184 OFFCURVE",
"354 165 OFFCURVE",
"309 165 CURVE SMOOTH",
"261 165 LINE",
"261 473 LINE",
"311 473 LINE SMOOTH",
"356 473 OFFCURVE",
"372 454 OFFCURVE",
"372 411 CURVE SMOOTH",
"372 389 OFFCURVE",
"379 378 OFFCURVE",
"393 378 CURVE SMOOTH",
"407 378 OFFCURVE",
"414 388 OFFCURVE",
"414 409 CURVE SMOOTH",
"414 473 OFFCURVE",
"395 515 OFFCURVE",
"318 515 CURVE SMOOTH",
"261 515 LINE",
"261 615 LINE SMOOTH",
"261 634 OFFCURVE",
"254 643 OFFCURVE",
"240 643 CURVE SMOOTH",
"226 643 OFFCURVE",
"219 634 OFFCURVE",
"219 615 CURVE SMOOTH",
"219 514 LINE",
"107 509 OFFCURVE",
"50 467 OFFCURVE",
"50 340 CURVE SMOOTH",
"50 298 LINE SMOOTH",
"50 170 OFFCURVE",
"106 129 OFFCURVE",
"219 124 CURVE",
"219 20 LINE SMOOTH",
"219 2 OFFCURVE",
"226 -7 OFFCURVE",
"240 -7 CURVE SMOOTH",
"254 -7 OFFCURVE",
"261 2 OFFCURVE",
"261 20 CURVE SMOOTH",
"261 123 LINE"
);
},
{
closed = 1;
nodes = (
"126 169 OFFCURVE",
"92 195 OFFCURVE",
"92 298 CURVE SMOOTH",
"92 340 LINE SMOOTH",
"92 440 OFFCURVE",
"128 469 OFFCURVE",
"219 472 CURVE",
"219 166 LINE"
);
}
);
width = 471;
}
);
note = cent;
rightKerningGroup = numbersign;
unicode = 00A2;
},
{
glyphname = sterling;
lastChange = "2016-07-31 02:06:19 +0000";
layers = (
{
layerId = "6C3B4F89-AC86-48DF-BE99-AFD9A4DA4FE2";
paths = (
{
closed = 1;
nodes = (
"424 0 OFFCURVE",
"433 7 OFFCURVE",
"433 21 CURVE SMOOTH",
"433 35 OFFCURVE",
"424 42 OFFCURVE",
"405 42 CURVE SMOOTH",
"109 42 LINE",
"133 322 LINE",
"176 322 LINE SMOOTH",
"194 322 OFFCURVE",
"203 329 OFFCURVE",
"203 343 CURVE SMOOTH",
"203 357 OFFCURVE",
"194 364 OFFCURVE",
"176 364 CURVE SMOOTH",
"137 364 LINE",
"146 468 LINE SMOOTH",
"155 579 OFFCURVE",
"201 601 OFFCURVE",
"274 601 CURVE SMOOTH",
"347 601 OFFCURVE",
"389 592 OFFCURVE",
"389 504 CURVE SMOOTH",
"389 483 OFFCURVE",
"396 473 OFFCURVE",
"410 473 CURVE SMOOTH",
"424 473 OFFCURVE",
"431 482 OFFCURVE",
"431 501 CURVE SMOOTH",
"431 612 OFFCURVE",
"375 643 OFFCURVE",
"284 643 CURVE SMOOTH",
"192 643 OFFCURVE",
"117 616 OFFCURVE",
"104 468 CURVE SMOOTH",
"66 31 LINE",
"65 29 OFFCURVE",
"65 26 OFFCURVE",
"65 23 CURVE SMOOTH",
"65 8 OFFCURVE",
"71 0 OFFCURVE",
"82 0 CURVE SMOOTH",
"405 0 LINE SMOOTH"
);
}
);
width = 491;
}
);
note = sterling;
rightKerningGroup = numbersign;
unicode = 00A3;
},
{
glyphname = currency;
lastChange = "2016-07-31 02:06:19 +0000";
layers = (
{
layerId = "6C3B4F89-AC86-48DF-BE99-AFD9A4DA4FE2";
paths = (
{
closed = 1;
nodes = (
"307 340 OFFCURVE",
"356 291 OFFCURVE",
"356 231 CURVE SMOOTH",
"356 170 OFFCURVE",
"307 121 OFFCURVE",
"247 121 CURVE SMOOTH",
"186 121 OFFCURVE",
"137 170 OFFCURVE",
"137 231 CURVE SMOOTH",
"137 291 OFFCURVE",
"186 340 OFFCURVE",
"247 340 CURVE SMOOTH"
);
},
{
closed = 1;
nodes = (
"76 90 OFFCURVE",
"72 83 OFFCURVE",
"72 77 CURVE SMOOTH",
"72 64 OFFCURVE",
"82 56 OFFCURVE",
"94 56 CURVE SMOOTH",
"99 56 OFFCURVE",
"105 60 OFFCURVE",
"112 68 CURVE",
"161 116 LINE",
"186 97 OFFCURVE",
"214 87 OFFCURVE",
"247 87 CURVE SMOOTH",
"279 87 OFFCURVE",
"307 97 OFFCURVE",
"332 116 CURVE",
"380 68 LINE",
"387 60 OFFCURVE",
"393 56 OFFCURVE",
"399 56 CURVE SMOOTH",
"410 56 OFFCURVE",
"421 67 OFFCURVE",
"421 79 CURVE SMOOTH",
"421 84 OFFCURVE",
"417 90 OFFCURVE",
"409 97 CURVE",
"361 145 LINE",
"380 170 OFFCURVE",
"390 198 OFFCURVE",
"390 231 CURVE SMOOTH",
"390 264 OFFCURVE",
"380 292 OFFCURVE",
"361 315 CURVE",
"409 364 LINE",
"417 371 OFFCURVE",
"421 378 OFFCURVE",
"421 384 CURVE SMOOTH",
"421 396 OFFCURVE",
"410 404 OFFCURVE",
"399 404 CURVE SMOOTH",
"394 404 OFFCURVE",
"387 400 OFFCURVE",
"380 393 CURVE SMOOTH",
"332 345 LINE",
"307 364 OFFCURVE",
"279 374 OFFCURVE",
"247 374 CURVE SMOOTH",
"214 374 OFFCURVE",
"186 364 OFFCURVE",
"161 345 CURVE",
"112 393 LINE SMOOTH",
"105 400 OFFCURVE",
"98 404 OFFCURVE",
"93 404 CURVE SMOOTH",
"82 404 OFFCURVE",
"72 394 OFFCURVE",
"72 383 CURVE SMOOTH",
"72 378 OFFCURVE",
"76 371 OFFCURVE",
"83 364 CURVE SMOOTH",
"131 315 LINE",
"112 291 OFFCURVE",
"103 263 OFFCURVE",
"103 231 CURVE SMOOTH",
"103 198 OFFCURVE",
"112 170 OFFCURVE",
"131 145 CURVE",
"83 97 LINE SMOOTH"
);
}
);
width = 493;
}
);
note = currency;
rightKerningGroup = numbersign;
unicode = 00A4;
},
{
glyphname = yen;
lastChange = "2016-07-31 02:06:19 +0000";
layers = (
{
layerId = "6C3B4F89-AC86-48DF-BE99-AFD9A4DA4FE2";
paths = (
{
closed = 1;
nodes = (
"140 272 LINE SMOOTH",
"122 272 OFFCURVE",
"113 265 OFFCURVE",
"113 252 CURVE SMOOTH",
"113 237 OFFCURVE",
"122 229 OFFCURVE",
"140 229 CURVE SMOOTH",
"245 229 LINE",
"245 183 LINE",
"140 183 LINE SMOOTH",
"122 183 OFFCURVE",
"113 176 OFFCURVE",
"113 163 CURVE SMOOTH",
"113 148 OFFCURVE",
"122 140 OFFCURVE",
"140 140 CURVE SMOOTH",
"245 140 LINE",
"245 20 LINE",
"246 2 OFFCURVE",
"253 -7 OFFCURVE",
"266 -7 CURVE SMOOTH",
"279 -7 OFFCURVE",
"286 2 OFFCURVE",
"286 20 CURVE SMOOTH",
"286 140 LINE",
"385 140 LINE SMOOTH",
"404 140 OFFCURVE",
"413 147 OFFCURVE",
"413 162 CURVE SMOOTH",
"413 176 OFFCURVE",
"404 183 OFFCURVE",
"387 183 CURVE SMOOTH",
"386 183 OFFCURVE",
"386 183 OFFCURVE",
"385 183 CURVE SMOOTH",
"286 183 LINE",
"286 229 LINE",
"385 229 LINE SMOOTH",
"386 229 OFFCURVE",
"386 229 OFFCURVE",
"387 229 CURVE SMOOTH",
"404 229 OFFCURVE",
"413 236 OFFCURVE",
"413 250 CURVE SMOOTH",
"413 265 OFFCURVE",
"404 272 OFFCURVE",
"385 272 CURVE SMOOTH",
"286 272 LINE",
"286 310 LINE",
"491 604 LINE SMOOTH",
"496 611 OFFCURVE",
"498 617 OFFCURVE",
"498 622 CURVE SMOOTH",
"498 627 OFFCURVE",
"496 632 OFFCURVE",
"492 636 CURVE SMOOTH",
"484 644 OFFCURVE",
"473 648 OFFCURVE",
"456 627 CURVE",
"265 354 LINE",
"73 627 LINE",
"66 638 OFFCURVE",
"59 643 OFFCURVE",
"54 643 CURVE",
"43 642 OFFCURVE",
"32 633 OFFCURVE",
"32 622 CURVE SMOOTH",
"32 617 OFFCURVE",
"34 611 OFFCURVE",
"39 604 CURVE SMOOTH",
"245 310 LINE",
"245 272 LINE"
);
}
);
width = 529;
}
);
note = yen;
rightKerningGroup = numbersign;
unicode = 00A5;
},
{
glyphname = brokenbar;
lastChange = "2016-07-31 02:06:19 +0000";
layers = (
{
layerId = "6C3B4F89-AC86-48DF-BE99-AFD9A4DA4FE2";
paths = (
{
closed = 1;
nodes = (
"83 382 OFFCURVE",
"89 373 OFFCURVE",
"102 373 CURVE SMOOTH",
"117 373 OFFCURVE",
"124 382 OFFCURVE",
"124 401 CURVE SMOOTH",
"124 616 LINE SMOOTH",
"124 634 OFFCURVE",
"117 643 OFFCURVE",
"104 643 CURVE SMOOTH",
"91 643 OFFCURVE",
"84 634 OFFCURVE",
"83 616 CURVE",
"83 401 LINE SMOOTH"
);
},
{
closed = 1;
nodes = (
"83 3 OFFCURVE",
"89 -7 OFFCURVE",
"102 -7 CURVE SMOOTH",
"117 -7 OFFCURVE",
"124 3 OFFCURVE",
"124 22 CURVE SMOOTH",
"124 237 LINE SMOOTH",
"124 254 OFFCURVE",
"117 263 OFFCURVE",
"104 263 CURVE SMOOTH",
"91 263 OFFCURVE",
"84 254 OFFCURVE",
"83 237 CURVE",
"83 22 LINE SMOOTH"
);
}
);
width = 207;
}
);
note = brokenbar;
rightKerningGroup = numbersign;
unicode = 00A6;
},
{
glyphname = section;
lastChange = "2016-07-31 02:06:19 +0000";
layers = (
{
layerId = "6C3B4F89-AC86-48DF-BE99-AFD9A4DA4FE2";
paths = (
{
closed = 1;
nodes = (
"84 23 OFFCURVE",
"107 0 OFFCURVE",
"151 0 CURVE SMOOTH",
"335 0 LINE SMOOTH",
"402 0 OFFCURVE",
"435 33 OFFCURVE",
"435 99 CURVE SMOOTH",
"435 146 OFFCURVE",
"417 178 OFFCURVE",
"382 195 CURVE",
"417 206 OFFCURVE",
"435 238 OFFCURVE",
"435 289 CURVE SMOOTH",
"435 350 OFFCURVE",
"402 386 OFFCURVE",
"335 395 CURVE SMOOTH",
"160 420 LINE SMOOTH",
"131 424 OFFCURVE",
"117 449 OFFCURVE",
"117 495 CURVE SMOOTH",
"117 534 OFFCURVE",
"128 552 OFFCURVE",
"164 552 CURVE SMOOTH",
"348 552 LINE SMOOTH",
"385 552 OFFCURVE",
"393 544 OFFCURVE",
"393 509 CURVE SMOOTH",
"393 492 OFFCURVE",
"400 483 OFFCURVE",
"414 483 CURVE SMOOTH",
"428 483 OFFCURVE",
"435 491 OFFCURVE",
"435 508 CURVE SMOOTH",
"435 556 OFFCURVE",
"427 594 OFFCURVE",
"360 594 CURVE SMOOTH",
"175 594 LINE SMOOTH",
"108 594 OFFCURVE",
"75 561 OFFCURVE",
"75 495 CURVE SMOOTH",
"75 448 OFFCURVE",
"93 416 OFFCURVE",
"128 399 CURVE",
"93 388 OFFCURVE",
"75 357 OFFCURVE",
"75 306 CURVE SMOOTH",
"75 244 OFFCURVE",
"108 208 OFFCURVE",
"175 199 CURVE SMOOTH",
"350 174 LINE SMOOTH",
"379 170 OFFCURVE",
"393 145 OFFCURVE",
"393 99 CURVE SMOOTH",
"393 59 OFFCURVE",
"382 42 OFFCURVE",
"346 42 CURVE SMOOTH",
"162 42 LINE SMOOTH",
"125 42 OFFCURVE",
"117 52 OFFCURVE",
"117 79 CURVE SMOOTH",
"117 100 OFFCURVE",
"110 111 OFFCURVE",
"96 111 CURVE SMOOTH",
"82 111 OFFCURVE",
"75 103 OFFCURVE",
"75 86 CURVE SMOOTH",
"75 69 OFFCURVE",
"76 56 OFFCURVE",
"79 45 CURVE"
);
},
{
closed = 1;
nodes = (
"305 373 OFFCURVE",
"393 347 OFFCURVE",
"393 288 CURVE SMOOTH",
"393 228 OFFCURVE",
"382 221 OFFCURVE",
"294 221 CURVE SMOOTH",
"205 221 OFFCURVE",
"117 248 OFFCURVE",
"117 307 CURVE SMOOTH",
"117 366 OFFCURVE",
"128 373 OFFCURVE",
"217 373 CURVE SMOOTH"
);
}
);
width = 510;
}
);
note = section;
rightKerningGroup = numbersign;
unicode = 00A7;
},
{
glyphname = dieresis;
lastChange = "2016-07-31 02:06:19 +0000";
layers = (
{
layerId = "6C3B4F89-AC86-48DF-BE99-AFD9A4DA4FE2";
paths = (
{
closed = 1;
nodes = (
"211 611 OFFCURVE",
"235 594 OFFCURVE",
"256 594 CURVE SMOOTH",
"277 594 OFFCURVE",
"303 611 OFFCURVE",
"303 630 CURVE SMOOTH",
"303 649 OFFCURVE",
"277 666 OFFCURVE",
"256 666 CURVE SMOOTH",
"235 666 OFFCURVE",
"212 649 OFFCURVE",
"211 630 CURVE"
);
},
{
closed = 1;
nodes = (
"65 611 OFFCURVE",
"89 594 OFFCURVE",
"110 594 CURVE SMOOTH",
"131 594 OFFCURVE",
"157 611 OFFCURVE",
"157 630 CURVE SMOOTH",
"157 649 OFFCURVE",
"131 666 OFFCURVE",
"110 666 CURVE SMOOTH",
"89 666 OFFCURVE",
"66 649 OFFCURVE",
"65 630 CURVE"
);
}
);
width = 367;
}
);
note = dieresis;
rightKerningGroup = numbersign;
unicode = 00A8;
},
{
glyphname = copyright;
lastChange = "2016-07-31 02:06:19 +0000";
layers = (
{
layerId = "6C3B4F89-AC86-48DF-BE99-AFD9A4DA4FE2";
paths = (
{
closed = 1;
nodes = (
"360 219 OFFCURVE",
"371 223 OFFCURVE",
"379 230 CURVE SMOOTH",
"395 244 OFFCURVE",
"397 257 OFFCURVE",
"397 273 CURVE SMOOTH",
"397 280 OFFCURVE",
"392 284 OFFCURVE",
"383 284 CURVE SMOOTH",
"373 284 OFFCURVE",
"368 280 OFFCURVE",
"368 273 CURVE SMOOTH",
"368 258 OFFCURVE",
"360 250 OFFCURVE",
"345 250 CURVE SMOOTH",
"297 250 LINE SMOOTH",
"264 250 OFFCURVE",
"237 267 OFFCURVE",
"237 298 CURVE SMOOTH",
"237 337 LINE SMOOTH",
"237 368 OFFCURVE",
"264 385 OFFCURVE",
"297 385 CURVE SMOOTH",
"345 385 LINE SMOOTH",
"360 385 OFFCURVE",
"368 377 OFFCURVE",
"368 361 CURVE SMOOTH",
"368 354 OFFCURVE",
"373 351 OFFCURVE",
"383 351 CURVE SMOOTH",
"392 351 OFFCURVE",
"397 355 OFFCURVE",
"397 362 CURVE SMOOTH",
"397 399 OFFCURVE",
"374 416 OFFCURVE",
"347 416 CURVE SMOOTH",
"297 416 LINE SMOOTH",
"248 416 OFFCURVE",
"207 389 OFFCURVE",
"207 337 CURVE SMOOTH",
"207 298 LINE SMOOTH",
"207 246 OFFCURVE",
"248 219 OFFCURVE",
"297 219 CURVE SMOOTH",
"347 219 LINE SMOOTH"
);
},
{
closed = 1;
nodes = (
"457 87 OFFCURVE",
"524 122 OFFCURVE",
"524 262 CURVE SMOOTH",
"524 373 LINE SMOOTH",
"524 513 OFFCURVE",
"457 548 OFFCURVE",
"317 548 CURVE SMOOTH",
"288 548 LINE SMOOTH",
"147 548 OFFCURVE",
"80 513 OFFCURVE",
"80 373 CURVE SMOOTH",
"80 262 LINE SMOOTH",
"80 122 OFFCURVE",
"147 87 OFFCURVE",
"288 87 CURVE SMOOTH",
"317 87 LINE SMOOTH"
);
},
{
closed = 1;
nodes = (
"224 129 OFFCURVE",
"195 132 OFFCURVE",
"164 150 CURVE SMOOTH",
"133 168 OFFCURVE",
"122 202 OFFCURVE",
"122 262 CURVE SMOOTH",
"122 373 LINE SMOOTH",
"122 433 OFFCURVE",
"133 468 OFFCURVE",
"164 486 CURVE SMOOTH",
"195 504 OFFCURVE",
"224 506 OFFCURVE",
"288 506 CURVE SMOOTH",
"317 506 LINE SMOOTH",
"380 506 OFFCURVE",
"409 504 OFFCURVE",
"440 486 CURVE SMOOTH",
"471 468 OFFCURVE",
"482 433 OFFCURVE",
"482 373 CURVE SMOOTH",
"482 262 LINE SMOOTH",
"482 202 OFFCURVE",
"471 168 OFFCURVE",
"440 150 CURVE SMOOTH",
"409 132 OFFCURVE",
"380 129 OFFCURVE",
"317 129 CURVE SMOOTH",
"288 129 LINE SMOOTH"
);
}
);
width = 604;
}
);
note = copyright;
rightKerningGroup = numbersign;
unicode = 00A9;
},
{
glyphname = ordfeminine;
lastChange = "2016-07-31 02:06:19 +0000";
layers = (
{
layerId = "6C3B4F89-AC86-48DF-BE99-AFD9A4DA4FE2";
paths = (
{
closed = 1;
nodes = (
"300 164 OFFCURVE",
"308 169 OFFCURVE",
"308 180 CURVE SMOOTH",
"308 193 OFFCURVE",
"300 199 OFFCURVE",
"285 199 CURVE SMOOTH",
"89 199 LINE",
"75 200 OFFCURVE",
"68 194 OFFCURVE",
"68 182 CURVE SMOOTH",
"68 170 OFFCURVE",
"75 164 OFFCURVE",
"89 164 CURVE SMOOTH",
"285 164 LINE SMOOTH"
);
},
{
closed = 1;
nodes = (
"252 306 OFFCURVE",
"228 280 OFFCURVE",
"185 280 CURVE SMOOTH",
"148 280 LINE SMOOTH",
"135 280 OFFCURVE",
"124 291 OFFCURVE",
"124 318 CURVE SMOOTH",
"124 345 OFFCURVE",
"141 354 OFFCURVE",
"190 354 CURVE SMOOTH",
"252 354 LINE"
);
},
{
closed = 1;
nodes = (
"246 430 OFFCURVE",
"252 423 OFFCURVE",
"252 404 CURVE SMOOTH",
"252 385 LINE",
"190 385 LINE SMOOTH",
"123 385 OFFCURVE",
"93 367 OFFCURVE",
"93 311 CURVE SMOOTH",
"93 279 OFFCURVE",
"116 249 OFFCURVE",
"148 249 CURVE SMOOTH",
"185 249 LINE SMOOTH",
"226 249 OFFCURVE",
"241 263 OFFCURVE",
"252 292 CURVE",
"252 258 LINE SMOOTH",
"252 250 OFFCURVE",
"257 246 OFFCURVE",
"268 246 CURVE SMOOTH",
"279 246 OFFCURVE",
"284 250 OFFCURVE",
"283 258 CURVE",
"283 397 LINE SMOOTH",
"283 440 OFFCURVE",
"265 461 OFFCURVE",
"230 461 CURVE SMOOTH",
"145 461 LINE SMOOTH",
"114 461 OFFCURVE",
"93 436 OFFCURVE",
"93 404 CURVE",
"92 396 OFFCURVE",
"97 392 OFFCURVE",
"108 392 CURVE SMOOTH",
"119 392 OFFCURVE",
"124 396 OFFCURVE",
"124 405 CURVE SMOOTH",
"124 422 OFFCURVE",
"132 430 OFFCURVE",
"148 430 CURVE SMOOTH",
"227 430 LINE SMOOTH"
);
}
);
width = 376;
}
);
note = ordfeminine;
rightKerningGroup = numbersign;
unicode = 00AA;
},
{
glyphname = logicalnot;
lastChange = "2016-07-31 02:06:19 +0000";
layers = (
{
layerId = "6C3B4F89-AC86-48DF-BE99-AFD9A4DA4FE2";
paths = (
{
closed = 1;
nodes = (
"436 243 OFFCURVE",
"426 252 OFFCURVE",
"407 252 CURVE SMOOTH",
"109 252 LINE SMOOTH",
"92 252 OFFCURVE",
"83 245 OFFCURVE",
"83 230 CURVE SMOOTH",
"83 216 OFFCURVE",
"91 209 OFFCURVE",
"107 209 CURVE SMOOTH",
"108 209 OFFCURVE",
"108 209 OFFCURVE",
"109 209 CURVE SMOOTH",
"393 209 LINE",
"393 141 LINE SMOOTH",
"393 122 OFFCURVE",
"400 113 OFFCURVE",
"413 113 CURVE SMOOTH",
"428 113 OFFCURVE",
"436 122 OFFCURVE",
"436 141 CURVE SMOOTH",
"436 225 LINE SMOOTH"
);
}
);
width = 515;
}
);
note = logicalnot;
rightKerningGroup = numbersign;
unicode = 00AC;
},
{
glyphname = uni00AD;
lastChange = "2016-07-31 02:06:19 +0000";
layers = (
{
layerId = "6C3B4F89-AC86-48DF-BE99-AFD9A4DA4FE2";
paths = (
{
closed = 1;
nodes = (
"363 209 OFFCURVE",
"373 216 OFFCURVE",
"373 229 CURVE SMOOTH",
"373 244 OFFCURVE",
"363 252 OFFCURVE",
"344 252 CURVE SMOOTH",
"99 252 LINE SMOOTH",
"82 252 OFFCURVE",
"73 245 OFFCURVE",
"73 230 CURVE SMOOTH",
"73 216 OFFCURVE",
"81 209 OFFCURVE",
"97 209 CURVE SMOOTH",
"98 209 OFFCURVE",
"98 209 OFFCURVE",
"99 209 CURVE SMOOTH",
"344 209 LINE SMOOTH"
);
}
);
width = 446;
}
);
leftKerningGroup = uni00AD;
note = uni00AD;
rightKerningGroup = uni00AD;
unicode = 00AD;
},
{
glyphname = registered;
lastChange = "2016-07-31 02:06:19 +0000";
layers = (
{
layerId = "6C3B4F89-AC86-48DF-BE99-AFD9A4DA4FE2";
paths = (
{
closed = 1;
nodes = (
"234 390 LINE",
"301 390 LINE SMOOTH",
"328 390 OFFCURVE",
"347 388 OFFCURVE",
"358 385 CURVE SMOOTH",
"369 382 OFFCURVE",
"374 374 OFFCURVE",
"374 362 CURVE SMOOTH",
"374 350 OFFCURVE",
"369 342 OFFCURVE",
"358 339 CURVE SMOOTH",
"347 336 OFFCURVE",
"328 334 OFFCURVE",
"301 334 CURVE SMOOTH",
"234 334 LINE"
);
},
{
closed = 1;
nodes = (
"311 303 LINE",
"335 288 OFFCURVE",
"360 255 OFFCURVE",
"370 235 CURVE SMOOTH",
"375 225 OFFCURVE",
"377 219 OFFCURVE",
"377 217 CURVE SMOOTH",
"377 215 OFFCURVE",
"379 213 OFFCURVE",
"383 211 CURVE",
"386 209 OFFCURVE",
"391 208 OFFCURVE",
"398 208 CURVE SMOOTH",
"405 208 OFFCURVE",
"408 211 OFFCURVE",
"408 217 CURVE SMOOTH",
"408 219 OFFCURVE",
"406 226 OFFCURVE",
"401 237 CURVE",
"392 259 OFFCURVE",
"370 292 OFFCURVE",
"350 304 CURVE",
"383 308 OFFCURVE",
"405 333 OFFCURVE",
"405 361 CURVE SMOOTH",
"405 401 OFFCURVE",
"370 421 OFFCURVE",
"301 421 CURVE SMOOTH",
"217 421 LINE SMOOTH",
"208 421 OFFCURVE",
"203 418 OFFCURVE",
"203 411 CURVE SMOOTH",
"203 217 LINE",
"202 211 OFFCURVE",
"207 208 OFFCURVE",
"218 208 CURVE SMOOTH",
"229 208 OFFCURVE",
"234 211 OFFCURVE",
"234 217 CURVE SMOOTH",
"234 303 LINE"
);
},
{
closed = 1;
nodes = (
"457 87 OFFCURVE",
"524 122 OFFCURVE",
"524 262 CURVE SMOOTH",
"524 373 LINE SMOOTH",
"524 513 OFFCURVE",
"457 548 OFFCURVE",
"317 548 CURVE SMOOTH",
"288 548 LINE SMOOTH",
"147 548 OFFCURVE",
"80 513 OFFCURVE",
"80 373 CURVE SMOOTH",
"80 262 LINE SMOOTH",
"80 122 OFFCURVE",
"147 87 OFFCURVE",
"288 87 CURVE SMOOTH",
"317 87 LINE SMOOTH"
);
},
{
closed = 1;
nodes = (
"224 129 OFFCURVE",
"195 132 OFFCURVE",
"164 150 CURVE SMOOTH",
"133 168 OFFCURVE",
"122 202 OFFCURVE",
"122 262 CURVE SMOOTH",
"122 373 LINE SMOOTH",
"122 433 OFFCURVE",
"133 468 OFFCURVE",
"164 486 CURVE SMOOTH",
"195 504 OFFCURVE",
"224 506 OFFCURVE",
"288 506 CURVE SMOOTH",
"317 506 LINE SMOOTH",
"380 506 OFFCURVE",
"409 504 OFFCURVE",
"440 486 CURVE SMOOTH",
"471 468 OFFCURVE",
"482 433 OFFCURVE",
"482 373 CURVE SMOOTH",
"482 262 LINE SMOOTH",
"482 202 OFFCURVE",
"471 168 OFFCURVE",
"440 150 CURVE SMOOTH",
"409 132 OFFCURVE",
"380 129 OFFCURVE",
"317 129 CURVE SMOOTH",
"288 129 LINE SMOOTH"
);
}
);
width = 604;
}
);
leftKerningGroup = registered;
note = registered;
rightKerningGroup = registered;
unicode = 00AE;
},
{
glyphname = macron;
lastChange = "2016-07-31 02:06:19 +0000";
layers = (
{
layerId = "6C3B4F89-AC86-48DF-BE99-AFD9A4DA4FE2";
paths = (
{
closed = 1;
nodes = (
"355 678 OFFCURVE",
"365 685 OFFCURVE",
"365 698 CURVE SMOOTH",
"365 713 OFFCURVE",
"355 721 OFFCURVE",
"336 721 CURVE SMOOTH",
"91 721 LINE SMOOTH",
"90 721 OFFCURVE",
"90 721 OFFCURVE",
"89 721 CURVE SMOOTH",
"73 721 OFFCURVE",
"65 714 OFFCURVE",
"65 700 CURVE SMOOTH",
"65 685 OFFCURVE",
"74 678 OFFCURVE",
"91 678 CURVE SMOOTH",
"336 678 LINE SMOOTH"
);
}
);
width = 429;
}
);
note = macron;
rightKerningGroup = numbersign;
unicode = 00AF;
},
{
glyphname = degree;
lastChange = "2016-07-31 02:06:19 +0000";
layers = (
{
layerId = "6C3B4F89-AC86-48DF-BE99-AFD9A4DA4FE2";
paths = (
{
closed = 1;
nodes = (
"254 637 OFFCURVE",
"300 591 OFFCURVE",
"300 535 CURVE SMOOTH",
"300 478 OFFCURVE",
"254 432 OFFCURVE",
"198 432 CURVE SMOOTH",
"141 432 OFFCURVE",
"95 478 OFFCURVE",
"95 535 CURVE SMOOTH",
"95 591 OFFCURVE",
"141 637 OFFCURVE",
"198 637 CURVE SMOOTH"
);
},
{
closed = 1;
nodes = (
"124 405 OFFCURVE",
"158 391 OFFCURVE",
"197 391 CURVE SMOOTH",
"276 391 OFFCURVE",
"341 456 OFFCURVE",
"341 535 CURVE SMOOTH",
"341 614 OFFCURVE",
"276 678 OFFCURVE",
"197 678 CURVE SMOOTH",
"118 678 OFFCURVE",
"54 614 OFFCURVE",
"54 535 CURVE SMOOTH",
"54 496 OFFCURVE",
"68 462 OFFCURVE",
"96 434 CURVE SMOOTH"
);
}
);
width = 394;
}
);
note = degree;
rightKerningGroup = numbersign;
unicode = 00B0;
},
{
glyphname = plusminus;
lastChange = "2016-07-31 02:06:19 +0000";
layers = (
{
layerId = "6C3B4F89-AC86-48DF-BE99-AFD9A4DA4FE2";
paths = (
{
closed = 1;
nodes = (
"79 43 OFFCURVE",
"70 36 OFFCURVE",
"70 23 CURVE SMOOTH",
"70 8 OFFCURVE",
"79 0 OFFCURVE",
"96 0 CURVE SMOOTH",
"474 0 LINE SMOOTH",
"493 0 OFFCURVE",
"503 7 OFFCURVE",
"503 20 CURVE SMOOTH",
"503 35 OFFCURVE",
"493 43 OFFCURVE",
"474 43 CURVE SMOOTH",
"96 43 LINE SMOOTH"
);
},
{
closed = 1;
nodes = (
"474 270 LINE SMOOTH",
"493 270 OFFCURVE",
"503 277 OFFCURVE",
"503 292 CURVE SMOOTH",
"503 306 OFFCURVE",
"494 313 OFFCURVE",
"476 313 CURVE SMOOTH",
"475 313 OFFCURVE",
"475 313 OFFCURVE",
"474 313 CURVE SMOOTH",
"307 313 LINE",
"307 440 LINE SMOOTH",
"307 459 OFFCURVE",
"300 468 OFFCURVE",
"286 468 CURVE SMOOTH",
"272 468 OFFCURVE",
"265 459 OFFCURVE",
"265 440 CURVE SMOOTH",
"265 313 LINE",
"96 313 LINE SMOOTH",
"79 313 OFFCURVE",
"70 306 OFFCURVE",
"70 293 CURVE SMOOTH",
"70 278 OFFCURVE",
"79 270 OFFCURVE",
"96 270 CURVE SMOOTH",
"265 270 LINE",
"265 143 LINE SMOOTH",
"265 125 OFFCURVE",
"272 116 OFFCURVE",
"286 116 CURVE SMOOTH",
"300 116 OFFCURVE",
"307 125 OFFCURVE",
"307 143 CURVE SMOOTH",
"307 270 LINE"
);
}
);
width = 573;
}
);
note = plusminus;
rightKerningGroup = numbersign;
unicode = 00B1;
},
{
glyphname = twosuperior;
lastChange = "2016-07-31 02:06:19 +0000";
layers = (
{
layerId = "6C3B4F89-AC86-48DF-BE99-AFD9A4DA4FE2";
paths = (
{
closed = 1;
nodes = (
"266 753 OFFCURVE",
"227 767 OFFCURVE",
"146 767 CURVE SMOOTH",
"116 767 LINE SMOOTH",
"76 767 OFFCURVE",
"41 739 OFFCURVE",
"41 703 CURVE SMOOTH",
"41 694 OFFCURVE",
"52 685 OFFCURVE",
"60 685 CURVE SMOOTH",
"68 685 OFFCURVE",
"77 694 OFFCURVE",
"77 703 CURVE SMOOTH",
"77 724 OFFCURVE",
"91 734 OFFCURVE",
"120 734 CURVE SMOOTH",
"146 734 LINE SMOOTH",
"214 734 OFFCURVE",
"233 729 OFFCURVE",
"233 682 CURVE SMOOTH",
"233 659 OFFCURVE",
"202 640 OFFCURVE",
"165 621 CURVE SMOOTH",
"146 612 OFFCURVE",
"128 601 OFFCURVE",
"109 590 CURVE SMOOTH",
"72 567 OFFCURVE",
"41 530 OFFCURVE",
"41 483 CURVE SMOOTH",
"41 461 LINE",
"244 461 LINE SMOOTH",
"255 461 OFFCURVE",
"266 470 OFFCURVE",
"266 478 CURVE SMOOTH",
"266 486 OFFCURVE",
"255 494 OFFCURVE",
"244 494 CURVE SMOOTH",
"78 494 LINE",
"78 531 OFFCURVE",
"125 568 OFFCURVE",
"172 589 CURVE SMOOTH",
"219 610 OFFCURVE",
"266 645 OFFCURVE",
"266 682 CURVE SMOOTH"
);
}
);
width = 310;
}
);
note = twosuperior;
rightKerningGroup = numbersign;
unicode = 00B2;
},
{
glyphname = threesuperior;
lastChange = "2016-07-31 02:06:19 +0000";
layers = (
{
layerId = "6C3B4F89-AC86-48DF-BE99-AFD9A4DA4FE2";
paths = (
{
closed = 1;
nodes = (
"174 734 OFFCURVE",
"210 734 OFFCURVE",
"211 687 CURVE SMOOTH",
"211 656 OFFCURVE",
"162 634 OFFCURVE",
"119 634 CURVE SMOOTH",
"107 634 OFFCURVE",
"101 629 OFFCURVE",
"101 618 CURVE SMOOTH",
"101 607 OFFCURVE",
"107 601 OFFCURVE",
"119 601 CURVE SMOOTH",
"160 601 OFFCURVE",
"211 573 OFFCURVE",
"211 543 CURVE SMOOTH",
"211 513 OFFCURVE",
"204 494 OFFCURVE",
"143 494 CURVE SMOOTH",
"131 494 LINE SMOOTH",
"100 494 OFFCURVE",
"66 506 OFFCURVE",
"66 527 CURVE SMOOTH",
"66 536 OFFCURVE",
"60 540 OFFCURVE",
"48 540 CURVE SMOOTH",
"36 540 OFFCURVE",
"30 534 OFFCURVE",
"30 522 CURVE SMOOTH",
"30 498 OFFCURVE",
"68 461 OFFCURVE",
"127 461 CURVE SMOOTH",
"139 461 LINE SMOOTH",
"215 461 OFFCURVE",
"243 486 OFFCURVE",
"243 534 CURVE SMOOTH",
"243 582 OFFCURVE",
"201 614 OFFCURVE",
"173 618 CURVE",
"200 623 OFFCURVE",
"243 652 OFFCURVE",
"243 684 CURVE SMOOTH",
"243 744 OFFCURVE",
"215 767 OFFCURVE",
"139 767 CURVE SMOOTH",
"127 767 LINE SMOOTH",
"68 767 OFFCURVE",
"30 730 OFFCURVE",
"30 706 CURVE SMOOTH",
"30 694 OFFCURVE",
"36 688 OFFCURVE",
"48 688 CURVE SMOOTH",
"60 688 OFFCURVE",
"66 692 OFFCURVE",
"66 701 CURVE SMOOTH",
"66 722 OFFCURVE",
"100 734 OFFCURVE",
"131 734 CURVE SMOOTH",
"143 734 LINE SMOOTH"
);
}
);
width = 280;
}
);
note = threesuperior;
rightKerningGroup = numbersign;
unicode = 00B3;
},
{
glyphname = acute;
lastChange = "2016-07-31 02:06:19 +0000";
layers = (
{
layerId = "6C3B4F89-AC86-48DF-BE99-AFD9A4DA4FE2";
paths = (
{
closed = 1;
nodes = (
"153 678 OFFCURVE",
"146 674 OFFCURVE",
"138 665 CURVE SMOOTH",
"42 550 LINE SMOOTH",
"37 544 OFFCURVE",
"34 538 OFFCURVE",
"34 532 CURVE SMOOTH",
"34 519 OFFCURVE",
"44 510 OFFCURVE",
"55 510 CURVE SMOOTH",
"60 510 OFFCURVE",
"67 514 OFFCURVE",
"75 523 CURVE SMOOTH",
"171 638 LINE SMOOTH",
"176 644 OFFCURVE",
"179 650 OFFCURVE",
"179 657 CURVE SMOOTH",
"179 669 OFFCURVE",
"169 678 OFFCURVE",
"158 678 CURVE SMOOTH"
);
}
);
width = 212;
}
);
note = acute;
rightKerningGroup = numbersign;
unicode = 00B4;
},
{
glyphname = paragraph;
lastChange = "2016-07-31 02:06:19 +0000";
layers = (
{
layerId = "6C3B4F89-AC86-48DF-BE99-AFD9A4DA4FE2";
paths = (
{
closed = 1;
nodes = (
"243 636 LINE SMOOTH",
"106 636 OFFCURVE",
"36 599 OFFCURVE",
"36 492 CURVE SMOOTH",
"36 389 OFFCURVE",
"91 337 OFFCURVE",
"201 337 CURVE SMOOTH",
"243 337 LINE",
"243 20 LINE SMOOTH",
"243 2 OFFCURVE",
"250 -7 OFFCURVE",
"264 -7 CURVE SMOOTH",
"278 -7 OFFCURVE",
"285 2 OFFCURVE",
"285 20 CURVE SMOOTH",
"285 594 LINE",
"316 594 LINE",
"316 20 LINE SMOOTH",
"316 2 OFFCURVE",
"323 -7 OFFCURVE",
"337 -7 CURVE SMOOTH",
"351 -7 OFFCURVE",
"358 2 OFFCURVE",
"358 20 CURVE SMOOTH",
"358 636 LINE"
);
}
);
width = 447;
}
);
note = paragraph;
rightKerningGroup = numbersign;
unicode = 00B6;
},
{
glyphname = periodcentered;
lastChange = "2016-07-31 02:06:19 +0000";
layers = (
{
layerId = "6C3B4F89-AC86-48DF-BE99-AFD9A4DA4FE2";
paths = (
{
closed = 1;
nodes = (
"95 355 OFFCURVE",
"105 351 OFFCURVE",
"116 351 CURVE SMOOTH",
"137 351 OFFCURVE",
"162 368 OFFCURVE",
"162 387 CURVE SMOOTH",
"162 406 OFFCURVE",
"137 423 OFFCURVE",
"116 423 CURVE SMOOTH",
"95 423 OFFCURVE",
"70 406 OFFCURVE",
"70 387 CURVE SMOOTH",
"70 378 OFFCURVE",
"75 369 OFFCURVE",
"85 362 CURVE SMOOTH"
);
}
);
width = 232;
}
);
note = periodcentered;
rightKerningGroup = numbersign;
unicode = 00B7;
},
{
glyphname = cedilla;
lastChange = "2016-07-31 02:06:19 +0000";
layers = (
{
layerId = "6C3B4F89-AC86-48DF-BE99-AFD9A4DA4FE2";
paths = (
{
closed = 1;
nodes = (
"42 -152 OFFCURVE",
"83 -165 OFFCURVE",
"124 -165 CURVE SMOOTH",
"165 -165 OFFCURVE",
"207 -133 OFFCURVE",
"207 -88 CURVE SMOOTH",
"207 -66 OFFCURVE",
"196 -49 OFFCURVE",
"173 -36 CURVE SMOOTH",
"150 -23 OFFCURVE",
"138 -6 OFFCURVE",
"138 15 CURVE",
"96 15 LINE",
"96 -16 OFFCURVE",
"114 -40 OFFCURVE",
"130 -51 CURVE SMOOTH",
"175 -80 OFFCURVE",
"181 -125 OFFCURVE",
"118 -125 CURVE SMOOTH",
"107 -125 OFFCURVE",
"93 -122 OFFCURVE",
"78 -116 CURVE SMOOTH",
"63 -110 OFFCURVE",
"54 -107 OFFCURVE",
"52 -107 CURVE SMOOTH",
"45 -107 OFFCURVE",
"42 -111 OFFCURVE",
"42 -120 CURVE SMOOTH"
);
}
);
width = 242;
}
);
note = cedilla;
rightKerningGroup = numbersign;
unicode = 00B8;
},
{
glyphname = onesuperior;
lastChange = "2016-07-31 02:06:19 +0000";
layers = (
{
layerId = "6C3B4F89-AC86-48DF-BE99-AFD9A4DA4FE2";
paths = (
{
closed = 1;
nodes = (
"52 465 OFFCURVE",
"58 458 OFFCURVE",
"69 458 CURVE SMOOTH",
"80 458 OFFCURVE",
"86 465 OFFCURVE",
"86 480 CURVE SMOOTH",
"86 751 LINE SMOOTH",
"86 764 OFFCURVE",
"80 770 OFFCURVE",
"68 770 CURVE SMOOTH",
"62 770 OFFCURVE",
"56 767 OFFCURVE",
"49 760 CURVE SMOOTH",
"0 710 LINE",
"-7 704 OFFCURVE",
"-10 698 OFFCURVE",
"-10 692 CURVE SMOOTH",
"-10 683 OFFCURVE",
"-5 678 OFFCURVE",
"5 678 CURVE SMOOTH",
"12 678 OFFCURVE",
"19 681 OFFCURVE",
"25 688 CURVE",
"52 715 LINE",
"52 480 LINE SMOOTH"
);
}
);
width = 138;
}
);
note = onesuperior;
rightKerningGroup = numbersign;
unicode = 00B9;
},
{
glyphname = ordmasculine;
lastChange = "2016-07-31 02:06:19 +0000";
layers = (
{
layerId = "6C3B4F89-AC86-48DF-BE99-AFD9A4DA4FE2";
paths = (
{
closed = 1;
nodes = (
"135 280 OFFCURVE",
"124 286 OFFCURVE",
"124 333 CURVE SMOOTH",
"124 377 LINE SMOOTH",
"124 424 OFFCURVE",
"135 430 OFFCURVE",
"183 430 CURVE SMOOTH",
"192 430 LINE SMOOTH",
"240 430 OFFCURVE",
"252 424 OFFCURVE",
"252 377 CURVE SMOOTH",
"252 333 LINE SMOOTH",
"252 286 OFFCURVE",
"240 280 OFFCURVE",
"192 280 CURVE SMOOTH",
"183 280 LINE SMOOTH"
);
},
{
closed = 1;
nodes = (
"261 249 OFFCURVE",
"283 266 OFFCURVE",
"283 333 CURVE SMOOTH",
"283 377 LINE SMOOTH",
"283 442 OFFCURVE",
"261 461 OFFCURVE",
"192 461 CURVE SMOOTH",
"183 461 LINE SMOOTH",
"115 461 OFFCURVE",
"93 442 OFFCURVE",
"93 377 CURVE SMOOTH",
"93 333 LINE SMOOTH",
"93 266 OFFCURVE",
"115 249 OFFCURVE",
"183 249 CURVE SMOOTH",
"192 249 LINE SMOOTH"
);
},
{
closed = 1;
nodes = (
"300 164 OFFCURVE",
"308 169 OFFCURVE",
"308 180 CURVE SMOOTH",
"308 193 OFFCURVE",
"300 199 OFFCURVE",
"285 199 CURVE SMOOTH",
"89 199 LINE SMOOTH",
"88 199 OFFCURVE",
"88 199 OFFCURVE",
"87 199 CURVE SMOOTH",
"74 199 OFFCURVE",
"68 193 OFFCURVE",
"68 182 CURVE SMOOTH",
"68 170 OFFCURVE",
"75 164 OFFCURVE",
"89 164 CURVE SMOOTH",
"285 164 LINE SMOOTH"
);
}
);
width = 376;
}
);
note = ordmasculine;
rightKerningGroup = numbersign;
unicode = 00BA;
},
{
glyphname = questiondown;
lastChange = "2016-07-31 02:06:19 +0000";
layers = (
{
layerId = "6C3B4F89-AC86-48DF-BE99-AFD9A4DA4FE2";
paths = (
{
closed = 1;
nodes = (
"298 482 OFFCURVE",
"288 486 OFFCURVE",
"278 486 CURVE SMOOTH",
"257 486 OFFCURVE",
"231 469 OFFCURVE",
"231 450 CURVE SMOOTH",
"231 431 OFFCURVE",
"257 414 OFFCURVE",
"278 414 CURVE SMOOTH",
"298 414 OFFCURVE",
"324 431 OFFCURVE",
"324 450 CURVE SMOOTH",
"324 459 OFFCURVE",
"319 468 OFFCURVE",
"309 475 CURVE"
);
},
{
closed = 1;
nodes = (
"72 125 OFFCURVE",
"39 83 OFFCURVE",
"39 -5 CURVE SMOOTH",
"39 -93 OFFCURVE",
"86 -165 OFFCURVE",
"201 -165 CURVE SMOOTH",
"277 -165 LINE SMOOTH",
"346 -165 OFFCURVE",
"387 -160 OFFCURVE",
"427 -136 CURVE SMOOTH",
"466 -113 OFFCURVE",
"485 -65 OFFCURVE",
"485 8 CURVE SMOOTH",
"485 27 OFFCURVE",
"478 36 OFFCURVE",
"464 36 CURVE SMOOTH",
"449 36 OFFCURVE",
"442 27 OFFCURVE",
"442 8 CURVE SMOOTH",
"442 -52 OFFCURVE",
"432 -87 OFFCURVE",
"401 -103 CURVE SMOOTH",
"369 -120 OFFCURVE",
"341 -123 OFFCURVE",
"277 -123 CURVE SMOOTH",
"183 -123 LINE SMOOTH",
"112 -123 OFFCURVE",
"81 -63 OFFCURVE",
"81 -6 CURVE SMOOTH",
"81 50 OFFCURVE",
"109 92 OFFCURVE",
"145 103 CURVE SMOOTH",
"298 145 LINE",
"298 285 LINE SMOOTH",
"298 304 OFFCURVE",
"291 313 OFFCURVE",
"277 313 CURVE SMOOTH",
"263 313 OFFCURVE",
"256 304 OFFCURVE",
"256 285 CURVE SMOOTH",
"256 176 LINE",
"163 150 LINE SMOOTH"
);
}
);
width = 520;
}
);
note = questiondown;
rightKerningGroup = questiondown;
unicode = 00BF;
},
{
glyphname = AE;
lastChange = "2016-07-31 02:06:19 +0000";
layers = (
{
layerId = "6C3B4F89-AC86-48DF-BE99-AFD9A4DA4FE2";
paths = (
{
closed = 1;
nodes = (
"671 337 OFFCURVE",
"681 343 OFFCURVE",
"681 356 CURVE SMOOTH",
"681 371 OFFCURVE",
"671 379 OFFCURVE",
"650 379 CURVE SMOOTH",
"435 379 LINE",
"435 594 LINE",
"769 594 LINE SMOOTH",
"788 594 OFFCURVE",
"798 600 OFFCURVE",
"798 613 CURVE SMOOTH",
"798 628 OFFCURVE",
"788 636 OFFCURVE",
"769 636 CURVE SMOOTH",
"413 636 LINE SMOOTH",
"406 636 OFFCURVE",
"401 633 OFFCURVE",
"398 628 CURVE SMOOTH",
"15 18 LINE",
"10 11 OFFCURVE",
"8 4 OFFCURVE",
"8 -3 CURVE SMOOTH",
"8 -12 OFFCURVE",
"13 -16 OFFCURVE",
"24 -16 CURVE SMOOTH",
"35 -16 OFFCURVE",
"44 -9 OFFCURVE",
"52 5 CURVE SMOOTH",
"175 204 LINE",
"394 204 LINE",
"394 31 LINE SMOOTH",
"394 10 OFFCURVE",
"400 0 OFFCURVE",
"413 0 CURVE SMOOTH",
"769 0 LINE SMOOTH",
"788 0 OFFCURVE",
"798 6 OFFCURVE",
"798 19 CURVE SMOOTH",
"798 34 OFFCURVE",
"788 42 OFFCURVE",
"769 42 CURVE SMOOTH",
"435 42 LINE",
"435 337 LINE",
"650 337 LINE SMOOTH"
);
},
{
closed = 1;
nodes = (
"394 550 LINE",
"394 246 LINE",
"203 246 LINE"
);
}
);
width = 846;
}
);
leftKerningGroup = AE;
note = AE;
rightKerningGroup = E;
unicode = 00C6;
},
{
glyphname = Ccedilla;
lastChange = "2016-07-31 02:06:19 +0000";
layers = (
{
layerId = "6C3B4F89-AC86-48DF-BE99-AFD9A4DA4FE2";
paths = (
{
closed = 1;
nodes = (
"220 -152 OFFCURVE",
"261 -165 OFFCURVE",
"302 -165 CURVE SMOOTH",
"343 -165 OFFCURVE",
"385 -131 OFFCURVE",
"385 -95 CURVE SMOOTH",
"385 -59 OFFCURVE",
"363 -44 OFFCURVE",
"340 -27 CURVE",
"328 -19 OFFCURVE",
"321 -10 OFFCURVE",
"318 0 CURVE",
"421 0 LINE SMOOTH",
"505 0 OFFCURVE",
"516 49 OFFCURVE",
"516 110 CURVE SMOOTH",
"516 145 OFFCURVE",
"474 148 OFFCURVE",
"474 105 CURVE SMOOTH",
"474 61 OFFCURVE",
"459 42 OFFCURVE",
"414 42 CURVE SMOOTH",
"280 42 LINE SMOOTH",
"216 42 OFFCURVE",
"187 45 OFFCURVE",
"156 63 CURVE SMOOTH",
"125 81 OFFCURVE",
"114 115 OFFCURVE",
"114 175 CURVE SMOOTH",
"114 461 LINE SMOOTH",
"114 521 OFFCURVE",
"125 556 OFFCURVE",
"156 574 CURVE SMOOTH",
"187 592 OFFCURVE",
"216 594 OFFCURVE",
"280 594 CURVE SMOOTH",
"414 594 LINE SMOOTH",
"459 594 OFFCURVE",
"474 574 OFFCURVE",
"474 531 CURVE SMOOTH",
"474 510 OFFCURVE",
"481 499 OFFCURVE",
"495 499 CURVE SMOOTH",
"509 499 OFFCURVE",
"516 511 OFFCURVE",
"516 536 CURVE SMOOTH",
"516 584 OFFCURVE",
"505 636 OFFCURVE",
"421 636 CURVE SMOOTH",
"280 636 LINE SMOOTH",
"139 636 OFFCURVE",
"72 601 OFFCURVE",
"72 461 CURVE SMOOTH",
"72 175 LINE SMOOTH",
"72 36 OFFCURVE",
"138 1 OFFCURVE",
"275 0 CURVE",
"280 -31 OFFCURVE",
"308 -51 OFFCURVE",
"328 -67 CURVE",
"338 -76 OFFCURVE",
"343 -85 OFFCURVE",
"343 -94 CURVE SMOOTH",
"343 -115 OFFCURVE",
"327 -125 OFFCURVE",
"296 -125 CURVE SMOOTH",
"285 -125 OFFCURVE",
"271 -122 OFFCURVE",
"256 -116 CURVE SMOOTH",
"241 -110 OFFCURVE",
"232 -107 OFFCURVE",
"230 -107 CURVE SMOOTH",
"223 -107 OFFCURVE",
"220 -111 OFFCURVE",
"220 -120 CURVE SMOOTH"
);
}
);
width = 572;
}
);
leftKerningGroup = C;
note = Ccedilla;
rightKerningGroup = C;
unicode = 00C7;
},
{
glyphname = Eth;
lastChange = "2016-07-31 02:06:19 +0000";
layers = (
{
layerId = "6C3B4F89-AC86-48DF-BE99-AFD9A4DA4FE2";
paths = (
{
closed = 1;
nodes = (
"84 31 LINE SMOOTH",
"84 10 OFFCURVE",
"90 0 OFFCURVE",
"103 0 CURVE SMOOTH",
"321 0 LINE SMOOTH",
"461 0 OFFCURVE",
"528 35 OFFCURVE",
"528 175 CURVE SMOOTH",
"528 461 LINE SMOOTH",
"528 601 OFFCURVE",
"461 636 OFFCURVE",
"321 636 CURVE SMOOTH",
"103 636 LINE SMOOTH",
"90 636 OFFCURVE",
"84 626 OFFCURVE",
"84 605 CURVE SMOOTH",
"84 346 LINE",
"76 346 LINE SMOOTH",
"58 346 OFFCURVE",
"49 339 OFFCURVE",
"49 326 CURVE SMOOTH",
"49 311 OFFCURVE",
"58 303 OFFCURVE",
"76 303 CURVE SMOOTH",
"84 303 LINE"
);
},
{
closed = 1;
nodes = (
"486 115 OFFCURVE",
"475 81 OFFCURVE",
"444 63 CURVE SMOOTH",
"413 45 OFFCURVE",
"384 42 OFFCURVE",
"321 42 CURVE SMOOTH",
"126 42 LINE",
"126 303 LINE",
"232 303 LINE SMOOTH",
"233 303 OFFCURVE",
"233 303 OFFCURVE",
"234 303 CURVE SMOOTH",
"252 303 OFFCURVE",
"261 310 OFFCURVE",
"261 324 CURVE SMOOTH",
"261 339 OFFCURVE",
"251 346 OFFCURVE",
"232 346 CURVE SMOOTH",
"126 346 LINE",
"126 594 LINE",
"321 594 LINE SMOOTH",
"384 594 OFFCURVE",
"413 592 OFFCURVE",
"444 574 CURVE SMOOTH",
"475 556 OFFCURVE",
"486 521 OFFCURVE",
"486 461 CURVE SMOOTH",
"486 175 LINE SMOOTH"
);
}
);
width = 600;
}
);
leftKerningGroup = B;
note = Eth;
rightKerningGroup = D;
unicode = 00D0;
},
{
glyphname = multiply;
lastChange = "2016-07-31 02:06:19 +0000";
layers = (
{
layerId = "6C3B4F89-AC86-48DF-BE99-AFD9A4DA4FE2";
paths = (
{
closed = 1;
nodes = (
"82 97 LINE SMOOTH",
"75 90 OFFCURVE",
"71 83 OFFCURVE",
"71 77 CURVE SMOOTH",
"71 64 OFFCURVE",
"81 56 OFFCURVE",
"93 56 CURVE SMOOTH",
"98 56 OFFCURVE",
"104 60 OFFCURVE",
"111 68 CURVE",
"246 201 LINE",
"379 68 LINE",
"386 60 OFFCURVE",
"393 56 OFFCURVE",
"398 56 CURVE SMOOTH",
"409 56 OFFCURVE",
"420 67 OFFCURVE",
"420 79 CURVE SMOOTH",
"420 84 OFFCURVE",
"416 90 OFFCURVE",
"408 97 CURVE",
"275 230 LINE",
"408 364 LINE",
"416 371 OFFCURVE",
"420 378 OFFCURVE",
"420 384 CURVE SMOOTH",
"420 396 OFFCURVE",
"409 404 OFFCURVE",
"398 404 CURVE SMOOTH",
"393 404 OFFCURVE",
"386 400 OFFCURVE",
"379 393 CURVE SMOOTH",
"246 260 LINE",
"111 393 LINE SMOOTH",
"104 400 OFFCURVE",
"97 404 OFFCURVE",
"92 404 CURVE SMOOTH",
"81 404 OFFCURVE",
"71 394 OFFCURVE",
"71 383 CURVE SMOOTH",
"71 378 OFFCURVE",
"75 371 OFFCURVE",
"82 364 CURVE SMOOTH",
"215 230 LINE"
);
}
);
width = 491;
}
);
note = multiply;
rightKerningGroup = numbersign;
unicode = 00D7;
},
{
glyphname = Oslash;
lastChange = "2016-07-31 02:06:19 +0000";
layers = (
{
layerId = "6C3B4F89-AC86-48DF-BE99-AFD9A4DA4FE2";
paths = (
{
closed = 1;
nodes = (
"118 135 OFFCURVE",
"107 176 OFFCURVE",
"107 227 CURVE SMOOTH",
"107 409 LINE SMOOTH",
"107 530 OFFCURVE",
"177 603 OFFCURVE",
"282 603 CURVE SMOOTH",
"334 603 OFFCURVE",
"375 590 OFFCURVE",
"406 564 CURVE",
"140 103 LINE"
);
},
{
closed = 1;
nodes = (
"452 638 OFFCURVE",
"445 633 OFFCURVE",
"439 622 CURVE SMOOTH",
"426 600 LINE",
"389 630 OFFCURVE",
"340 645 OFFCURVE",
"280 645 CURVE SMOOTH",
"160 645 OFFCURVE",
"65 556 OFFCURVE",
"65 409 CURVE SMOOTH",
"65 227 LINE SMOOTH",
"65 160 OFFCURVE",
"82 106 OFFCURVE",
"117 65 CURVE",
"100 36 LINE",
"97 28 OFFCURVE",
"95 22 OFFCURVE",
"95 17 CURVE SMOOTH",
"95 4 OFFCURVE",
"103 -2 OFFCURVE",
"119 -2 CURVE SMOOTH",
"125 -2 OFFCURVE",
"131 3 OFFCURVE",
"137 14 CURVE SMOOTH",
"149 35 LINE",
"186 6 OFFCURVE",
"235 -9 OFFCURVE",
"295 -9 CURVE SMOOTH",
"414 -9 OFFCURVE",
"509 80 OFFCURVE",
"509 227 CURVE SMOOTH",
"509 409 LINE SMOOTH",
"509 474 OFFCURVE",
"492 528 OFFCURVE",
"457 570 CURVE",
"476 600 LINE",
"479 608 OFFCURVE",
"481 614 OFFCURVE",
"481 619 CURVE SMOOTH",
"481 627 OFFCURVE",
"473 638 OFFCURVE",
"459 638 CURVE SMOOTH"
);
},
{
closed = 1;
nodes = (
"456 500 OFFCURVE",
"467 459 OFFCURVE",
"467 409 CURVE SMOOTH",
"467 227 LINE SMOOTH",
"467 106 OFFCURVE",
"397 33 OFFCURVE",
"293 33 CURVE SMOOTH",
"241 33 OFFCURVE",
"200 46 OFFCURVE",
"169 71 CURVE",
"435 531 LINE"
);
}
);
width = 574;
}
);
leftKerningGroup = O;
note = Oslash;
rightKerningGroup = O;
unicode = 00D8;
},
{
glyphname = Thorn;
lastChange = "2016-07-31 02:06:19 +0000";
layers = (
{
layerId = "6C3B4F89-AC86-48DF-BE99-AFD9A4DA4FE2";
paths = (
{
closed = 1;
nodes = (
"126 592 OFFCURVE",
"119 601 OFFCURVE",
"105 601 CURVE SMOOTH",
"91 601 OFFCURVE",
"84 592 OFFCURVE",
"84 573 CURVE SMOOTH",
"84 20 LINE SMOOTH",
"84 2 OFFCURVE",
"91 -7 OFFCURVE",
"105 -7 CURVE SMOOTH",
"119 -7 OFFCURVE",
"126 2 OFFCURVE",
"126 20 CURVE SMOOTH",
"126 161 LINE",
"298 161 LINE SMOOTH",
"402 161 OFFCURVE",
"465 213 OFFCURVE",
"465 312 CURVE SMOOTH",
"465 411 OFFCURVE",
"403 461 OFFCURVE",
"303 461 CURVE SMOOTH",
"302 461 OFFCURVE",
"300 461 OFFCURVE",
"299 461 CURVE SMOOTH",
"126 461 LINE",
"126 573 LINE SMOOTH"
);
},
{
closed = 1;
nodes = (
"377 419 OFFCURVE",
"422 398 OFFCURVE",
"422 310 CURVE SMOOTH",
"421 222 OFFCURVE",
"377 203 OFFCURVE",
"256 203 CURVE SMOOTH",
"126 203 LINE",
"126 419 LINE",
"257 419 LINE SMOOTH"
);
}
);
width = 500;
}
);
leftKerningGroup = B;
note = Thorn;
rightKerningGroup = Thorn;
unicode = 00DE;
},
{
glyphname = germandbls;
lastChange = "2016-07-31 02:06:19 +0000";
layers = (
{
layerId = "6C3B4F89-AC86-48DF-BE99-AFD9A4DA4FE2";
paths = (
{
closed = 1;
nodes = (
"290 360 OFFCURVE",
"363 290 OFFCURVE",
"363 195 CURVE SMOOTH",
"363 129 OFFCURVE",
"354 84 OFFCURVE",
"335 59 CURVE SMOOTH",
"316 34 OFFCURVE",
"295 22 OFFCURVE",
"272 22 CURVE SMOOTH",
"227 22 OFFCURVE",
"193 44 OFFCURVE",
"193 86 CURVE SMOOTH",
"193 107 OFFCURVE",
"186 117 OFFCURVE",
"172 117 CURVE SMOOTH",
"158 117 OFFCURVE",
"151 107 OFFCURVE",
"151 86 CURVE SMOOTH",
"151 18 OFFCURVE",
"206 -20 OFFCURVE",
"268 -20 CURVE SMOOTH",
"299 -20 OFFCURVE",
"329 -5 OFFCURVE",
"359 25 CURVE SMOOTH",
"419 85 OFFCURVE",
"454 333 OFFCURVE",
"257 384 CURVE",
"310 415 OFFCURVE",
"337 462 OFFCURVE",
"337 525 CURVE SMOOTH",
"337 585 OFFCURVE",
"293 636 OFFCURVE",
"214 636 CURVE SMOOTH",
"135 636 OFFCURVE",
"62 606 OFFCURVE",
"62 461 CURVE",
"41 461 OFFCURVE",
"31 454 OFFCURVE",
"31 440 CURVE SMOOTH",
"31 426 OFFCURVE",
"41 419 OFFCURVE",
"62 419 CURVE",
"62 24 LINE SMOOTH",
"62 3 OFFCURVE",
"68 -7 OFFCURVE",
"81 -7 CURVE SMOOTH",
"96 -7 OFFCURVE",
"104 3 OFFCURVE",
"104 24 CURVE SMOOTH",
"104 461 LINE SMOOTH",
"104 520 OFFCURVE",
"115 558 OFFCURVE",
"136 574 CURVE",
"159 590 OFFCURVE",
"176 594 OFFCURVE",
"220 594 CURVE SMOOTH",
"263 594 OFFCURVE",
"295 567 OFFCURVE",
"295 527 CURVE SMOOTH",
"295 443 OFFCURVE",
"241 402 OFFCURVE",
"161 402 CURVE",
"161 360 LINE"
);
}
);
width = 442;
}
);
leftKerningGroup = f;
note = germandbls;
rightKerningGroup = germandbls;
unicode = 00DF;
},
{
glyphname = ae;
lastChange = "2016-07-31 02:06:19 +0000";
layers = (
{
layerId = "6C3B4F89-AC86-48DF-BE99-AFD9A4DA4FE2";
paths = (
{
closed = 1;
nodes = (
"426 233 LINE SMOOTH",
"426 114 OFFCURVE",
"365 42 OFFCURVE",
"254 42 CURVE SMOOTH",
"162 42 LINE SMOOTH",
"131 42 OFFCURVE",
"102 76 OFFCURVE",
"102 113 CURVE SMOOTH",
"102 226 OFFCURVE",
"148 253 OFFCURVE",
"276 253 CURVE SMOOTH",
"426 253 LINE"
);
},
{
closed = 1;
nodes = (
"469 398 OFFCURVE",
"505 419 OFFCURVE",
"641 419 CURVE SMOOTH",
"649 419 LINE SMOOTH",
"784 419 OFFCURVE",
"821 396 OFFCURVE",
"822 295 CURVE",
"468 295 LINE"
);
},
{
closed = 1;
nodes = (
"457 418 OFFCURVE",
"454 424 OFFCURVE",
"452 428 CURVE",
"440 450 OFFCURVE",
"415 461 OFFCURVE",
"377 461 CURVE SMOOTH",
"376 461 OFFCURVE",
"375 461 OFFCURVE",
"374 461 CURVE SMOOTH",
"221 461 LINE SMOOTH",
"193 461 OFFCURVE",
"168 458 OFFCURVE",
"146 453 CURVE SMOOTH",
"101 442 OFFCURVE",
"60 406 OFFCURVE",
"60 359 CURVE SMOOTH",
"60 336 OFFCURVE",
"67 324 OFFCURVE",
"81 324 CURVE SMOOTH",
"95 324 OFFCURVE",
"102 334 OFFCURVE",
"102 354 CURVE SMOOTH",
"102 397 OFFCURVE",
"144 419 OFFCURVE",
"228 419 CURVE SMOOTH",
"367 419 LINE SMOOTH",
"412 419 OFFCURVE",
"426 401 OFFCURVE",
"426 357 CURVE SMOOTH",
"426 295 LINE",
"276 295 LINE SMOOTH",
"133 295 OFFCURVE",
"60 251 OFFCURVE",
"60 118 CURVE SMOOTH",
"60 46 OFFCURVE",
"103 0 OFFCURVE",
"162 0 CURVE SMOOTH",
"254 0 LINE SMOOTH",
"318 0 OFFCURVE",
"402 29 OFFCURVE",
"435 76 CURVE",
"440 82 LINE",
"453 57 OFFCURVE",
"462 45 OFFCURVE",
"490 26 CURVE SMOOTH",
"517 9 OFFCURVE",
"568 0 OFFCURVE",
"641 0 CURVE SMOOTH",
"769 0 LINE SMOOTH",
"844 0 OFFCURVE",
"864 38 OFFCURVE",
"864 106 CURVE SMOOTH",
"864 127 OFFCURVE",
"857 137 OFFCURVE",
"843 137 CURVE SMOOTH",
"829 137 OFFCURVE",
"822 126 OFFCURVE",
"822 105 CURVE SMOOTH",
"822 62 OFFCURVE",
"809 42 OFFCURVE",
"762 42 CURVE SMOOTH",
"641 42 LINE SMOOTH",
"573 42 OFFCURVE",
"543 45 OFFCURVE",
"511 62 CURVE SMOOTH",
"478 79 OFFCURVE",
"468 112 OFFCURVE",
"468 172 CURVE SMOOTH",
"468 253 LINE",
"864 253 LINE",
"864 290 LINE SMOOTH",
"864 425 OFFCURVE",
"801 461 OFFCURVE",
"649 461 CURVE SMOOTH",
"641 461 LINE SMOOTH",
"602 461 OFFCURVE",
"569 458 OFFCURVE",
"542 452 CURVE SMOOTH",
"489 440 OFFCURVE",
"481 431 OFFCURVE",
"460 410 CURVE"
);
}
);
width = 924;
}
);
leftKerningGroup = a;
note = ae;
rightKerningGroup = e;
unicode = 00E6;
},
{
glyphname = ccedilla;
lastChange = "2016-07-31 02:06:19 +0000";
layers = (
{
layerId = "6C3B4F89-AC86-48DF-BE99-AFD9A4DA4FE2";
paths = (
{
closed = 1;
nodes = (
"212 -152 OFFCURVE",
"253 -165 OFFCURVE",
"294 -165 CURVE SMOOTH",
"335 -165 OFFCURVE",
"377 -131 OFFCURVE",
"377 -95 CURVE SMOOTH",
"377 -59 OFFCURVE",
"355 -44 OFFCURVE",
"332 -27 CURVE",
"320 -19 OFFCURVE",
"313 -10 OFFCURVE",
"310 0 CURVE",
"411 0 LINE SMOOTH",
"495 0 OFFCURVE",
"506 49 OFFCURVE",
"506 110 CURVE SMOOTH",
"506 145 OFFCURVE",
"464 148 OFFCURVE",
"464 105 CURVE SMOOTH",
"464 61 OFFCURVE",
"449 42 OFFCURVE",
"404 42 CURVE SMOOTH",
"270 42 LINE SMOOTH",
"206 42 OFFCURVE",
"177 45 OFFCURVE",
"146 63 CURVE SMOOTH",
"115 81 OFFCURVE",
"104 115 OFFCURVE",
"104 175 CURVE SMOOTH",
"104 286 LINE SMOOTH",
"104 346 OFFCURVE",
"115 381 OFFCURVE",
"146 399 CURVE SMOOTH",
"177 417 OFFCURVE",
"206 419 OFFCURVE",
"270 419 CURVE SMOOTH",
"404 419 LINE SMOOTH",
"449 419 OFFCURVE",
"464 399 OFFCURVE",
"464 356 CURVE SMOOTH",
"464 335 OFFCURVE",
"471 324 OFFCURVE",
"485 324 CURVE SMOOTH",
"499 324 OFFCURVE",
"506 336 OFFCURVE",
"506 360 CURVE SMOOTH",
"506 408 OFFCURVE",
"495 461 OFFCURVE",
"415 461 CURVE SMOOTH",
"414 461 OFFCURVE",
"412 461 OFFCURVE",
"411 461 CURVE SMOOTH",
"270 461 LINE SMOOTH",
"129 461 OFFCURVE",
"62 426 OFFCURVE",
"62 286 CURVE SMOOTH",
"62 175 LINE SMOOTH",
"62 36 OFFCURVE",
"128 0 OFFCURVE",
"267 0 CURVE",
"272 -31 OFFCURVE",
"300 -51 OFFCURVE",
"320 -67 CURVE",
"330 -76 OFFCURVE",
"335 -85 OFFCURVE",
"335 -94 CURVE SMOOTH",
"335 -115 OFFCURVE",
"319 -125 OFFCURVE",
"288 -125 CURVE SMOOTH",
"277 -125 OFFCURVE",
"263 -122 OFFCURVE",
"248 -116 CURVE SMOOTH",
"233 -110 OFFCURVE",
"224 -107 OFFCURVE",
"222 -107 CURVE SMOOTH",
"215 -107 OFFCURVE",
"212 -111 OFFCURVE",
"212 -120 CURVE SMOOTH"
);
}
);
width = 564;
}
);
leftKerningGroup = c;
note = ccedilla;
rightKerningGroup = c;
unicode = 00E7;
},
{
glyphname = eth;
lastChange = "2016-07-31 02:06:19 +0000";
layers = (
{
layerId = "6C3B4F89-AC86-48DF-BE99-AFD9A4DA4FE2";
paths = (
{
closed = 1;
nodes = (
"181 593 OFFCURVE",
"214 587 OFFCURVE",
"246 575 CURVE",
"208 538 LINE",
"200 529 OFFCURVE",
"196 522 OFFCURVE",
"196 517 CURVE SMOOTH",
"196 507 OFFCURVE",
"207 497 OFFCURVE",
"218 497 CURVE SMOOTH",
"223 497 OFFCURVE",
"230 501 OFFCURVE",
"237 508 CURVE SMOOTH",
"287 557 LINE",
"347 525 OFFCURVE",
"391 474 OFFCURVE",
"419 403 CURVE",
"384 438 OFFCURVE",
"339 456 OFFCURVE",
"284 456 CURVE SMOOTH",
"145 456 OFFCURVE",
"47 368 OFFCURVE",
"47 221 CURVE SMOOTH",
"47 73 OFFCURVE",
"147 -16 OFFCURVE",
"280 -16 CURVE SMOOTH",
"412 -16 OFFCURVE",
"491 90 OFFCURVE",
"491 221 CURVE SMOOTH",
"491 396 OFFCURVE",
"433 518 OFFCURVE",
"318 589 CURVE",
"343 613 LINE",
"350 621 OFFCURVE",
"354 628 OFFCURVE",
"354 634 CURVE SMOOTH",
"354 646 OFFCURVE",
"344 654 OFFCURVE",
"333 654 CURVE SMOOTH",
"327 654 OFFCURVE",
"320 650 OFFCURVE",
"313 643 CURVE SMOOTH",
"279 609 LINE",
"239 627 OFFCURVE",
"195 636 OFFCURVE",
"148 636 CURVE SMOOTH",
"131 636 OFFCURVE",
"122 628 OFFCURVE",
"122 613 CURVE SMOOTH",
"122 600 OFFCURVE",
"131 593 OFFCURVE",
"148 593 CURVE SMOOTH"
);
},
{
closed = 1;
nodes = (
"168 26 OFFCURVE",
"89 107 OFFCURVE",
"89 221 CURVE SMOOTH",
"89 335 OFFCURVE",
"168 414 OFFCURVE",
"281 414 CURVE SMOOTH",
"394 414 OFFCURVE",
"449 326 OFFCURVE",
"449 225 CURVE SMOOTH",
"449 124 OFFCURVE",
"392 26 OFFCURVE",
"280 26 CURVE SMOOTH"
);
}
);
width = 546;
}
);
leftKerningGroup = eth;
note = eth;
rightKerningGroup = eth;
unicode = 00F0;
},
{
glyphname = divide;
lastChange = "2016-07-31 02:06:19 +0000";
layers = (
{
layerId = "6C3B4F89-AC86-48DF-BE99-AFD9A4DA4FE2";
paths = (
{
closed = 1;
nodes = (
"195 301 OFFCURVE",
"205 297 OFFCURVE",
"216 297 CURVE SMOOTH",
"237 297 OFFCURVE",
"262 314 OFFCURVE",
"262 333 CURVE SMOOTH",
"262 352 OFFCURVE",
"237 369 OFFCURVE",
"216 369 CURVE SMOOTH",
"195 369 OFFCURVE",
"170 352 OFFCURVE",
"170 333 CURVE SMOOTH",
"170 324 OFFCURVE",
"175 315 OFFCURVE",
"185 308 CURVE SMOOTH"
);
},
{
closed = 1;
nodes = (
"195 96 OFFCURVE",
"205 92 OFFCURVE",
"216 92 CURVE SMOOTH",
"237 92 OFFCURVE",
"262 109 OFFCURVE",
"262 128 CURVE SMOOTH",
"262 147 OFFCURVE",
"237 164 OFFCURVE",
"216 164 CURVE SMOOTH",
"195 164 OFFCURVE",
"170 147 OFFCURVE",
"170 128 CURVE SMOOTH",
"170 119 OFFCURVE",
"175 110 OFFCURVE",
"185 103 CURVE SMOOTH"
);
},
{
closed = 1;
nodes = (
"360 209 OFFCURVE",
"370 216 OFFCURVE",
"370 229 CURVE SMOOTH",
"370 244 OFFCURVE",
"360 252 OFFCURVE",
"341 252 CURVE SMOOTH",
"96 252 LINE SMOOTH",
"79 252 OFFCURVE",
"70 245 OFFCURVE",
"70 230 CURVE SMOOTH",
"70 216 OFFCURVE",
"78 209 OFFCURVE",
"94 209 CURVE SMOOTH",
"95 209 OFFCURVE",
"95 209 OFFCURVE",
"96 209 CURVE SMOOTH",
"341 209 LINE SMOOTH"
);
}
);
width = 440;
}
);
note = divide;
rightKerningGroup = numbersign;
unicode = 00F7;
},
{
glyphname = oslash;
lastChange = "2016-07-31 02:06:19 +0000";
layers = (
{
layerId = "6C3B4F89-AC86-48DF-BE99-AFD9A4DA4FE2";
paths = (
{
closed = 1;
nodes = (
"404 454 OFFCURVE",
"360 461 OFFCURVE",
"299 461 CURVE SMOOTH",
"270 461 LINE SMOOTH",
"129 461 OFFCURVE",
"62 426 OFFCURVE",
"62 286 CURVE SMOOTH",
"62 175 LINE SMOOTH",
"62 116 OFFCURVE",
"75 73 OFFCURVE",
"102 45 CURVE",
"91 32 LINE SMOOTH",
"84 24 OFFCURVE",
"81 17 OFFCURVE",
"81 12 CURVE SMOOTH",
"81 1 OFFCURVE",
"92 -8 OFFCURVE",
"104 -8 CURVE SMOOTH",
"109 -8 OFFCURVE",
"116 -4 OFFCURVE",
"123 5 CURVE",
"137 20 LINE",
"166 7 OFFCURVE",
"211 0 OFFCURVE",
"270 0 CURVE SMOOTH",
"299 0 LINE SMOOTH",
"439 0 OFFCURVE",
"506 35 OFFCURVE",
"506 175 CURVE SMOOTH",
"506 286 LINE SMOOTH",
"506 345 OFFCURVE",
"493 388 OFFCURVE",
"467 415 CURVE",
"479 429 LINE SMOOTH",
"485 436 OFFCURVE",
"488 443 OFFCURVE",
"488 449 CURVE SMOOTH",
"488 460 OFFCURVE",
"477 469 OFFCURVE",
"466 469 CURVE SMOOTH",
"460 469 OFFCURVE",
"453 465 OFFCURVE",
"446 456 CURVE SMOOTH",
"433 439 LINE"
);
},
{
closed = 1;
nodes = (
"221 42 OFFCURVE",
"185 46 OFFCURVE",
"164 53 CURVE",
"440 383 LINE",
"456 364 OFFCURVE",
"464 331 OFFCURVE",
"464 286 CURVE SMOOTH",
"464 175 LINE SMOOTH",
"464 115 OFFCURVE",
"453 81 OFFCURVE",
"422 63 CURVE SMOOTH",
"391 45 OFFCURVE",
"362 42 OFFCURVE",
"299 42 CURVE SMOOTH",
"270 42 LINE SMOOTH"
);
},
{
closed = 1;
nodes = (
"112 96 OFFCURVE",
"104 129 OFFCURVE",
"104 175 CURVE SMOOTH",
"104 286 LINE SMOOTH",
"104 346 OFFCURVE",
"115 381 OFFCURVE",
"146 399 CURVE SMOOTH",
"177 417 OFFCURVE",
"206 419 OFFCURVE",
"270 419 CURVE SMOOTH",
"299 419 LINE SMOOTH",
"348 419 OFFCURVE",
"384 415 OFFCURVE",
"405 407 CURVE",
"129 77 LINE"
);
}
);
width = 568;
}
);
leftKerningGroup = c;
note = oslash;
rightKerningGroup = b;
unicode = 00F8;
},
{
glyphname = thorn;
lastChange = "2016-07-31 02:06:19 +0000";
layers = (
{
layerId = "6C3B4F89-AC86-48DF-BE99-AFD9A4DA4FE2";
paths = (
{
closed = 1;
nodes = (
"477 115 OFFCURVE",
"466 81 OFFCURVE",
"435 63 CURVE SMOOTH",
"404 45 OFFCURVE",
"375 42 OFFCURVE",
"312 42 CURVE SMOOTH",
"117 42 LINE",
"117 232 LINE SMOOTH",
"117 352 OFFCURVE",
"176 419 OFFCURVE",
"283 419 CURVE SMOOTH",
"312 419 LINE SMOOTH",
"375 419 OFFCURVE",
"404 417 OFFCURVE",
"435 399 CURVE SMOOTH",
"466 381 OFFCURVE",
"477 346 OFFCURVE",
"477 286 CURVE SMOOTH",
"477 175 LINE SMOOTH"
);
},
{
closed = 1;
nodes = (
"519 426 OFFCURVE",
"452 461 OFFCURVE",
"312 461 CURVE SMOOTH",
"283 461 LINE SMOOTH",
"210 461 OFFCURVE",
"154 437 OFFCURVE",
"117 389 CURVE",
"117 613 LINE SMOOTH",
"117 633 OFFCURVE",
"110 643 OFFCURVE",
"96 643 CURVE SMOOTH",
"82 643 OFFCURVE",
"75 633 OFFCURVE",
"75 613 CURVE SMOOTH",
"75 -152 LINE SMOOTH",
"75 -172 OFFCURVE",
"81 -182 OFFCURVE",
"94 -182 CURVE SMOOTH",
"109 -182 OFFCURVE",
"117 -172 OFFCURVE",
"117 -152 CURVE SMOOTH",
"117 0 LINE",
"312 0 LINE SMOOTH",
"452 0 OFFCURVE",
"519 35 OFFCURVE",
"519 175 CURVE SMOOTH",
"519 286 LINE SMOOTH"
);
}
);
width = 581;
}
);
note = thorn;
rightKerningGroup = b;
unicode = 00FE;
},
{
glyphname = Aogonek;
lastChange = "2016-07-31 02:06:19 +0000";
layers = (
{
layerId = "6C3B4F89-AC86-48DF-BE99-AFD9A4DA4FE2";
paths = (
{
closed = 1;
nodes = (
"581 -151 OFFCURVE",
"578 -147 OFFCURVE",
"571 -147 CURVE SMOOTH",
"569 -147 OFFCURVE",
"560 -150 OFFCURVE",
"545 -156 CURVE SMOOTH",
"530 -162 OFFCURVE",
"516 -165 OFFCURVE",
"505 -165 CURVE SMOOTH",
"474 -165 OFFCURVE",
"458 -145 OFFCURVE",
"458 -106 CURVE SMOOTH",
"458 -86 OFFCURVE",
"483 -40 OFFCURVE",
"507 -16 CURVE",
"519 -14 OFFCURVE",
"525 -7 OFFCURVE",
"525 4 CURVE SMOOTH",
"525 9 OFFCURVE",
"524 13 OFFCURVE",
"522 18 CURVE SMOOTH",
"297 636 LINE",
"251 636 LINE",
"26 18 LINE SMOOTH",
"24 13 OFFCURVE",
"23 9 OFFCURVE",
"23 4 CURVE SMOOTH",
"23 -9 OFFCURVE",
"30 -16 OFFCURVE",
"44 -16 CURVE SMOOTH",
"53 -16 OFFCURVE",
"60 -9 OFFCURVE",
"66 4 CURVE",
"138 204 LINE",
"410 204 LINE",
"479 13 LINE",
"448 -22 OFFCURVE",
"416 -77 OFFCURVE",
"416 -106 CURVE SMOOTH",
"416 -165 OFFCURVE",
"454 -205 OFFCURVE",
"507 -205 CURVE SMOOTH",
"538 -205 OFFCURVE",
"581 -192 OFFCURVE",
"581 -160 CURVE SMOOTH"
);
},
{
closed = 1;
nodes = (
"394 246 LINE",
"154 246 LINE",
"273 575 LINE"
);
}
);
width = 547;
}
);
leftKerningGroup = A;
note = Aogonek;
rightKerningGroup = A;
unicode = 0104;
},
{
glyphname = aogonek;
lastChange = "2016-07-31 02:06:19 +0000";
layers = (
{
layerId = "6C3B4F89-AC86-48DF-BE99-AFD9A4DA4FE2";
paths = (
{
closed = 1;
nodes = (
"514 -150 OFFCURVE",
"511 -146 OFFCURVE",
"504 -146 CURVE SMOOTH",
"502 -146 OFFCURVE",
"493 -149 OFFCURVE",
"478 -155 CURVE SMOOTH",
"463 -161 OFFCURVE",
"449 -164 OFFCURVE",
"438 -164 CURVE SMOOTH",
"407 -164 OFFCURVE",
"391 -144 OFFCURVE",
"391 -105 CURVE SMOOTH",
"391 -82 OFFCURVE",
"426 -22 OFFCURVE",
"451 -5 CURVE",
"458 -2 OFFCURVE",
"462 8 OFFCURVE",
"462 23 CURVE SMOOTH",
"462 337 LINE SMOOTH",
"462 430 OFFCURVE",
"440 461 OFFCURVE",
"367 461 CURVE SMOOTH",
"212 461 LINE SMOOTH",
"123 461 OFFCURVE",
"60 426 OFFCURVE",
"60 354 CURVE SMOOTH",
"60 334 OFFCURVE",
"67 324 OFFCURVE",
"81 324 CURVE SMOOTH",
"95 324 OFFCURVE",
"102 334 OFFCURVE",
"102 354 CURVE SMOOTH",
"102 397 OFFCURVE",
"141 419 OFFCURVE",
"219 419 CURVE SMOOTH",
"360 419 LINE SMOOTH",
"405 419 OFFCURVE",
"420 401 OFFCURVE",
"420 354 CURVE SMOOTH",
"420 290 LINE",
"268 290 LINE SMOOTH",
"163 290 OFFCURVE",
"60 285 OFFCURVE",
"60 114 CURVE SMOOTH",
"60 50 OFFCURVE",
"101 0 OFFCURVE",
"162 0 CURVE SMOOTH",
"255 0 LINE SMOOTH",
"329 0 OFFCURVE",
"384 24 OFFCURVE",
"420 72 CURVE",
"420 23 LINE",
"389 -9 OFFCURVE",
"349 -74 OFFCURVE",
"349 -105 CURVE SMOOTH",
"349 -164 OFFCURVE",
"387 -204 OFFCURVE",
"440 -204 CURVE SMOOTH",
"471 -204 OFFCURVE",
"514 -191 OFFCURVE",
"514 -159 CURVE SMOOTH"
);
},
{
closed = 1;
nodes = (
"420 228 LINE SMOOTH",
"420 108 OFFCURVE",
"360 42 OFFCURVE",
"255 42 CURVE SMOOTH",
"162 42 LINE SMOOTH",
"131 42 OFFCURVE",
"102 75 OFFCURVE",
"102 124 CURVE SMOOTH",
"102 172 OFFCURVE",
"113 210 OFFCURVE",
"144 228 CURVE SMOOTH",
"175 246 OFFCURVE",
"204 248 OFFCURVE",
"268 248 CURVE SMOOTH",
"420 248 LINE"
);
}
);
width = 534;
}
);
leftKerningGroup = a;
note = aogonek;
rightKerningGroup = a;
unicode = 0105;
},
{
glyphname = dcroat;
lastChange = "2016-07-31 02:06:19 +0000";
layers = (
{
layerId = "6C3B4F89-AC86-48DF-BE99-AFD9A4DA4FE2";
paths = (
{
closed = 1;
nodes = (
"464 461 LINE",
"270 461 LINE SMOOTH",
"129 461 OFFCURVE",
"62 426 OFFCURVE",
"62 286 CURVE SMOOTH",
"62 175 LINE SMOOTH",
"62 35 OFFCURVE",
"129 0 OFFCURVE",
"270 0 CURVE SMOOTH",
"299 0 LINE SMOOTH",
"373 0 OFFCURVE",
"428 24 OFFCURVE",
"464 72 CURVE",
"464 23 LINE SMOOTH",
"464 3 OFFCURVE",
"471 -7 OFFCURVE",
"485 -7 CURVE SMOOTH",
"499 -7 OFFCURVE",
"506 3 OFFCURVE",
"506 23 CURVE SMOOTH",
"506 517 LINE",
"517 517 LINE SMOOTH",
"536 517 OFFCURVE",
"546 524 OFFCURVE",
"546 537 CURVE SMOOTH",
"546 552 OFFCURVE",
"536 560 OFFCURVE",
"517 560 CURVE SMOOTH",
"506 560 LINE",
"506 612 LINE SMOOTH",
"506 633 OFFCURVE",
"500 643 OFFCURVE",
"487 643 CURVE SMOOTH",
"472 643 OFFCURVE",
"464 633 OFFCURVE",
"464 612 CURVE SMOOTH",
"464 560 LINE",
"272 560 LINE SMOOTH",
"255 560 OFFCURVE",
"246 553 OFFCURVE",
"246 538 CURVE SMOOTH",
"246 524 OFFCURVE",
"254 517 OFFCURVE",
"270 517 CURVE SMOOTH",
"271 517 OFFCURVE",
"271 517 OFFCURVE",
"272 517 CURVE SMOOTH",
"464 517 LINE"
);
},
{
closed = 1;
nodes = (
"104 346 OFFCURVE",
"115 381 OFFCURVE",
"146 399 CURVE SMOOTH",
"177 417 OFFCURVE",
"206 419 OFFCURVE",
"270 419 CURVE SMOOTH",
"464 419 LINE",
"464 228 LINE SMOOTH",
"464 108 OFFCURVE",
"404 42 OFFCURVE",
"299 42 CURVE SMOOTH",
"270 42 LINE SMOOTH",
"206 42 OFFCURVE",
"177 45 OFFCURVE",
"146 63 CURVE SMOOTH",
"115 81 OFFCURVE",
"104 115 OFFCURVE",
"104 175 CURVE SMOOTH",
"104 286 LINE SMOOTH"
);
}
);
width = 580;
}
);
leftKerningGroup = c;
note = dcroat;
rightKerningGroup = numbersign;
unicode = 0111;
},
{
glyphname = Eogonek;
lastChange = "2016-07-31 02:06:19 +0000";
layers = (
{
layerId = "6C3B4F89-AC86-48DF-BE99-AFD9A4DA4FE2";
paths = (
{
closed = 1;
nodes = (
"358 -201 OFFCURVE",
"401 -188 OFFCURVE",
"401 -156 CURVE SMOOTH",
"401 -147 OFFCURVE",
"398 -143 OFFCURVE",
"391 -143 CURVE SMOOTH",
"389 -143 OFFCURVE",
"380 -146 OFFCURVE",
"365 -152 CURVE SMOOTH",
"350 -158 OFFCURVE",
"336 -161 OFFCURVE",
"325 -161 CURVE SMOOTH",
"294 -161 OFFCURVE",
"278 -141 OFFCURVE",
"278 -102 CURVE SMOOTH",
"278 -78 OFFCURVE",
"316 -15 OFFCURVE",
"341 0 CURVE",
"499 0 LINE SMOOTH",
"518 0 OFFCURVE",
"528 6 OFFCURVE",
"528 19 CURVE SMOOTH",
"528 34 OFFCURVE",
"518 42 OFFCURVE",
"499 42 CURVE SMOOTH",
"126 42 LINE",
"126 337 LINE",
"381 337 LINE SMOOTH",
"401 337 OFFCURVE",
"411 343 OFFCURVE",
"411 356 CURVE SMOOTH",
"411 371 OFFCURVE",
"401 379 OFFCURVE",
"381 379 CURVE SMOOTH",
"126 379 LINE",
"126 594 LINE",
"499 594 LINE SMOOTH",
"518 594 OFFCURVE",
"528 600 OFFCURVE",
"528 613 CURVE SMOOTH",
"528 628 OFFCURVE",
"518 636 OFFCURVE",
"499 636 CURVE SMOOTH",
"103 636 LINE SMOOTH",
"90 636 OFFCURVE",
"84 626 OFFCURVE",
"84 605 CURVE SMOOTH",
"84 31 LINE SMOOTH",
"84 10 OFFCURVE",
"90 0 OFFCURVE",
"103 0 CURVE SMOOTH",
"285 0 LINE",
"252 -44 OFFCURVE",
"236 -79 OFFCURVE",
"236 -106 CURVE SMOOTH",
"236 -159 OFFCURVE",
"274 -201 OFFCURVE",
"327 -201 CURVE SMOOTH"
);
}
);
width = 577;
}
);
leftKerningGroup = B;
note = Eogonek;
rightKerningGroup = E;
unicode = 0118;
},
{
glyphname = eogonek;
lastChange = "2016-07-31 02:06:19 +0000";
layers = (
{
layerId = "6C3B4F89-AC86-48DF-BE99-AFD9A4DA4FE2";
paths = (
{
closed = 1;
nodes = (
"388 -201 OFFCURVE",
"431 -188 OFFCURVE",
"431 -156 CURVE SMOOTH",
"431 -147 OFFCURVE",
"428 -143 OFFCURVE",
"421 -143 CURVE SMOOTH",
"419 -143 OFFCURVE",
"410 -146 OFFCURVE",
"395 -152 CURVE SMOOTH",
"380 -158 OFFCURVE",
"366 -161 OFFCURVE",
"355 -161 CURVE SMOOTH",
"324 -161 OFFCURVE",
"308 -141 OFFCURVE",
"308 -102 CURVE SMOOTH",
"308 -78 OFFCURVE",
"346 -15 OFFCURVE",
"371 0 CURVE",
"411 0 LINE SMOOTH",
"495 0 OFFCURVE",
"506 49 OFFCURVE",
"506 110 CURVE SMOOTH",
"506 145 OFFCURVE",
"464 148 OFFCURVE",
"464 105 CURVE SMOOTH",
"464 61 OFFCURVE",
"449 42 OFFCURVE",
"404 42 CURVE SMOOTH",
"270 42 LINE SMOOTH",
"206 42 OFFCURVE",
"177 45 OFFCURVE",
"146 63 CURVE SMOOTH",
"115 81 OFFCURVE",
"104 115 OFFCURVE",
"104 175 CURVE SMOOTH",
"104 250 LINE",
"506 250 LINE",
"506 286 LINE SMOOTH",
"506 426 OFFCURVE",
"439 461 OFFCURVE",
"299 461 CURVE SMOOTH",
"270 461 LINE SMOOTH",
"129 461 OFFCURVE",
"62 426 OFFCURVE",
"62 286 CURVE SMOOTH",
"62 175 LINE SMOOTH",
"62 35 OFFCURVE",
"129 0 OFFCURVE",
"270 0 CURVE SMOOTH",
"315 0 LINE",
"282 -44 OFFCURVE",
"266 -79 OFFCURVE",
"266 -106 CURVE SMOOTH",
"266 -159 OFFCURVE",
"304 -201 OFFCURVE",
"357 -201 CURVE SMOOTH"
);
},
{
closed = 1;
nodes = (
"420 419 OFFCURVE",
"464 400 OFFCURVE",
"464 292 CURVE",
"104 292 LINE",
"104 400 OFFCURVE",
"147 419 OFFCURVE",
"270 419 CURVE SMOOTH",
"299 419 LINE SMOOTH"
);
}
);
width = 566;
}
);
leftKerningGroup = c;
note = eogonek;
rightKerningGroup = e;
unicode = 0119;
},
{
glyphname = Hbar;
lastChange = "2016-07-31 02:06:19 +0000";
layers = (
{
layerId = "6C3B4F89-AC86-48DF-BE99-AFD9A4DA4FE2";
paths = (
{
closed = 1;
nodes = (
"85 23 LINE SMOOTH",
"85 3 OFFCURVE",
"92 -7 OFFCURVE",
"106 -7 CURVE SMOOTH",
"120 -7 OFFCURVE",
"127 3 OFFCURVE",
"127 23 CURVE SMOOTH",
"127 322 LINE",
"487 322 LINE",
"487 23 LINE SMOOTH",
"487 3 OFFCURVE",
"494 -7 OFFCURVE",
"508 -7 CURVE SMOOTH",
"522 -7 OFFCURVE",
"529 3 OFFCURVE",
"529 23 CURVE SMOOTH",
"529 508 LINE",
"558 508 LINE SMOOTH",
"577 508 OFFCURVE",
"587 515 OFFCURVE",
"587 528 CURVE SMOOTH",
"587 543 OFFCURVE",
"577 551 OFFCURVE",
"558 551 CURVE SMOOTH",
"529 551 LINE",
"529 612 LINE SMOOTH",
"529 633 OFFCURVE",
"522 643 OFFCURVE",
"508 643 CURVE SMOOTH",
"494 643 OFFCURVE",
"487 633 OFFCURVE",
"487 612 CURVE SMOOTH",
"487 551 LINE",
"127 551 LINE",
"127 612 LINE SMOOTH",
"127 633 OFFCURVE",
"119 643 OFFCURVE",
"104 643 CURVE SMOOTH",
"91 643 OFFCURVE",
"85 633 OFFCURVE",
"85 612 CURVE SMOOTH",
"85 551 LINE",
"53 551 LINE SMOOTH",
"52 551 OFFCURVE",
"52 551 OFFCURVE",
"51 551 CURVE SMOOTH",
"35 551 OFFCURVE",
"27 544 OFFCURVE",
"27 530 CURVE SMOOTH",
"27 515 OFFCURVE",
"36 508 OFFCURVE",
"53 508 CURVE SMOOTH",
"85 508 LINE"
);
},
{
closed = 1;
nodes = (
"127 364 LINE",
"127 508 LINE",
"487 508 LINE",
"487 364 LINE"
);
}
);
width = 614;
}
);
leftKerningGroup = B;
note = Hbar;
rightKerningGroup = H;
unicode = 0126;
},
{
glyphname = hbar;
lastChange = "2016-07-31 02:06:19 +0000";
layers = (
{
layerId = "6C3B4F89-AC86-48DF-BE99-AFD9A4DA4FE2";
paths = (
{
closed = 1;
nodes = (
"518 426 OFFCURVE",
"451 461 OFFCURVE",
"311 461 CURVE SMOOTH",
"282 461 LINE SMOOTH",
"209 461 OFFCURVE",
"153 437 OFFCURVE",
"116 389 CURVE",
"116 510 LINE",
"320 510 LINE SMOOTH",
"339 510 OFFCURVE",
"349 517 OFFCURVE",
"349 530 CURVE SMOOTH",
"349 545 OFFCURVE",
"339 553 OFFCURVE",
"320 553 CURVE SMOOTH",
"116 553 LINE",
"116 612 LINE SMOOTH",
"116 633 OFFCURVE",
"108 643 OFFCURVE",
"93 643 CURVE SMOOTH",
"80 643 OFFCURVE",
"74 633 OFFCURVE",
"74 612 CURVE SMOOTH",
"74 553 LINE",
"73 553 OFFCURVE",
"73 553 OFFCURVE",
"72 553 CURVE SMOOTH",
"57 553 OFFCURVE",
"49 546 OFFCURVE",
"49 532 CURVE SMOOTH",
"49 517 OFFCURVE",
"57 510 OFFCURVE",
"74 510 CURVE",
"74 23 LINE SMOOTH",
"74 3 OFFCURVE",
"81 -7 OFFCURVE",
"95 -7 CURVE SMOOTH",
"109 -7 OFFCURVE",
"116 3 OFFCURVE",
"116 23 CURVE SMOOTH",
"116 232 LINE SMOOTH",
"116 352 OFFCURVE",
"175 419 OFFCURVE",
"282 419 CURVE SMOOTH",
"311 419 LINE SMOOTH",
"374 419 OFFCURVE",
"403 417 OFFCURVE",
"434 399 CURVE SMOOTH",
"465 381 OFFCURVE",
"476 346 OFFCURVE",
"476 286 CURVE SMOOTH",
"476 23 LINE SMOOTH",
"476 3 OFFCURVE",
"483 -7 OFFCURVE",
"497 -7 CURVE SMOOTH",
"511 -7 OFFCURVE",
"518 3 OFFCURVE",
"518 23 CURVE SMOOTH",
"518 286 LINE SMOOTH"
);
}
);
width = 588;
}
);
note = hbar;
rightKerningGroup = h;
unicode = 0127;
},
{
glyphname = Iogonek;
lastChange = "2016-07-31 02:06:19 +0000";
layers = (
{
layerId = "6C3B4F89-AC86-48DF-BE99-AFD9A4DA4FE2";
paths = (
{
closed = 1;
nodes = (
"184 -142 OFFCURVE",
"181 -138 OFFCURVE",
"174 -138 CURVE SMOOTH",
"172 -138 OFFCURVE",
"163 -141 OFFCURVE",
"148 -147 CURVE SMOOTH",
"133 -153 OFFCURVE",
"119 -156 OFFCURVE",
"108 -156 CURVE SMOOTH",
"77 -156 OFFCURVE",
"61 -136 OFFCURVE",
"61 -97 CURVE SMOOTH",
"61 -77 OFFCURVE",
"86 -31 OFFCURVE",
"110 -7 CURVE",
"121 -5 OFFCURVE",
"127 4 OFFCURVE",
"127 20 CURVE SMOOTH",
"127 615 LINE SMOOTH",
"127 634 OFFCURVE",
"120 643 OFFCURVE",
"106 643 CURVE SMOOTH",
"92 643 OFFCURVE",
"85 634 OFFCURVE",
"85 615 CURVE SMOOTH",
"85 26 LINE",
"54 -9 OFFCURVE",
"19 -68 OFFCURVE",
"19 -97 CURVE SMOOTH",
"19 -156 OFFCURVE",
"57 -196 OFFCURVE",
"110 -196 CURVE SMOOTH",
"141 -196 OFFCURVE",
"184 -183 OFFCURVE",
"184 -151 CURVE SMOOTH"
);
}
);
width = 211;
}
);
leftKerningGroup = B;
note = Iogonek;
rightKerningGroup = H;
unicode = 012E;
},
{
glyphname = iogonek;
lastChange = "2016-07-31 02:06:19 +0000";
layers = (
{
layerId = "6C3B4F89-AC86-48DF-BE99-AFD9A4DA4FE2";
paths = (
{
closed = 1;
nodes = (
"173 -146 OFFCURVE",
"170 -142 OFFCURVE",
"163 -142 CURVE SMOOTH",
"161 -142 OFFCURVE",
"152 -145 OFFCURVE",
"137 -151 CURVE SMOOTH",
"122 -157 OFFCURVE",
"108 -160 OFFCURVE",
"97 -160 CURVE SMOOTH",
"66 -160 OFFCURVE",
"50 -140 OFFCURVE",
"50 -101 CURVE SMOOTH",
"50 -80 OFFCURVE",
"80 -29 OFFCURVE",
"104 -6 CURVE",
"113 -3 OFFCURVE",
"118 5 OFFCURVE",
"118 20 CURVE SMOOTH",
"118 440 LINE SMOOTH",
"118 459 OFFCURVE",
"111 468 OFFCURVE",
"97 468 CURVE SMOOTH",
"83 468 OFFCURVE",
"76 459 OFFCURVE",
"76 440 CURVE SMOOTH",
"76 24 LINE",
"45 -9 OFFCURVE",
"8 -70 OFFCURVE",
"8 -101 CURVE SMOOTH",
"8 -160 OFFCURVE",
"46 -200 OFFCURVE",
"99 -200 CURVE SMOOTH",
"130 -200 OFFCURVE",
"173 -187 OFFCURVE",
"173 -155 CURVE SMOOTH"
);
},
{
closed = 1;
nodes = (
"51 582 OFFCURVE",
"75 565 OFFCURVE",
"96 565 CURVE SMOOTH",
"117 565 OFFCURVE",
"143 582 OFFCURVE",
"143 601 CURVE SMOOTH",
"143 620 OFFCURVE",
"117 637 OFFCURVE",
"96 637 CURVE SMOOTH",
"75 637 OFFCURVE",
"52 620 OFFCURVE",
"51 601 CURVE"
);
}
);
width = 192;
}
);
note = iogonek;
rightKerningGroup = numbersign;
unicode = 012F;
},
{
glyphname = dotlessi;
lastChange = "2016-07-31 02:06:19 +0000";
layers = (
{
layerId = "6C3B4F89-AC86-48DF-BE99-AFD9A4DA4FE2";
paths = (
{
closed = 1;
nodes = (
"116 459 OFFCURVE",
"109 468 OFFCURVE",
"95 468 CURVE SMOOTH",
"81 468 OFFCURVE",
"74 459 OFFCURVE",
"74 440 CURVE SMOOTH",
"74 20 LINE SMOOTH",
"74 2 OFFCURVE",
"81 -7 OFFCURVE",
"95 -7 CURVE SMOOTH",
"109 -7 OFFCURVE",
"116 2 OFFCURVE",
"116 20 CURVE SMOOTH",
"116 440 LINE SMOOTH"
);
}
);
width = 190;
}
);
note = dotlessi;
rightKerningGroup = numbersign;
unicode = 0131;
},
{
glyphname = Lslash;
lastChange = "2016-07-31 02:06:19 +0000";
layers = (
{
layerId = "6C3B4F89-AC86-48DF-BE99-AFD9A4DA4FE2";
paths = (
{
closed = 1;
nodes = (
"132 615 LINE SMOOTH",
"132 634 OFFCURVE",
"125 643 OFFCURVE",
"111 643 CURVE SMOOTH",
"97 643 OFFCURVE",
"90 634 OFFCURVE",
"90 615 CURVE SMOOTH",
"90 361 LINE",
"20 326 LINE SMOOTH",
"7 319 OFFCURVE",
"1 313 OFFCURVE",
"1 306 CURVE SMOOTH",
"1 291 OFFCURVE",
"8 283 OFFCURVE",
"22 283 CURVE SMOOTH",
"26 283 OFFCURVE",
"30 284 OFFCURVE",
"35 286 CURVE",
"90 313 LINE",
"90 31 LINE SMOOTH",
"90 10 OFFCURVE",
"96 0 OFFCURVE",
"109 0 CURVE SMOOTH",
"450 0 LINE SMOOTH",
"469 0 OFFCURVE",
"478 7 OFFCURVE",
"478 21 CURVE SMOOTH",
"478 35 OFFCURVE",
"469 42 OFFCURVE",
"450 42 CURVE SMOOTH",
"132 42 LINE",
"132 334 LINE",
"205 370 LINE",
"220 376 OFFCURVE",
"227 383 OFFCURVE",
"227 392 CURVE SMOOTH",
"227 403 OFFCURVE",
"217 413 OFFCURVE",
"207 413 CURVE SMOOTH",
"202 413 OFFCURVE",
"196 412 OFFCURVE",
"190 410 CURVE",
"132 381 LINE"
);
}
);
width = 501;
}
);
leftKerningGroup = B;
note = Lslash;
rightKerningGroup = L;
unicode = 0141;
},
{
glyphname = lslash;
lastChange = "2016-07-31 02:06:19 +0000";
layers = (
{
layerId = "6C3B4F89-AC86-48DF-BE99-AFD9A4DA4FE2";
paths = (
{
closed = 1;
nodes = (
"243 0 OFFCURVE",
"253 7 OFFCURVE",
"253 21 CURVE SMOOTH",
"253 35 OFFCURVE",
"242 42 OFFCURVE",
"221 42 CURVE SMOOTH",
"178 42 OFFCURVE",
"163 59 OFFCURVE",
"163 106 CURVE SMOOTH",
"163 335 LINE",
"233 370 LINE",
"248 376 OFFCURVE",
"255 383 OFFCURVE",
"255 392 CURVE SMOOTH",
"255 403 OFFCURVE",
"245 413 OFFCURVE",
"234 413 CURVE SMOOTH",
"229 413 OFFCURVE",
"223 412 OFFCURVE",
"218 410 CURVE",
"163 383 LINE",
"163 613 LINE SMOOTH",
"163 633 OFFCURVE",
"156 643 OFFCURVE",
"142 643 CURVE SMOOTH",
"128 643 OFFCURVE",
"121 633 OFFCURVE",
"121 613 CURVE SMOOTH",
"121 362 LINE",
"48 326 LINE",
"35 319 OFFCURVE",
"29 313 OFFCURVE",
"29 306 CURVE SMOOTH",
"29 291 OFFCURVE",
"36 283 OFFCURVE",
"50 283 CURVE SMOOTH",
"54 283 OFFCURVE",
"58 284 OFFCURVE",
"63 286 CURVE",
"121 315 LINE",
"121 124 LINE SMOOTH",
"121 31 OFFCURVE",
"143 0 OFFCURVE",
"216 0 CURVE SMOOTH",
"223 0 LINE SMOOTH"
);
}
);
width = 299;
}
);
leftKerningGroup = l;
note = lslash;
rightKerningGroup = l;
unicode = 0142;
},
{
glyphname = Eng;
lastChange = "2016-07-31 02:06:19 +0000";
layers = (
{
layerId = "6C3B4F89-AC86-48DF-BE99-AFD9A4DA4FE2";
paths = (
{
closed = 1;
nodes = (
"122 637 OFFCURVE",
"113 643 OFFCURVE",
"103 643 CURVE SMOOTH",
"90 643 OFFCURVE",
"84 633 OFFCURVE",
"84 612 CURVE SMOOTH",
"84 23 LINE SMOOTH",
"84 3 OFFCURVE",
"91 -7 OFFCURVE",
"105 -7 CURVE SMOOTH",
"119 -7 OFFCURVE",
"126 3 OFFCURVE",
"126 23 CURVE SMOOTH",
"126 557 LINE",
"486 9 LINE",
"486 0 LINE SMOOTH",
"486 -60 OFFCURVE",
"475 -94 OFFCURVE",
"444 -112 CURVE SMOOTH",
"413 -130 OFFCURVE",
"384 -133 OFFCURVE",
"320 -133 CURVE SMOOTH",
"299 -133 OFFCURVE",
"289 -140 OFFCURVE",
"289 -154 CURVE SMOOTH",
"289 -168 OFFCURVE",
"299 -175 OFFCURVE",
"320 -175 CURVE SMOOTH",
"389 -175 OFFCURVE",
"430 -170 OFFCURVE",
"470 -146 CURVE SMOOTH",
"509 -123 OFFCURVE",
"528 -75 OFFCURVE",
"528 0 CURVE SMOOTH",
"528 612 LINE SMOOTH",
"528 633 OFFCURVE",
"521 643 OFFCURVE",
"507 643 CURVE SMOOTH",
"493 643 OFFCURVE",
"486 633 OFFCURVE",
"486 612 CURVE SMOOTH",
"486 84 LINE",
"129 626 LINE SMOOTH"
);
}
);
width = 612;
}
);
leftKerningGroup = B;
note = Eng;
rightKerningGroup = H;
unicode = 014A;
},
{
glyphname = eng;
lastChange = "2016-07-31 02:06:19 +0000";
layers = (
{
layerId = "6C3B4F89-AC86-48DF-BE99-AFD9A4DA4FE2";
paths = (
{
closed = 1;
nodes = (
"374 419 OFFCURVE",
"403 417 OFFCURVE",
"434 399 CURVE SMOOTH",
"465 381 OFFCURVE",
"476 346 OFFCURVE",
"476 286 CURVE SMOOTH",
"476 0 LINE SMOOTH",
"476 -60 OFFCURVE",
"465 -94 OFFCURVE",
"434 -112 CURVE SMOOTH",
"403 -130 OFFCURVE",
"374 -133 OFFCURVE",
"310 -133 CURVE SMOOTH",
"289 -133 OFFCURVE",
"279 -140 OFFCURVE",
"279 -154 CURVE SMOOTH",
"279 -168 OFFCURVE",
"289 -175 OFFCURVE",
"310 -175 CURVE SMOOTH",
"379 -175 OFFCURVE",
"420 -170 OFFCURVE",
"460 -146 CURVE SMOOTH",
"499 -123 OFFCURVE",
"518 -75 OFFCURVE",
"518 0 CURVE SMOOTH",
"518 286 LINE SMOOTH",
"518 426 OFFCURVE",
"451 461 OFFCURVE",
"311 461 CURVE SMOOTH",
"282 461 LINE SMOOTH",
"209 461 OFFCURVE",
"153 437 OFFCURVE",
"116 389 CURVE",
"116 437 LINE SMOOTH",
"116 458 OFFCURVE",
"108 468 OFFCURVE",
"93 468 CURVE SMOOTH",
"80 468 OFFCURVE",
"74 458 OFFCURVE",
"74 437 CURVE SMOOTH",
"74 23 LINE SMOOTH",
"74 3 OFFCURVE",
"81 -7 OFFCURVE",
"95 -7 CURVE SMOOTH",
"109 -7 OFFCURVE",
"116 3 OFFCURVE",
"116 23 CURVE SMOOTH",
"116 232 LINE SMOOTH",
"116 352 OFFCURVE",
"175 419 OFFCURVE",
"282 419 CURVE SMOOTH",
"311 419 LINE SMOOTH"
);
}
);
width = 589;
}
);
leftKerningGroup = m;
note = eng;
rightKerningGroup = h;
unicode = 014B;
},
{
glyphname = OE;
lastChange = "2016-07-31 02:06:19 +0000";
layers = (
{
layerId = "6C3B4F89-AC86-48DF-BE99-AFD9A4DA4FE2";
paths = (
{
closed = 1;
nodes = (
"347 636 OFFCURVE",
"309 646 OFFCURVE",
"264 646 CURVE SMOOTH",
"263 646 LINE SMOOTH",
"174 646 OFFCURVE",
"65 549 OFFCURVE",
"65 409 CURVE SMOOTH",
"65 227 LINE SMOOTH",
"65 87 OFFCURVE",
"172 -9 OFFCURVE",
"263 -9 CURVE SMOOTH",
"308 -9 OFFCURVE",
"346 0 OFFCURVE",
"376 18 CURVE",
"378 6 OFFCURVE",
"384 0 OFFCURVE",
"394 0 CURVE SMOOTH",
"633 0 LINE SMOOTH",
"653 0 OFFCURVE",
"663 6 OFFCURVE",
"663 19 CURVE SMOOTH",
"663 34 OFFCURVE",
"653 42 OFFCURVE",
"633 42 CURVE SMOOTH",
"417 42 LINE",
"417 337 LINE",
"515 337 LINE SMOOTH",
"535 337 OFFCURVE",
"545 343 OFFCURVE",
"545 356 CURVE SMOOTH",
"545 371 OFFCURVE",
"535 379 OFFCURVE",
"515 379 CURVE SMOOTH",
"417 379 LINE",
"417 594 LINE",
"633 594 LINE SMOOTH",
"653 594 OFFCURVE",
"663 601 OFFCURVE",
"663 615 CURVE SMOOTH",
"663 629 OFFCURVE",
"653 636 OFFCURVE",
"633 636 CURVE SMOOTH",
"394 636 LINE SMOOTH",
"384 636 OFFCURVE",
"378 630 OFFCURVE",
"376 617 CURVE"
);
},
{
closed = 1;
nodes = (
"350 45 OFFCURVE",
"316 33 OFFCURVE",
"272 33 CURVE SMOOTH",
"184 33 OFFCURVE",
"106 112 OFFCURVE",
"106 227 CURVE SMOOTH",
"106 409 LINE SMOOTH",
"106 524 OFFCURVE",
"184 603 OFFCURVE",
"272 603 CURVE SMOOTH",
"316 603 OFFCURVE",
"350 591 OFFCURVE",
"375 566 CURVE",
"375 70 LINE"
);
}
);
width = 706;
}
);
leftKerningGroup = O;
note = OE;
rightKerningGroup = E;
unicode = 0152;
},
{
glyphname = oe;
lastChange = "2016-07-31 02:06:19 +0000";
layers = (
{
layerId = "6C3B4F89-AC86-48DF-BE99-AFD9A4DA4FE2";
paths = (
{
closed = 1;
nodes = (
"616 380 OFFCURVE",
"625 345 OFFCURVE",
"625 292 CURVE",
"395 292 LINE",
"395 399 OFFCURVE",
"431 419 OFFCURVE",
"510 419 CURVE SMOOTH",
"549 419 OFFCURVE",
"578 411 OFFCURVE",
"597 396 CURVE SMOOTH"
);
},
{
closed = 1;
nodes = (
"353 82 OFFCURVE",
"332 42 OFFCURVE",
"229 42 CURVE SMOOTH",
"125 42 OFFCURVE",
"103 82 OFFCURVE",
"103 175 CURVE SMOOTH",
"103 286 LINE SMOOTH",
"103 379 OFFCURVE",
"125 419 OFFCURVE",
"229 419 CURVE SMOOTH",
"332 419 OFFCURVE",
"353 379 OFFCURVE",
"353 286 CURVE SMOOTH",
"353 175 LINE SMOOTH"
);
},
{
closed = 1;
nodes = (
"308 0 OFFCURVE",
"349 23 OFFCURVE",
"376 74 CURVE",
"399 25 OFFCURVE",
"450 0 OFFCURVE",
"529 0 CURVE SMOOTH",
"600 0 OFFCURVE",
"667 16 OFFCURVE",
"667 104 CURVE SMOOTH",
"667 147 OFFCURVE",
"625 146 OFFCURVE",
"625 109 CURVE SMOOTH",
"625 64 OFFCURVE",
"593 42 OFFCURVE",
"529 42 CURVE SMOOTH",
"461 42 OFFCURVE",
"395 59 OFFCURVE",
"395 175 CURVE SMOOTH",
"395 250 LINE",
"667 250 LINE",
"667 286 LINE SMOOTH",
"667 423 OFFCURVE",
"607 461 OFFCURVE",
"510 461 CURVE SMOOTH",
"442 461 OFFCURVE",
"397 438 OFFCURVE",
"374 391 CURVE",
"346 439 OFFCURVE",
"304 461 OFFCURVE",
"228 461 CURVE SMOOTH",
"107 461 OFFCURVE",
"62 407 OFFCURVE",
"62 286 CURVE SMOOTH",
"62 175 LINE SMOOTH",
"62 54 OFFCURVE",
"107 0 OFFCURVE",
"228 0 CURVE SMOOTH"
);
}
);
width = 727;
}
);
leftKerningGroup = c;
note = oe;
rightKerningGroup = e;
unicode = 0153;
},
{
glyphname = Scedilla;
lastChange = "2016-07-31 02:06:19 +0000";
layers = (
{
layerId = "6C3B4F89-AC86-48DF-BE99-AFD9A4DA4FE2";
paths = (
{
closed = 1;
nodes = (
"200 -152 OFFCURVE",
"241 -165 OFFCURVE",
"282 -165 CURVE SMOOTH",
"323 -165 OFFCURVE",
"365 -132 OFFCURVE",
"365 -92 CURVE SMOOTH",
"365 -73 OFFCURVE",
"355 -55 OFFCURVE",
"336 -40 CURVE SMOOTH",
"316 -25 OFFCURVE",
"304 -15 OFFCURVE",
"301 -8 CURVE",
"347 -8 LINE SMOOTH",
"462 -8 OFFCURVE",
"508 66 OFFCURVE",
"508 154 CURVE SMOOTH",
"508 247 OFFCURVE",
"467 303 OFFCURVE",
"385 324 CURVE SMOOTH",
"168 376 LINE SMOOTH",
"132 385 OFFCURVE",
"104 428 OFFCURVE",
"104 485 CURVE SMOOTH",
"104 541 OFFCURVE",
"135 602 OFFCURVE",
"206 602 CURVE SMOOTH",
"300 602 LINE SMOOTH",
"364 602 OFFCURVE",
"392 599 OFFCURVE",
"424 583 CURVE",
"455 566 OFFCURVE",
"465 531 OFFCURVE",
"465 471 CURVE SMOOTH",
"465 452 OFFCURVE",
"472 443 OFFCURVE",
"487 443 CURVE SMOOTH",
"501 443 OFFCURVE",
"508 452 OFFCURVE",
"508 471 CURVE SMOOTH",
"508 544 OFFCURVE",
"489 591 OFFCURVE",
"450 614 CURVE SMOOTH",
"410 638 OFFCURVE",
"369 644 OFFCURVE",
"300 644 CURVE SMOOTH",
"224 644 LINE SMOOTH",
"109 644 OFFCURVE",
"62 572 OFFCURVE",
"62 484 CURVE SMOOTH",
"62 395 OFFCURVE",
"95 352 OFFCURVE",
"186 329 CURVE SMOOTH",
"402 276 LINE SMOOTH",
"433 269 OFFCURVE",
"466 221 OFFCURVE",
"466 158 CURVE SMOOTH",
"466 94 OFFCURVE",
"435 34 OFFCURVE",
"364 34 CURVE SMOOTH",
"271 34 LINE SMOOTH",
"146 34 OFFCURVE",
"105 52 OFFCURVE",
"105 167 CURVE SMOOTH",
"105 186 OFFCURVE",
"98 195 OFFCURVE",
"85 195 CURVE SMOOTH",
"70 195 OFFCURVE",
"62 186 OFFCURVE",
"62 167 CURVE SMOOTH",
"62 27 OFFCURVE",
"133 -5 OFFCURVE",
"257 -8 CURVE",
"262 -23 OFFCURVE",
"274 -39 OFFCURVE",
"294 -54 CURVE",
"313 -70 OFFCURVE",
"323 -83 OFFCURVE",
"323 -94 CURVE SMOOTH",
"323 -115 OFFCURVE",
"307 -125 OFFCURVE",
"276 -125 CURVE SMOOTH",
"265 -125 OFFCURVE",
"251 -122 OFFCURVE",
"236 -116 CURVE SMOOTH",
"221 -110 OFFCURVE",
"212 -107 OFFCURVE",
"210 -107 CURVE SMOOTH",
"203 -107 OFFCURVE",
"200 -111 OFFCURVE",
"200 -120 CURVE SMOOTH"
);
}
);
width = 570;
}
);
leftKerningGroup = S;
note = Scedilla;
rightKerningGroup = S;
unicode = 015E;
},
{
glyphname = scedilla;
lastChange = "2016-07-31 02:06:19 +0000";
layers = (
{
layerId = "6C3B4F89-AC86-48DF-BE99-AFD9A4DA4FE2";
paths = (
{
closed = 1;
nodes = (
"192 -152 OFFCURVE",
"233 -165 OFFCURVE",
"274 -165 CURVE SMOOTH",
"315 -165 OFFCURVE",
"357 -131 OFFCURVE",
"357 -95 CURVE SMOOTH",
"357 -59 OFFCURVE",
"335 -44 OFFCURVE",
"312 -27 CURVE",
"300 -19 OFFCURVE",
"293 -10 OFFCURVE",
"290 0 CURVE",
"383 0 LINE SMOOTH",
"465 0 OFFCURVE",
"506 41 OFFCURVE",
"506 123 CURVE SMOOTH",
"506 212 OFFCURVE",
"465 257 OFFCURVE",
"383 257 CURVE SMOOTH",
"166 257 LINE SMOOTH",
"129 257 OFFCURVE",
"102 288 OFFCURVE",
"102 343 CURVE SMOOTH",
"102 394 OFFCURVE",
"123 419 OFFCURVE",
"166 419 CURVE SMOOTH",
"402 419 LINE SMOOTH",
"447 419 OFFCURVE",
"462 399 OFFCURVE",
"462 356 CURVE SMOOTH",
"462 335 OFFCURVE",
"469 324 OFFCURVE",
"483 324 CURVE SMOOTH",
"497 324 OFFCURVE",
"504 336 OFFCURVE",
"504 360 CURVE SMOOTH",
"504 408 OFFCURVE",
"493 461 OFFCURVE",
"413 461 CURVE SMOOTH",
"412 461 OFFCURVE",
"410 461 OFFCURVE",
"409 461 CURVE SMOOTH",
"184 461 LINE SMOOTH",
"95 461 OFFCURVE",
"60 420 OFFCURVE",
"60 343 CURVE SMOOTH",
"60 258 OFFCURVE",
"101 215 OFFCURVE",
"184 215 CURVE SMOOTH",
"400 215 LINE SMOOTH",
"437 215 OFFCURVE",
"464 179 OFFCURVE",
"464 123 CURVE SMOOTH",
"464 69 OFFCURVE",
"443 42 OFFCURVE",
"400 42 CURVE SMOOTH",
"162 42 LINE SMOOTH",
"117 42 OFFCURVE",
"102 61 OFFCURVE",
"102 105 CURVE SMOOTH",
"102 126 OFFCURVE",
"95 137 OFFCURVE",
"81 137 CURVE SMOOTH",
"67 137 OFFCURVE",
"60 125 OFFCURVE",
"60 101 CURVE SMOOTH",
"60 52 OFFCURVE",
"71 0 OFFCURVE",
"155 0 CURVE SMOOTH",
"247 0 LINE",
"252 -31 OFFCURVE",
"280 -51 OFFCURVE",
"300 -67 CURVE",
"310 -76 OFFCURVE",
"315 -85 OFFCURVE",
"315 -94 CURVE SMOOTH",
"315 -115 OFFCURVE",
"299 -125 OFFCURVE",
"268 -125 CURVE SMOOTH",
"257 -125 OFFCURVE",
"243 -122 OFFCURVE",
"228 -116 CURVE SMOOTH",
"213 -110 OFFCURVE",
"204 -107 OFFCURVE",
"202 -107 CURVE SMOOTH",
"195 -107 OFFCURVE",
"192 -111 OFFCURVE",
"192 -120 CURVE SMOOTH"
);
}
);
width = 566;
}
);
leftKerningGroup = s;
note = scedilla;
rightKerningGroup = s;
unicode = 015F;
},
{
glyphname = Tcommaaccent;
lastChange = "2016-07-31 02:06:19 +0000";
layers = (
{
layerId = "6C3B4F89-AC86-48DF-BE99-AFD9A4DA4FE2";
paths = (
{
closed = 1;
nodes = (
"405 594 LINE SMOOTH",
"424 594 OFFCURVE",
"433 601 OFFCURVE",
"433 615 CURVE SMOOTH",
"433 629 OFFCURVE",
"424 636 OFFCURVE",
"405 636 CURVE SMOOTH",
"54 636 LINE SMOOTH",
"35 636 OFFCURVE",
"26 629 OFFCURVE",
"26 615 CURVE SMOOTH",
"26 601 OFFCURVE",
"35 594 OFFCURVE",
"54 594 CURVE SMOOTH",
"209 594 LINE",
"209 15 LINE SMOOTH",
"209 -16 OFFCURVE",
"228 -40 OFFCURVE",
"244 -51 CURVE SMOOTH",
"267 -66 OFFCURVE",
"278 -80 OFFCURVE",
"278 -94 CURVE SMOOTH",
"278 -115 OFFCURVE",
"262 -125 OFFCURVE",
"231 -125 CURVE SMOOTH",
"220 -125 OFFCURVE",
"206 -122 OFFCURVE",
"191 -116 CURVE SMOOTH",
"176 -110 OFFCURVE",
"167 -107 OFFCURVE",
"165 -107 CURVE SMOOTH",
"158 -107 OFFCURVE",
"155 -111 OFFCURVE",
"155 -120 CURVE SMOOTH",
"155 -152 OFFCURVE",
"196 -165 OFFCURVE",
"237 -165 CURVE SMOOTH",
"278 -165 OFFCURVE",
"320 -133 OFFCURVE",
"320 -88 CURVE SMOOTH",
"320 -66 OFFCURVE",
"309 -49 OFFCURVE",
"286 -36 CURVE SMOOTH",
"263 -23 OFFCURVE",
"251 -6 OFFCURVE",
"251 15 CURVE SMOOTH",
"251 594 LINE"
);
}
);
width = 460;
}
);
leftKerningGroup = T;
note = Tcommaaccent;
rightKerningGroup = T;
unicode = 0162;
},
{
glyphname = tcommaaccent;
lastChange = "2016-07-31 02:06:19 +0000";
layers = (
{
layerId = "6C3B4F89-AC86-48DF-BE99-AFD9A4DA4FE2";
paths = (
{
closed = 1;
nodes = (
"123 -152 OFFCURVE",
"164 -165 OFFCURVE",
"205 -165 CURVE SMOOTH",
"246 -165 OFFCURVE",
"288 -132 OFFCURVE",
"288 -92 CURVE SMOOTH",
"288 -72 OFFCURVE",
"277 -54 OFFCURVE",
"256 -39 CURVE SMOOTH",
"235 -24 OFFCURVE",
"223 -10 OFFCURVE",
"220 3 CURVE",
"240 1 OFFCURVE",
"261 0 OFFCURVE",
"282 0 CURVE SMOOTH",
"303 0 OFFCURVE",
"314 8 OFFCURVE",
"314 23 CURVE SMOOTH",
"314 36 OFFCURVE",
"304 42 OFFCURVE",
"284 42 CURVE SMOOTH",
"220 42 OFFCURVE",
"191 45 OFFCURVE",
"160 63 CURVE SMOOTH",
"129 81 OFFCURVE",
"118 115 OFFCURVE",
"118 175 CURVE SMOOTH",
"118 419 LINE",
"261 419 LINE SMOOTH",
"282 419 OFFCURVE",
"292 425 OFFCURVE",
"292 438 CURVE SMOOTH",
"292 453 OFFCURVE",
"282 461 OFFCURVE",
"261 461 CURVE SMOOTH",
"118 461 LINE",
"118 570 LINE SMOOTH",
"118 591 OFFCURVE",
"110 601 OFFCURVE",
"95 601 CURVE SMOOTH",
"82 601 OFFCURVE",
"76 591 OFFCURVE",
"76 570 CURVE SMOOTH",
"76 461 LINE",
"55 461 OFFCURVE",
"45 454 OFFCURVE",
"45 440 CURVE SMOOTH",
"45 426 OFFCURVE",
"55 419 OFFCURVE",
"76 419 CURVE",
"76 175 LINE SMOOTH",
"76 85 OFFCURVE",
"110 30 OFFCURVE",
"177 11 CURVE",
"178 -25 OFFCURVE",
"206 -49 OFFCURVE",
"229 -66 CURVE",
"240 -75 OFFCURVE",
"246 -84 OFFCURVE",
"246 -94 CURVE SMOOTH",
"246 -115 OFFCURVE",
"230 -125 OFFCURVE",
"199 -125 CURVE SMOOTH",
"188 -125 OFFCURVE",
"174 -122 OFFCURVE",
"159 -116 CURVE SMOOTH",
"144 -110 OFFCURVE",
"135 -107 OFFCURVE",
"133 -107 CURVE SMOOTH",
"126 -107 OFFCURVE",
"123 -111 OFFCURVE",
"123 -120 CURVE SMOOTH"
);
}
);
width = 329;
}
);
leftKerningGroup = t;
note = tcommaaccent;
rightKerningGroup = t;
unicode = 0163;
},
{
glyphname = Tbar;
lastChange = "2016-07-31 02:06:19 +0000";
layers = (
{
layerId = "6C3B4F89-AC86-48DF-BE99-AFD9A4DA4FE2";
paths = (
{
closed = 1;
nodes = (
"210 20 LINE SMOOTH",
"210 2 OFFCURVE",
"217 -7 OFFCURVE",
"231 -7 CURVE SMOOTH",
"245 -7 OFFCURVE",
"252 2 OFFCURVE",
"252 20 CURVE SMOOTH",
"252 318 LINE",
"355 318 LINE SMOOTH",
"374 318 OFFCURVE",
"384 325 OFFCURVE",
"384 338 CURVE SMOOTH",
"384 353 OFFCURVE",
"374 361 OFFCURVE",
"355 361 CURVE SMOOTH",
"252 361 LINE",
"252 594 LINE",
"406 594 LINE SMOOTH",
"425 594 OFFCURVE",
"434 601 OFFCURVE",
"434 615 CURVE SMOOTH",
"434 629 OFFCURVE",
"425 636 OFFCURVE",
"406 636 CURVE SMOOTH",
"55 636 LINE SMOOTH",
"36 636 OFFCURVE",
"27 629 OFFCURVE",
"27 615 CURVE SMOOTH",
"27 601 OFFCURVE",
"36 594 OFFCURVE",
"55 594 CURVE SMOOTH",
"210 594 LINE",
"210 361 LINE",
"110 361 LINE SMOOTH",
"109 361 OFFCURVE",
"109 361 OFFCURVE",
"108 361 CURVE SMOOTH",
"92 361 OFFCURVE",
"84 354 OFFCURVE",
"84 340 CURVE SMOOTH",
"84 325 OFFCURVE",
"93 318 OFFCURVE",
"110 318 CURVE SMOOTH",
"210 318 LINE"
);
}
);
width = 462;
}
);
leftKerningGroup = T;
note = Tbar;
rightKerningGroup = T;
unicode = 0166;
},
{
glyphname = tbar;
lastChange = "2016-07-31 02:06:19 +0000";
layers = (
{
layerId = "6C3B4F89-AC86-48DF-BE99-AFD9A4DA4FE2";
paths = (
{
closed = 1;
nodes = (
"77 206 OFFCURVE",
"77 171 OFFCURVE",
"77 171 CURVE",
"77 30 OFFCURVE",
"150 0 OFFCURVE",
"285 0 CURVE SMOOTH",
"305 0 OFFCURVE",
"315 8 OFFCURVE",
"315 23 CURVE SMOOTH",
"315 36 OFFCURVE",
"305 42 OFFCURVE",
"285 42 CURVE SMOOTH",
"221 42 OFFCURVE",
"192 45 OFFCURVE",
"161 63 CURVE SMOOTH",
"130 81 OFFCURVE",
"119 115 OFFCURVE",
"119 175 CURVE SMOOTH",
"119 275 LINE",
"292 275 LINE SMOOTH",
"311 275 OFFCURVE",
"321 282 OFFCURVE",
"321 295 CURVE SMOOTH",
"321 310 OFFCURVE",
"311 318 OFFCURVE",
"292 318 CURVE SMOOTH",
"119 318 LINE",
"119 419 LINE",
"262 419 LINE SMOOTH",
"283 419 OFFCURVE",
"293 425 OFFCURVE",
"293 438 CURVE SMOOTH",
"293 453 OFFCURVE",
"283 461 OFFCURVE",
"262 461 CURVE SMOOTH",
"119 461 LINE",
"119 570 LINE SMOOTH",
"119 591 OFFCURVE",
"111 601 OFFCURVE",
"96 601 CURVE SMOOTH",
"83 601 OFFCURVE",
"77 591 OFFCURVE",
"77 570 CURVE SMOOTH",
"77 461 LINE",
"56 461 OFFCURVE",
"46 454 OFFCURVE",
"46 440 CURVE SMOOTH",
"46 426 OFFCURVE",
"56 419 OFFCURVE",
"77 419 CURVE",
"77 318 LINE",
"72 318 LINE SMOOTH",
"55 318 OFFCURVE",
"46 311 OFFCURVE",
"46 297 CURVE SMOOTH",
"46 282 OFFCURVE",
"55 275 OFFCURVE",
"72 275 CURVE SMOOTH",
"77 275 LINE"
);
}
);
width = 337;
}
);
leftKerningGroup = t;
note = tbar;
rightKerningGroup = t;
unicode = 0167;
},
{
glyphname = Uogonek;
lastChange = "2016-07-31 02:06:19 +0000";
layers = (
{
layerId = "6C3B4F89-AC86-48DF-BE99-AFD9A4DA4FE2";
paths = (
{
closed = 1;
nodes = (
"390 -150 OFFCURVE",
"387 -146 OFFCURVE",
"380 -146 CURVE SMOOTH",
"378 -146 OFFCURVE",
"369 -149 OFFCURVE",
"354 -155 CURVE SMOOTH",
"339 -161 OFFCURVE",
"325 -164 OFFCURVE",
"314 -164 CURVE SMOOTH",
"283 -164 OFFCURVE",
"267 -144 OFFCURVE",
"267 -105 CURVE SMOOTH",
"267 -82 OFFCURVE",
"298 -29 OFFCURVE",
"323 -8 CURVE",
"440 3 OFFCURVE",
"522 90 OFFCURVE",
"522 227 CURVE SMOOTH",
"522 615 LINE SMOOTH",
"522 634 OFFCURVE",
"515 643 OFFCURVE",
"501 643 CURVE SMOOTH",
"487 643 OFFCURVE",
"480 634 OFFCURVE",
"480 615 CURVE SMOOTH",
"480 227 LINE SMOOTH",
"480 106 OFFCURVE",
"412 33 OFFCURVE",
"300 33 CURVE SMOOTH",
"188 33 OFFCURVE",
"120 106 OFFCURVE",
"120 227 CURVE SMOOTH",
"120 615 LINE SMOOTH",
"120 634 OFFCURVE",
"113 643 OFFCURVE",
"99 643 CURVE SMOOTH",
"85 643 OFFCURVE",
"78 634 OFFCURVE",
"78 615 CURVE SMOOTH",
"78 227 LINE SMOOTH",
"78 92 OFFCURVE",
"156 5 OFFCURVE",
"271 -7 CURVE",
"240 -50 OFFCURVE",
"225 -84 OFFCURVE",
"225 -110 CURVE SMOOTH",
"225 -162 OFFCURVE",
"263 -204 OFFCURVE",
"316 -204 CURVE SMOOTH",
"347 -204 OFFCURVE",
"390 -191 OFFCURVE",
"390 -159 CURVE SMOOTH"
);
}
);
width = 600;
}
);
leftKerningGroup = U;
note = Uogonek;
rightKerningGroup = U;
unicode = 0172;
},
{
glyphname = uogonek;
lastChange = "2016-07-31 02:06:19 +0000";
layers = (
{
layerId = "6C3B4F89-AC86-48DF-BE99-AFD9A4DA4FE2";
paths = (
{
closed = 1;
nodes = (
"565 -150 OFFCURVE",
"562 -146 OFFCURVE",
"555 -146 CURVE SMOOTH",
"553 -146 OFFCURVE",
"544 -149 OFFCURVE",
"529 -155 CURVE SMOOTH",
"514 -161 OFFCURVE",
"500 -164 OFFCURVE",
"489 -164 CURVE SMOOTH",
"458 -164 OFFCURVE",
"442 -144 OFFCURVE",
"442 -105 CURVE SMOOTH",
"442 -82 OFFCURVE",
"475 -26 OFFCURVE",
"500 -6 CURVE",
"509 -4 OFFCURVE",
"514 6 OFFCURVE",
"514 24 CURVE SMOOTH",
"514 438 LINE SMOOTH",
"514 458 OFFCURVE",
"507 468 OFFCURVE",
"493 468 CURVE SMOOTH",
"479 468 OFFCURVE",
"472 458 OFFCURVE",
"472 438 CURVE SMOOTH",
"472 228 LINE SMOOTH",
"472 108 OFFCURVE",
"412 42 OFFCURVE",
"307 42 CURVE SMOOTH",
"278 42 LINE SMOOTH",
"214 42 OFFCURVE",
"185 45 OFFCURVE",
"154 63 CURVE SMOOTH",
"123 81 OFFCURVE",
"112 115 OFFCURVE",
"112 175 CURVE SMOOTH",
"112 438 LINE SMOOTH",
"112 458 OFFCURVE",
"105 468 OFFCURVE",
"91 468 CURVE SMOOTH",
"77 468 OFFCURVE",
"70 458 OFFCURVE",
"70 438 CURVE SMOOTH",
"70 175 LINE SMOOTH",
"70 35 OFFCURVE",
"137 0 OFFCURVE",
"278 0 CURVE SMOOTH",
"307 0 LINE SMOOTH",
"381 0 OFFCURVE",
"436 24 OFFCURVE",
"472 72 CURVE",
"472 24 LINE",
"441 -7 OFFCURVE",
"400 -73 OFFCURVE",
"400 -105 CURVE SMOOTH",
"400 -164 OFFCURVE",
"438 -204 OFFCURVE",
"491 -204 CURVE SMOOTH",
"522 -204 OFFCURVE",
"565 -191 OFFCURVE",
"565 -159 CURVE SMOOTH"
);
}
);
width = 588;
}
);
leftKerningGroup = u;
note = uogonek;
rightKerningGroup = g;
unicode = 0173;
},
{
glyphname = florin;
lastChange = "2016-07-31 02:06:19 +0000";
layers = (
{
layerId = "6C3B4F89-AC86-48DF-BE99-AFD9A4DA4FE2";
paths = (
{
closed = 1;
nodes = (
"264 419 LINE SMOOTH",
"285 419 OFFCURVE",
"295 425 OFFCURVE",
"295 438 CURVE SMOOTH",
"295 453 OFFCURVE",
"285 461 OFFCURVE",
"264 461 CURVE SMOOTH",
"121 461 LINE",
"121 521 OFFCURVE",
"132 556 OFFCURVE",
"163 574 CURVE SMOOTH",
"194 592 OFFCURVE",
"223 594 OFFCURVE",
"287 594 CURVE SMOOTH",
"308 594 OFFCURVE",
"318 600 OFFCURVE",
"318 613 CURVE SMOOTH",
"318 628 OFFCURVE",
"308 636 OFFCURVE",
"287 636 CURVE SMOOTH",
"218 636 OFFCURVE",
"177 630 OFFCURVE",
"137 606 CURVE SMOOTH",
"98 583 OFFCURVE",
"79 534 OFFCURVE",
"79 461 CURVE",
"58 461 OFFCURVE",
"48 454 OFFCURVE",
"48 440 CURVE SMOOTH",
"48 426 OFFCURVE",
"58 419 OFFCURVE",
"79 419 CURVE",
"79 70 LINE SMOOTH",
"79 -53 OFFCURVE",
"72 -63 OFFCURVE",
"-19 -63 CURVE SMOOTH",
"-40 -63 OFFCURVE",
"-50 -70 OFFCURVE",
"-50 -84 CURVE SMOOTH",
"-50 -98 OFFCURVE",
"-40 -105 OFFCURVE",
"-19 -105 CURVE SMOOTH",
"85 -105 OFFCURVE",
"121 -79 OFFCURVE",
"121 44 CURVE SMOOTH",
"121 419 LINE"
);
}
);
width = 313;
}
);
note = florin;
rightKerningGroup = numbersign;
unicode = 0192;
},
{
glyphname = Ohorn;
lastChange = "2016-07-31 02:06:19 +0000";
layers = (
{
layerId = "6C3B4F89-AC86-48DF-BE99-AFD9A4DA4FE2";
paths = (
{
closed = 1;
nodes = (
"434 612 OFFCURVE",
"372 645 OFFCURVE",
"287 645 CURVE SMOOTH",
"158 645 OFFCURVE",
"65 556 OFFCURVE",
"65 409 CURVE SMOOTH",
"65 227 LINE SMOOTH",
"65 80 OFFCURVE",
"158 -9 OFFCURVE",
"287 -9 CURVE SMOOTH",
"416 -9 OFFCURVE",
"509 80 OFFCURVE",
"509 227 CURVE SMOOTH",
"509 409 LINE SMOOTH",
"509 444 OFFCURVE",
"504 476 OFFCURVE",
"493 507 CURVE",
"573 512 OFFCURVE",
"613 541 OFFCURVE",
"613 596 CURVE SMOOTH",
"613 623 OFFCURVE",
"599 648 OFFCURVE",
"571 671 CURVE",
"564 678 OFFCURVE",
"557 681 OFFCURVE",
"552 681 CURVE SMOOTH",
"541 681 OFFCURVE",
"531 671 OFFCURVE",
"531 659 CURVE SMOOTH",
"531 652 OFFCURVE",
"537 644 OFFCURVE",
"550 634 CURVE",
"563 623 OFFCURVE",
"569 610 OFFCURVE",
"569 594 CURVE SMOOTH",
"569 563 OFFCURVE",
"537 548 OFFCURVE",
"474 547 CURVE"
);
},
{
closed = 1;
nodes = (
"451 517 OFFCURVE",
"467 470 OFFCURVE",
"467 409 CURVE SMOOTH",
"467 227 LINE SMOOTH",
"467 106 OFFCURVE",
"399 33 OFFCURVE",
"287 33 CURVE SMOOTH",
"175 33 OFFCURVE",
"107 106 OFFCURVE",
"107 227 CURVE SMOOTH",
"107 409 LINE SMOOTH",
"107 530 OFFCURVE",
"175 603 OFFCURVE",
"287 603 CURVE SMOOTH",
"343 603 OFFCURVE",
"387 586 OFFCURVE",
"419 552 CURVE SMOOTH"
);
}
);
width = 607;
}
);
leftKerningGroup = O;
note = Ohorn;
rightKerningGroup = Ohorn;
unicode = 01A0;
},
{
glyphname = ohorn;
lastChange = "2016-07-31 02:06:19 +0000";
layers = (
{
layerId = "6C3B4F89-AC86-48DF-BE99-AFD9A4DA4FE2";
paths = (
{
closed = 1;
nodes = (
"567 380 OFFCURVE",
"544 363 OFFCURVE",
"497 359 CURVE",
"474 439 OFFCURVE",
"411 461 OFFCURVE",
"299 461 CURVE SMOOTH",
"270 461 LINE SMOOTH",
"129 461 OFFCURVE",
"62 426 OFFCURVE",
"62 286 CURVE SMOOTH",
"62 175 LINE SMOOTH",
"62 35 OFFCURVE",
"129 0 OFFCURVE",
"270 0 CURVE SMOOTH",
"299 0 LINE SMOOTH",
"439 0 OFFCURVE",
"506 35 OFFCURVE",
"506 175 CURVE SMOOTH",
"506 286 LINE SMOOTH",
"506 301 OFFCURVE",
"506 312 OFFCURVE",
"505 319 CURVE",
"576 327 OFFCURVE",
"611 356 OFFCURVE",
"611 407 CURVE SMOOTH",
"611 434 OFFCURVE",
"597 459 OFFCURVE",
"569 482 CURVE",
"562 489 OFFCURVE",
"555 492 OFFCURVE",
"550 492 CURVE SMOOTH",
"539 492 OFFCURVE",
"529 482 OFFCURVE",
"529 470 CURVE SMOOTH",
"529 463 OFFCURVE",
"535 455 OFFCURVE",
"548 445 CURVE",
"561 434 OFFCURVE",
"567 423 OFFCURVE",
"567 411 CURVE SMOOTH"
);
},
{
closed = 1;
nodes = (
"206 42 OFFCURVE",
"177 45 OFFCURVE",
"146 63 CURVE SMOOTH",
"115 81 OFFCURVE",
"104 115 OFFCURVE",
"104 175 CURVE SMOOTH",
"104 286 LINE SMOOTH",
"104 346 OFFCURVE",
"115 381 OFFCURVE",
"146 399 CURVE SMOOTH",
"177 417 OFFCURVE",
"206 419 OFFCURVE",
"270 419 CURVE SMOOTH",
"299 419 LINE SMOOTH",
"362 419 OFFCURVE",
"391 417 OFFCURVE",
"422 399 CURVE SMOOTH",
"453 381 OFFCURVE",
"464 346 OFFCURVE",
"464 286 CURVE SMOOTH",
"464 175 LINE SMOOTH",
"464 115 OFFCURVE",
"453 81 OFFCURVE",
"422 63 CURVE SMOOTH",
"391 45 OFFCURVE",
"362 42 OFFCURVE",
"299 42 CURVE SMOOTH",
"270 42 LINE SMOOTH"
);
}
);
width = 606;
}
);
leftKerningGroup = c;
note = ohorn;
rightKerningGroup = ohorn;
unicode = 01A1;
},
{
glyphname = Uhorn;
lastChange = "2016-07-31 02:06:19 +0000";
layers = (
{
layerId = "6C3B4F89-AC86-48DF-BE99-AFD9A4DA4FE2";
paths = (
{
closed = 1;
nodes = (
"521 634 OFFCURVE",
"514 643 OFFCURVE",
"500 643 CURVE SMOOTH",
"486 643 OFFCURVE",
"479 634 OFFCURVE",
"479 615 CURVE SMOOTH",
"479 227 LINE SMOOTH",
"479 106 OFFCURVE",
"411 33 OFFCURVE",
"299 33 CURVE SMOOTH",
"187 33 OFFCURVE",
"119 106 OFFCURVE",
"119 227 CURVE SMOOTH",
"119 615 LINE SMOOTH",
"119 634 OFFCURVE",
"112 643 OFFCURVE",
"98 643 CURVE SMOOTH",
"84 643 OFFCURVE",
"77 634 OFFCURVE",
"77 615 CURVE SMOOTH",
"77 227 LINE SMOOTH",
"77 80 OFFCURVE",
"170 -9 OFFCURVE",
"299 -9 CURVE SMOOTH",
"428 -9 OFFCURVE",
"521 80 OFFCURVE",
"521 227 CURVE SMOOTH",
"521 501 LINE",
"608 504 OFFCURVE",
"652 534 OFFCURVE",
"652 591 CURVE SMOOTH",
"652 618 OFFCURVE",
"638 643 OFFCURVE",
"610 666 CURVE",
"603 673 OFFCURVE",
"596 676 OFFCURVE",
"591 676 CURVE SMOOTH",
"580 676 OFFCURVE",
"570 666 OFFCURVE",
"570 654 CURVE SMOOTH",
"570 647 OFFCURVE",
"576 639 OFFCURVE",
"589 629 CURVE",
"602 618 OFFCURVE",
"608 605 OFFCURVE",
"608 590 CURVE SMOOTH",
"608 561 OFFCURVE",
"579 545 OFFCURVE",
"521 542 CURVE",
"521 615 LINE SMOOTH"
);
}
);
width = 639;
}
);
leftKerningGroup = U;
note = Uhorn;
rightKerningGroup = Uhorn;
unicode = 01AF;
},
{
glyphname = uhorn;
lastChange = "2016-07-31 02:06:19 +0000";
layers = (
{
layerId = "6C3B4F89-AC86-48DF-BE99-AFD9A4DA4FE2";
paths = (
{
closed = 1;
nodes = (
"591 387 OFFCURVE",
"565 369 OFFCURVE",
"514 366 CURVE",
"514 438 LINE SMOOTH",
"514 458 OFFCURVE",
"507 468 OFFCURVE",
"493 468 CURVE SMOOTH",
"479 468 OFFCURVE",
"472 458 OFFCURVE",
"472 438 CURVE SMOOTH",
"472 228 LINE SMOOTH",
"472 108 OFFCURVE",
"412 42 OFFCURVE",
"307 42 CURVE SMOOTH",
"278 42 LINE SMOOTH",
"214 42 OFFCURVE",
"185 45 OFFCURVE",
"154 63 CURVE SMOOTH",
"123 81 OFFCURVE",
"112 115 OFFCURVE",
"112 175 CURVE SMOOTH",
"112 438 LINE SMOOTH",
"112 458 OFFCURVE",
"105 468 OFFCURVE",
"91 468 CURVE SMOOTH",
"77 468 OFFCURVE",
"70 458 OFFCURVE",
"70 438 CURVE SMOOTH",
"70 175 LINE SMOOTH",
"70 35 OFFCURVE",
"137 0 OFFCURVE",
"278 0 CURVE SMOOTH",
"307 0 LINE SMOOTH",
"381 0 OFFCURVE",
"436 24 OFFCURVE",
"472 72 CURVE",
"472 24 LINE SMOOTH",
"472 3 OFFCURVE",
"480 -7 OFFCURVE",
"495 -7 CURVE SMOOTH",
"508 -7 OFFCURVE",
"514 3 OFFCURVE",
"514 24 CURVE SMOOTH",
"514 325 LINE",
"595 330 OFFCURVE",
"635 359 OFFCURVE",
"635 414 CURVE SMOOTH",
"635 441 OFFCURVE",
"621 466 OFFCURVE",
"593 489 CURVE",
"586 496 OFFCURVE",
"579 499 OFFCURVE",
"574 499 CURVE SMOOTH",
"563 499 OFFCURVE",
"553 489 OFFCURVE",
"553 477 CURVE SMOOTH",
"553 470 OFFCURVE",
"559 462 OFFCURVE",
"572 452 CURVE",
"585 441 OFFCURVE",
"591 430 OFFCURVE",
"591 418 CURVE SMOOTH"
);
}
);
width = 628;
}
);
leftKerningGroup = u;
note = uhorn;
rightKerningGroup = uhorn;
unicode = 01B0;
},
{
glyphname = uni01EA;
lastChange = "2016-07-31 02:06:19 +0000";
layers = (
{
layerId = "6C3B4F89-AC86-48DF-BE99-AFD9A4DA4FE2";
paths = (
{
closed = 1;
nodes = (
"365 -147 OFFCURVE",
"356 -150 OFFCURVE",
"341 -156 CURVE SMOOTH",
"326 -162 OFFCURVE",
"312 -165 OFFCURVE",
"301 -165 CURVE SMOOTH",
"270 -165 OFFCURVE",
"254 -145 OFFCURVE",
"254 -106 CURVE SMOOTH",
"254 -83 OFFCURVE",
"287 -28 OFFCURVE",
"312 -8 CURVE",
"428 3 OFFCURVE",
"509 90 OFFCURVE",
"509 227 CURVE SMOOTH",
"509 409 LINE SMOOTH",
"509 556 OFFCURVE",
"416 645 OFFCURVE",
"287 645 CURVE SMOOTH",
"158 645 OFFCURVE",
"65 556 OFFCURVE",
"65 409 CURVE SMOOTH",
"65 227 LINE SMOOTH",
"65 91 OFFCURVE",
"143 4 OFFCURVE",
"259 -8 CURVE",
"228 -50 OFFCURVE",
"212 -84 OFFCURVE",
"212 -111 CURVE SMOOTH",
"212 -164 OFFCURVE",
"250 -206 OFFCURVE",
"301 -206 CURVE SMOOTH",
"302 -206 OFFCURVE",
"302 -206 OFFCURVE",
"303 -206 CURVE SMOOTH",
"352 -206 OFFCURVE",
"377 -181 OFFCURVE",
"377 -161 CURVE SMOOTH",
"377 -152 OFFCURVE",
"374 -147 OFFCURVE",
"367 -147 CURVE SMOOTH"
);
},
{
closed = 1;
nodes = (
"451 517 OFFCURVE",
"467 470 OFFCURVE",
"467 409 CURVE SMOOTH",
"467 227 LINE SMOOTH",
"467 106 OFFCURVE",
"399 33 OFFCURVE",
"287 33 CURVE SMOOTH",
"175 33 OFFCURVE",
"107 106 OFFCURVE",
"107 227 CURVE SMOOTH",
"107 409 LINE SMOOTH",
"107 530 OFFCURVE",
"175 603 OFFCURVE",
"287 603 CURVE SMOOTH",
"343 603 OFFCURVE",
"387 586 OFFCURVE",
"419 552 CURVE SMOOTH"
);
}
);
width = 574;
}
);
note = uni01EA;
rightKerningGroup = numbersign;
unicode = 01EA;
},
{
glyphname = uni01EB;
lastChange = "2016-07-31 02:06:19 +0000";
layers = (
{
layerId = "6C3B4F89-AC86-48DF-BE99-AFD9A4DA4FE2";
paths = (
{
closed = 1;
nodes = (
"374 -146 OFFCURVE",
"371 -142 OFFCURVE",
"364 -142 CURVE SMOOTH",
"362 -142 OFFCURVE",
"353 -145 OFFCURVE",
"338 -151 CURVE SMOOTH",
"323 -157 OFFCURVE",
"309 -160 OFFCURVE",
"298 -160 CURVE SMOOTH",
"267 -160 OFFCURVE",
"252 -140 OFFCURVE",
"252 -101 CURVE SMOOTH",
"252 -77 OFFCURVE",
"289 -16 OFFCURVE",
"314 0 CURVE",
"435 3 OFFCURVE",
"506 35 OFFCURVE",
"506 175 CURVE SMOOTH",
"506 286 LINE SMOOTH",
"506 426 OFFCURVE",
"439 461 OFFCURVE",
"299 461 CURVE SMOOTH",
"270 461 LINE SMOOTH",
"129 461 OFFCURVE",
"62 426 OFFCURVE",
"62 286 CURVE SMOOTH",
"62 175 LINE SMOOTH",
"62 39 OFFCURVE",
"125 3 OFFCURVE",
"258 0 CURVE",
"226 -43 OFFCURVE",
"210 -78 OFFCURVE",
"210 -105 CURVE SMOOTH",
"210 -160 OFFCURVE",
"251 -200 OFFCURVE",
"292 -200 CURVE SMOOTH",
"333 -200 OFFCURVE",
"374 -187 OFFCURVE",
"374 -155 CURVE SMOOTH"
);
},
{
closed = 1;
nodes = (
"206 42 OFFCURVE",
"177 45 OFFCURVE",
"146 63 CURVE SMOOTH",
"115 81 OFFCURVE",
"104 115 OFFCURVE",
"104 175 CURVE SMOOTH",
"104 286 LINE SMOOTH",
"104 346 OFFCURVE",
"115 381 OFFCURVE",
"146 399 CURVE SMOOTH",
"177 417 OFFCURVE",
"206 419 OFFCURVE",
"270 419 CURVE SMOOTH",
"299 419 LINE SMOOTH",
"362 419 OFFCURVE",
"391 417 OFFCURVE",
"422 399 CURVE SMOOTH",
"453 381 OFFCURVE",
"464 346 OFFCURVE",
"464 286 CURVE SMOOTH",
"464 175 LINE SMOOTH",
"464 115 OFFCURVE",
"453 81 OFFCURVE",
"422 63 CURVE SMOOTH",
"391 45 OFFCURVE",
"362 42 OFFCURVE",
"299 42 CURVE SMOOTH",
"270 42 LINE SMOOTH"
);
}
);
width = 568;
}
);
note = uni01EB;
rightKerningGroup = numbersign;
unicode = 01EB;
},
{
glyphname = uni0237;
lastChange = "2016-07-31 02:06:19 +0000";
layers = (
{
layerId = "6C3B4F89-AC86-48DF-BE99-AFD9A4DA4FE2";
paths = (
{
closed = 1;
nodes = (
"117 458 OFFCURVE",
"110 468 OFFCURVE",
"96 468 CURVE SMOOTH",
"82 468 OFFCURVE",
"75 458 OFFCURVE",
"75 437 CURVE SMOOTH",
"75 0 LINE SMOOTH",
"75 -60 OFFCURVE",
"64 -94 OFFCURVE",
"33 -112 CURVE SMOOTH",
"2 -130 OFFCURVE",
"-27 -133 OFFCURVE",
"-91 -133 CURVE SMOOTH",
"-112 -133 OFFCURVE",
"-122 -140 OFFCURVE",
"-122 -154 CURVE SMOOTH",
"-122 -168 OFFCURVE",
"-112 -175 OFFCURVE",
"-91 -175 CURVE SMOOTH",
"-22 -175 OFFCURVE",
"19 -170 OFFCURVE",
"59 -146 CURVE SMOOTH",
"98 -123 OFFCURVE",
"117 -75 OFFCURVE",
"117 0 CURVE SMOOTH",
"117 437 LINE SMOOTH"
);
}
);
width = 192;
}
);
note = uni0237;
rightKerningGroup = numbersign;
unicode = 0237;
},
{
glyphname = circumflex;
lastChange = "2016-07-31 02:06:19 +0000";
layers = (
{
layerId = "6C3B4F89-AC86-48DF-BE99-AFD9A4DA4FE2";
paths = (
{
closed = 1;
nodes = (
"297 527 OFFCURVE",
"299 524 OFFCURVE",
"302 521 CURVE",
"307 514 OFFCURVE",
"309 510 OFFCURVE",
"320 510 CURVE SMOOTH",
"332 510 OFFCURVE",
"338 516 OFFCURVE",
"338 528 CURVE SMOOTH",
"338 533 OFFCURVE",
"337 538 OFFCURVE",
"334 541 CURVE",
"228 678 LINE",
"173 678 LINE",
"69 541 LINE",
"66 538 OFFCURVE",
"65 534 OFFCURVE",
"65 528 CURVE SMOOTH",
"65 516 OFFCURVE",
"71 510 OFFCURVE",
"83 510 CURVE SMOOTH",
"88 510 OFFCURVE",
"96 516 OFFCURVE",
"107 528 CURVE SMOOTH",
"199 632 LINE",
"202 632 LINE",
"296 528 LINE"
);
}
);
width = 402;
}
);
note = circumflex;
rightKerningGroup = numbersign;
unicode = 02C6;
},
{
glyphname = caron;
lastChange = "2016-07-31 02:06:19 +0000";
layers = (
{
layerId = "6C3B4F89-AC86-48DF-BE99-AFD9A4DA4FE2";
paths = (
{
closed = 1;
nodes = (
"321 638 OFFCURVE",
"323 642 OFFCURVE",
"323 646 CURVE SMOOTH",
"323 656 OFFCURVE",
"317 661 OFFCURVE",
"305 661 CURVE SMOOTH",
"298 661 OFFCURVE",
"289 656 OFFCURVE",
"276 645 CURVE SMOOTH",
"189 573 LINE",
"102 645 LINE SMOOTH",
"89 656 OFFCURVE",
"80 661 OFFCURVE",
"73 661 CURVE SMOOTH",
"61 661 OFFCURVE",
"55 656 OFFCURVE",
"55 646 CURVE SMOOTH",
"55 642 OFFCURVE",
"57 638 OFFCURVE",
"61 634 CURVE SMOOTH",
"163 527 LINE",
"215 527 LINE",
"317 634 LINE SMOOTH"
);
}
);
width = 373;
}
);
note = caron;
rightKerningGroup = numbersign;
unicode = 02C7;
},
{
glyphname = breve;
lastChange = "2016-07-31 02:06:19 +0000";
layers = (
{
layerId = "6C3B4F89-AC86-48DF-BE99-AFD9A4DA4FE2";
paths = (
{
closed = 1;
nodes = (
"286 684 OFFCURVE",
"258 652 OFFCURVE",
"214 652 CURVE SMOOTH",
"170 652 OFFCURVE",
"142 684 OFFCURVE",
"142 729 CURVE",
"99 729 LINE",
"99 665 OFFCURVE",
"151 608 OFFCURVE",
"214 608 CURVE SMOOTH",
"277 608 OFFCURVE",
"329 665 OFFCURVE",
"329 729 CURVE",
"286 729 LINE"
);
}
);
width = 428;
}
);
note = breve;
rightKerningGroup = numbersign;
unicode = 02D8;
},
